<?xml version="1.0" encoding="utf-8"?>
<!-- Generator: Adobe Illustrator 16.0.0, SVG Export Plug-In . SVG Version: 6.00 Build 0)  -->
<!DOCTYPE svg PUBLIC "-//W3C//DTD SVG 1.1//EN" "http://www.w3.org/Graphics/SVG/1.1/DTD/svg11.dtd">
<svg version="1.1" id="Earth_with_trees" xmlns="http://www.w3.org/2000/svg" xmlns:xlink="http://www.w3.org/1999/xlink" x="0px"
	 y="0px" width="1020px" height="1020px" viewBox="0 0 1020 1020" enable-background="new 0 0 1020 1020" xml:space="preserve">
<path opacity="0.25" fill="#2685BF" d="M1012.186,512.632c0,29.813-2.609,59.015-7.608,87.398
	c-36.421,206.589-199.688,369.438-406.484,405.239c-27.913,4.839-56.615,7.358-85.908,7.358c-276.138,0-500-223.854-500-499.996
	c0-276.151,223.862-500.005,500-500.005S1012.186,236.481,1012.186,512.632z"/>
<circle fill="#0A91AB" cx="515.03" cy="512.067" r="325.533"/>
<defs>
	<filter id="Adobe_OpacityMaskFilter" filterUnits="userSpaceOnUse" x="515.297" y="186.523" width="325.533" height="651.067">
		<feColorMatrix  type="matrix" values="1 0 0 0 0  0 1 0 0 0  0 0 1 0 0  0 0 0 1 0"/>
	</filter>
</defs>
<mask maskUnits="userSpaceOnUse" x="515.297" y="186.523" width="325.533" height="651.067" id="SVGID_1_">
	<g filter="url(#Adobe_OpacityMaskFilter)">
		<linearGradient id="SVGID_2_" gradientUnits="userSpaceOnUse" x1="677.96" y1="818.1016" x2="677.9599" y2="63.9833">
			<stop  offset="0" style="stop-color:#FFFFFF"/>
			<stop  offset="1" style="stop-color:#000000"/>
		</linearGradient>
		<rect x="484.28" y="161.658" opacity="0.6" fill="url(#SVGID_2_)" width="387.361" height="717.061"/>
	</g>
</mask>
<g mask="url(#SVGID_1_)">
	<path fill="#065471" d="M515.297,186.523v651.067c179.787,0,325.533-145.747,325.533-325.534
		C840.83,332.27,695.084,186.523,515.297,186.523z"/>
</g>
<defs>
	<filter id="Adobe_OpacityMaskFilter_1_" filterUnits="userSpaceOnUse" x="25.744" y="248.523" width="1024.793" height="565.708">
		<feColorMatrix  type="matrix" values="1 0 0 0 0  0 1 0 0 0  0 0 1 0 0  0 0 0 1 0"/>
	</filter>
</defs>
<mask maskUnits="userSpaceOnUse" x="25.744" y="248.523" width="1024.793" height="565.708" id="SVGID_3_">
	<g filter="url(#Adobe_OpacityMaskFilter_1_)">
		<circle fill="#FFFFFF" cx="515.03" cy="512.067" r="325.533"/>
	</g>
</mask>
<g mask="url(#SVGID_3_)">
	<defs>
		<filter id="Adobe_OpacityMaskFilter_2_" filterUnits="userSpaceOnUse" x="25.744" y="248.523" width="1024.793" height="565.708">
			<feColorMatrix  type="matrix" values="1 0 0 0 0  0 1 0 0 0  0 0 1 0 0  0 0 0 1 0"/>
		</filter>
	</defs>
	<mask maskUnits="userSpaceOnUse" x="25.744" y="248.523" width="1024.793" height="565.708" id="SVGID_3_">
		<g filter="url(#Adobe_OpacityMaskFilter_2_)">
			<circle fill="#FFFFFF" cx="515.03" cy="512.067" r="325.533"/>
		</g>
	</mask>
	<g>
		<g>
			<polygon fill="#F2EB80" points="577.609,298.791 544.344,332.057 544.344,344.624 559.498,359.778 559.498,366.062 
				547.854,377.705 526.602,377.705 495.831,408.476 495.831,429.636 502.346,436.151 522.166,436.151 556.102,402.215 
				575.762,421.875 604.961,421.875 617.344,409.492 634.53,409.492 648.668,423.63 648.668,441.464 632.237,457.895 
				585.002,457.895 559.414,432.308 540.277,451.444 495.831,451.444 455.958,491.317 455.958,533.13 489.062,566.234 
				528.818,566.234 550.996,588.411 564.384,601.798 564.384,653.626 579.867,669.109 579.867,701.676 606.829,728.639 
				625.66,728.639 658.73,695.567 658.73,655.844 672.873,641.7 672.873,594.486 712.472,554.889 712.472,536.086 696.787,520.402 
				722.87,494.319 722.87,479.905 731.926,470.849 758.723,470.849 815.736,527.862 849.279,494.319 862.586,507.626 
				862.586,526.477 883.84,547.729 915.441,547.729 928.285,534.886 928.285,496.168 948.106,476.347 948.106,422.244 
				958.318,422.244 982.713,397.849 982.713,366.801 957.209,341.297 977.168,321.337 997.498,321.337 997.498,354.973 
				1020.783,378.259 1035.568,363.475 1035.568,332.057 1050.537,317.087 1031.133,297.682 984.191,297.682 971.809,285.3 
				869.609,285.3 857.688,297.22 820.08,297.22 801.645,278.785 761.68,278.785 737.631,302.833 693.67,302.833 673.514,322.989 
				627.138,322.989 602.473,298.323 			"/>
		</g>
		<g>
			<polygon fill="#F2EB80" points="232.385,554.567 253.453,533.499 289.306,533.499 315.734,559.927 329.964,559.927 
				358.702,588.665 378.754,588.665 399.037,608.947 399.037,629.23 378.916,649.352 378.916,672.107 320.331,730.691 
				320.331,748.248 302.971,765.609 302.971,794.082 323.12,814.231 301.873,814.231 284.406,796.764 264.816,777.174 
				264.816,697.98 264.816,666.193 245.274,646.65 227.532,628.908 227.532,561.959 			"/>
		</g>
		<g>
			<polygon fill="#F2EB80" points="43.14,353.495 57.924,338.709 114.106,338.709 127.413,352.016 127.413,381.586 93.777,415.221 
				93.777,444.421 231.091,581.734 231.091,564.178 213.256,546.344 213.256,521.301 199.241,507.286 199.241,493.211 
				182.177,510.274 167.701,495.798 167.701,468.077 186.367,449.411 219.817,449.411 238.114,467.707 238.114,448.856 
				276.277,410.693 313.285,410.693 352.071,371.906 325.898,345.732 304.091,345.732 283.947,365.877 262.693,365.877 
				242.457,345.64 270.086,318.011 300.395,318.011 317.397,301.008 306.309,289.92 297.068,299.161 256.041,299.161 
				248.463,306.738 191.727,306.738 175.556,290.566 120.021,290.566 95.625,290.566 85.23,300.962 60.142,300.962 25.744,335.36 
							"/>
		</g>
		<g>
			<polygon fill="#F2EB80" points="363.123,283.853 385.061,305.791 385.061,320.229 400.919,336.088 424.009,312.998 
				452.678,312.998 500.07,265.606 482.987,248.523 426.065,248.523 409.063,265.525 380.972,265.525 			"/>
		</g>
		<g>
			<polygon fill="#F2EB80" points="304.83,273.657 321.463,290.29 339.574,272.178 359.814,272.178 375.913,256.08 358.055,256.08 
				348.384,265.751 329.964,265.751 313.285,265.751 			"/>
		</g>
		<g>
			<polygon fill="#F2EB80" points="675.188,686.152 675.188,661.018 702.541,633.666 702.541,656.582 702.541,662.497 			"/>
		</g>
		<g>
			<polygon fill="#F2EB80" points="869.609,560.481 869.609,574.527 908.789,613.707 908.789,590.791 869.238,551.241 			"/>
		</g>
		<g>
			<polygon fill="#F2EB80" points="920.616,577.484 920.616,592.269 937.25,608.902 957.209,588.941 957.209,551.241 
				930.41,578.039 			"/>
		</g>
	</g>
</g>
<g>
	<g>
		<path fill="#547515" d="M741.292,372.044h-12.901c-2.824,0-5.134-2.31-5.134-5.133v-13.481c0-2.823,2.31-5.133,5.134-5.133h12.901
			c2.823,0,5.133,2.31,5.133,5.133v13.481C746.425,369.734,744.115,372.044,741.292,372.044z"/>
	</g>
	<g>
		<path fill="#64892B" d="M734.841,360.171v24.455V360.171z"/>
		<rect x="733.297" y="360.171" fill="#FFFFFF" width="3.088" height="24.455"/>
	</g>
	<g>
		<path fill="#64892B" d="M759.553,376.945h-9.045c-3.883,0-7.062-3.178-7.062-7.062v-30.816c0-3.883,3.179-7.061,7.062-7.061h9.045
			c3.885,0,7.062,3.178,7.062,7.061v30.816C766.614,373.767,763.438,376.945,759.553,376.945z"/>
	</g>
	<g>
		<path fill="#587A26" d="M759.553,332.006h-4.522v44.938h4.522c3.885,0,7.062-3.178,7.062-7.062v-30.816
			C766.614,335.184,763.438,332.006,759.553,332.006z"/>
	</g>
	<g>
		<path fill="#FFFFFF" d="M755.03,391.345c-1.005,0-1.819-0.814-1.819-1.818v-33.95c0-1.004,0.814-1.818,1.819-1.818
			s1.819,0.814,1.819,1.818v33.95C756.85,390.531,756.035,391.345,755.03,391.345z"/>
	</g>
	<g>
		<path fill="#D8E4EA" d="M755.03,353.758v37.587c1.005,0,1.819-0.814,1.819-1.818v-33.95
			C756.85,354.572,756.035,353.758,755.03,353.758z"/>
	</g>
</g>
<g>
	<g>
		<path fill="#64892B" d="M631.156,375.316h-12.902c-2.823,0-5.133-2.31-5.133-5.133v-7.029c0-6.371,5.213-11.584,11.584-11.584l0,0
			c6.371,0,11.584,5.213,11.584,11.584v7.029C636.289,373.007,633.979,375.316,631.156,375.316z"/>
	</g>
	<g>
		<path fill="#FFFFFF" d="M624.705,389.492c-1.004,0-1.819-0.813-1.819-1.818v-22.837c0-1.004,0.815-1.818,1.819-1.818
			s1.819,0.814,1.819,1.818v22.837C626.524,388.679,625.709,389.492,624.705,389.492z"/>
	</g>
	<g>
		<path fill="#D8E4EA" d="M624.705,363.018v26.474c1.004,0,1.819-0.813,1.819-1.818v-22.837
			C626.524,363.832,625.709,363.018,624.705,363.018z"/>
	</g>
</g>
<g>
	<g>
		<path fill="#A57632" d="M699.546,440.906c-1.005,0-1.819-0.814-1.819-1.818v-33.949c0-1.004,0.814-1.819,1.819-1.819
			s1.819,0.814,1.819,1.819v33.949C701.365,440.092,700.551,440.906,699.546,440.906z"/>
	</g>
	<g>
		<path fill="#896434" d="M699.546,403.32v37.586c1.005,0,1.819-0.814,1.819-1.818v-33.949
			C701.365,404.134,700.551,403.32,699.546,403.32z"/>
	</g>
	<g>
		<path fill="#64892B" d="M686.365,425.127l8.754-14.142c2.035-3.288,6.818-3.288,8.853,0l8.755,14.142
			c2.146,3.468-0.348,7.946-4.426,7.946h-17.509C686.713,433.073,684.219,428.595,686.365,425.127z"/>
	</g>
	<g>
		<path fill="#64892B" d="M688.859,412.08l8.002-12.926c1.234-1.994,4.135-1.994,5.369,0l8.002,12.926
			c1.303,2.104-0.211,4.82-2.686,4.82h-16.003C689.07,416.9,687.557,414.185,688.859,412.08z"/>
	</g>
	<g>
		<path fill="#587A26" d="M712.727,425.127l-5.1-8.237c2.424-0.061,3.893-2.729,2.605-4.81l-8.002-12.926
			c-0.617-0.997-1.65-1.496-2.685-1.496v35.414h8.755C712.379,433.073,714.873,428.595,712.727,425.127z"/>
	</g>
</g>
<g>
	<g>
		<path fill="#BC8646" d="M309.382,387.04c-0.835,0-1.513-0.677-1.513-1.512v-28.232c0-0.835,0.678-1.512,1.513-1.512
			c0.835,0,1.513,0.677,1.513,1.512v28.232C310.896,386.363,310.218,387.04,309.382,387.04z"/>
	</g>
	<g>
		<path fill="#9E7344" d="M309.382,355.783v31.257c0.835,0,1.513-0.677,1.513-1.512v-28.232
			C310.896,356.459,310.218,355.783,309.382,355.783z"/>
	</g>
	<g>
		<path fill="#92A836" d="M320.344,373.917l-4.241-6.851c2.016-0.05,3.237-2.269,2.167-3.999l-6.654-10.75
			c-1.026-1.659-3.439-1.659-4.465,0l-6.654,10.75c-1.071,1.729,0.15,3.949,2.167,3.999l-4.241,6.851
			c-1.785,2.884,0.289,6.608,3.681,6.608h14.56C320.055,380.525,322.129,376.801,320.344,373.917z"/>
	</g>
	<g>
		<path fill="#7A872B" d="M320.343,373.917l-4.24-6.851c2.016-0.05,3.237-2.269,2.167-3.999l-6.654-10.75
			c-0.513-0.829-1.373-1.244-2.233-1.244v29.451h7.28C320.055,380.525,322.129,376.801,320.343,373.917z"/>
	</g>
</g>
<g>
	<g>
		<path fill="#64892B" d="M539.023,404.826h-9.736c-2.13,0-3.873-1.743-3.873-3.874v-5.305c0-4.808,3.934-8.742,8.742-8.742l0,0
			c4.807,0,8.741,3.934,8.741,8.742v5.305C542.897,403.083,541.154,404.826,539.023,404.826z"/>
	</g>
	<g>
		<path fill="#587A26" d="M534.156,386.906v17.92h4.867c2.131,0,3.874-1.743,3.874-3.874v-5.305
			C542.897,390.84,538.963,386.906,534.156,386.906z"/>
	</g>
	<g>
		<g>
			<path fill="#FFFFFF" d="M534.156,415.523c-0.758,0-1.373-0.614-1.373-1.372v-17.234c0-0.758,0.615-1.373,1.373-1.373
				s1.373,0.614,1.373,1.373v17.234C535.529,414.91,534.914,415.523,534.156,415.523z"/>
		</g>
		<g>
			<path fill="#D8E4EA" d="M534.156,395.544v19.979c0.758,0,1.373-0.614,1.373-1.372v-17.234
				C535.529,396.159,534.914,395.544,534.156,395.544z"/>
		</g>
	</g>
</g>
<g>
	<g>
		<path fill="#92A836" d="M239.164,410.778h-13.174c-2.883,0-5.241-2.359-5.241-5.242v-7.177c0-6.506,5.323-11.829,11.828-11.829h0
			c6.505,0,11.828,5.323,11.828,11.829v7.177C244.405,408.419,242.046,410.778,239.164,410.778z"/>
	</g>
	<g>
		<path fill="#7A872B" d="M232.576,386.53v24.248h6.587c2.883,0,5.241-2.359,5.241-5.242v-7.177
			C244.405,391.853,239.082,386.53,232.576,386.53z"/>
	</g>
	<g>
		<path fill="#FFFFFF" d="M232.576,425.253c-1.025,0-1.857-0.831-1.857-1.857v-23.32c0-1.026,0.832-1.857,1.857-1.857
			c1.026,0,1.858,0.831,1.858,1.857v23.32C234.434,424.422,233.603,425.253,232.576,425.253z"/>
	</g>
	<g>
		<path fill="#E2EDF2" d="M232.576,398.219v27.034c1.026,0,1.858-0.831,1.858-1.857v-23.32
			C234.434,399.05,233.603,398.219,232.576,398.219z"/>
	</g>
</g>
<g>
	<g>
		<path fill="#64892B" d="M629.484,576.008c-1.177,0-2.131,0.954-2.131,2.13v2.38c0,0.131-0.106,0.237-0.238,0.237h-2.093v-7.823
			c0-1.177-0.954-2.131-2.13-2.131c-1.177,0-2.131,0.954-2.131,2.131v11.91h-2.742c-0.533,0-0.968-0.434-0.968-0.967v-3.116
			c0-1.177-0.954-2.13-2.131-2.13c-1.176,0-2.13,0.953-2.13,2.13v3.116c0,2.883,2.346,5.229,5.229,5.229h2.742v7.172
			c0,1.176,0.954,2.131,2.131,2.131c1.176,0,2.13-0.955,2.13-2.131v-11.26h2.093c2.48,0,4.499-2.019,4.499-4.498v-2.38
			C631.614,576.962,630.66,576.008,629.484,576.008z"/>
	</g>
	<path fill="#587A26" d="M629.484,576.008c-1.177,0-2.131,0.954-2.131,2.13v2.38c0,0.131-0.106,0.237-0.238,0.237h-2.093v-7.823
		c0-1.177-0.954-2.131-2.13-2.131c-0.072,0-0.139,0.014-0.208,0.021v27.563c0.069,0.008,0.136,0.021,0.208,0.021
		c1.176,0,2.13-0.955,2.13-2.131v-11.26h2.093c2.48,0,4.499-2.019,4.499-4.498v-2.38
		C631.614,576.962,630.66,576.008,629.484,576.008z"/>
</g>
<g>
	<path fill="#64892B" d="M568.477,507.363c-1.567,0-2.84,1.271-2.84,2.838v3.171c0,0.173-0.142,0.316-0.316,0.316h-2.789v-10.424
		c0-1.567-1.271-2.838-2.838-2.838c-1.567,0-2.839,1.271-2.839,2.838v15.87h-3.653c-0.711,0-1.289-0.579-1.289-1.291v-4.15
		c0-1.567-1.271-2.838-2.839-2.838s-2.839,1.271-2.839,2.838v4.15c0,3.842,3.125,6.967,6.967,6.967h3.653v9.558
		c0,1.567,1.271,2.838,2.839,2.838c1.566,0,2.838-1.271,2.838-2.838v-15.003h2.789c3.305,0,5.994-2.688,5.994-5.993v-3.171
		C571.314,508.634,570.043,507.363,568.477,507.363z"/>
	<path fill="#587A26" d="M568.477,507.363c-1.567,0-2.84,1.271-2.84,2.838v3.171c0,0.173-0.142,0.316-0.316,0.316h-2.789v-10.424
		c0-1.567-1.271-2.838-2.838-2.838c-0.096,0-0.185,0.019-0.275,0.027v36.724c0.091,0.01,0.18,0.028,0.275,0.028
		c1.566,0,2.838-1.271,2.838-2.838v-15.003h2.789c3.305,0,5.994-2.688,5.994-5.993v-3.171
		C571.314,508.634,570.043,507.363,568.477,507.363z"/>
</g>
<g>
	<path fill="#92A836" d="M312.546,604.274c-1.299,0-2.353,1.054-2.353,2.353v2.627c0,0.145-0.118,0.263-0.263,0.263h-2.311v-8.638
		c0-1.299-1.054-2.354-2.352-2.354c-1.299,0-2.353,1.055-2.353,2.354v13.15h-3.027c-0.589,0-1.069-0.479-1.069-1.068v-3.439
		c0-1.299-1.053-2.353-2.352-2.353s-2.352,1.054-2.352,2.353v3.439c0,3.184,2.589,5.772,5.773,5.772h3.027v7.921
		c0,1.298,1.054,2.352,2.353,2.352c1.298,0,2.352-1.054,2.352-2.352v-12.434h2.311c2.739,0,4.967-2.228,4.967-4.967v-2.627
		C314.897,605.328,313.844,604.274,312.546,604.274z"/>
	<path fill="#7A872B" d="M312.546,604.274c-1.299,0-2.353,1.054-2.353,2.353v2.627c0,0.145-0.118,0.263-0.263,0.263h-2.311v-8.638
		c0-1.299-1.054-2.354-2.352-2.354c-0.078,0-0.152,0.016-0.229,0.023v30.435c0.076,0.007,0.15,0.022,0.229,0.022
		c1.298,0,2.352-1.054,2.352-2.352v-12.434h2.311c2.739,0,4.967-2.228,4.967-4.967v-2.627
		C314.897,605.328,313.844,604.274,312.546,604.274z"/>
</g>
</svg>
