<?xml version="1.0" encoding="utf-8"?>
<!-- Generator: Adobe Illustrator 16.0.0, SVG Export Plug-In . SVG Version: 6.00 Build 0)  -->
<!DOCTYPE svg PUBLIC "-//W3C//DTD SVG 1.1//EN" "http://www.w3.org/Graphics/SVG/1.1/DTD/svg11.dtd">
<svg version="1.1" id="Layer_1" xmlns="http://www.w3.org/2000/svg" xmlns:xlink="http://www.w3.org/1999/xlink" x="0px" y="0px"
	 width="155px" height="155.645px" viewBox="0 0 155 155.645" enable-background="new 0 0 155 155.645" xml:space="preserve">
<g>
	<circle fill="#50C4D0" cx="77.5" cy="78.145" r="77.5"/>
	<g>
		<g>
			<rect x="49.676" y="45.015" fill="#D9D8D7" width="30.134" height="4.483"/>
			<path fill="#FFFFFF" d="M89.49,108.588c0,1.753-0.666,3.508-2.006,4.845c-1.338,1.335-3.09,2.005-4.844,2.005H46.852
				c-1.752,0-3.506-0.67-4.844-2.005C40.67,112.096,40,110.341,40,108.588v-52.24c0-1.754,0.67-3.508,2.008-4.843
				c1.338-1.338,3.092-2.007,4.844-2.007H82.64c1.754,0,3.506,0.669,4.844,2.007c1.34,1.335,2.006,3.089,2.006,4.843V108.588z"/>
			<path fill="#F3F3F3" d="M87.484,51.505c-1.338-1.338-3.09-2.007-4.844-2.007h-8.019c1.754,0,3.508,0.669,4.845,2.007
				c1.332,1.335,2,3.089,2,4.843v52.24c0,1.753-0.668,3.508-2,4.845c-1.337,1.335-3.091,2.005-4.845,2.005h8.019
				c1.754,0,3.506-0.67,4.844-2.005c1.34-1.337,2.006-3.092,2.006-4.845v-52.24C89.49,54.594,88.824,52.84,87.484,51.505z"/>
			<rect x="40" y="68.111" fill="#F15726" width="49.49" height="28.847"/>
			<rect x="81.466" y="68.111" fill="#E44925" width="8.023" height="28.847"/>
			<g>
				<g>
					<rect x="52.363" y="74.293" fill="#FFFFFF" width="24.766" height="2.785"/>
					<rect x="52.363" y="81.139" fill="#FFFFFF" width="24.766" height="2.789"/>
					<rect x="52.363" y="87.989" fill="#FFFFFF" width="12.383" height="2.788"/>
				</g>
			</g>
			<g>
				<path fill="#252E3C" d="M82.931,34.852c0.357,0,0.717,0.126,0.988,0.415c0.27,0.268,0.402,0.619,0.402,0.969v7.396
					c0,0.348-0.133,0.696-0.402,0.992c-0.271,0.264-0.631,0.392-0.988,0.392H46.561c-0.361,0-0.723-0.128-0.986-0.392
					c-0.273-0.296-0.406-0.645-0.406-0.992v-7.396c0-0.35,0.133-0.701,0.406-0.969c0.264-0.289,0.625-0.415,0.986-0.415H82.931z"/>
				<rect x="45.168" y="36.235" fill="#141A27" width="39.154" height="7.396"/>
				<g>
					<g>
						<rect x="82.005" y="36.235" fill="#252E3C" width="1.148" height="7.396"/>
						<rect x="79.255" y="36.235" fill="#252E3C" width="1.15" height="7.396"/>
						<rect x="76.518" y="36.235" fill="#252E3C" width="1.152" height="7.396"/>
						<rect x="73.77" y="36.235" fill="#252E3C" width="1.146" height="7.396"/>
						<rect x="71.016" y="36.235" fill="#252E3C" width="1.162" height="7.396"/>
						<rect x="68.281" y="36.235" fill="#252E3C" width="1.148" height="7.396"/>
						<rect x="65.531" y="36.235" fill="#252E3C" width="1.162" height="7.396"/>
						<rect x="62.793" y="36.235" fill="#252E3C" width="1.152" height="7.396"/>
						<rect x="60.059" y="36.235" fill="#252E3C" width="1.148" height="7.396"/>
						<rect x="57.309" y="36.235" fill="#252E3C" width="1.148" height="7.396"/>
						<rect x="54.561" y="36.235" fill="#252E3C" width="1.164" height="7.396"/>
						<rect x="51.82" y="36.235" fill="#252E3C" width="1.148" height="7.396"/>
						<rect x="49.088" y="36.235" fill="#252E3C" width="1.146" height="7.396"/>
						<rect x="46.336" y="36.235" fill="#252E3C" width="1.148" height="7.396"/>
					</g>
				</g>
			</g>
		</g>
		<g>
			<path fill="#F15726" d="M99.994,105.25c-1.303,0-2.607,0.502-3.602,1.494c-0.994,0.994-1.488,2.297-1.488,3.6
				s0.494,2.607,1.488,3.6c0.994,0.996,2.299,1.494,3.602,1.494h10.184V105.25H99.994z"/>
			<path fill="#F36E41" d="M96.404,111.094c-0.414,0-0.75-0.336-0.75-0.75c0-1.162,0.449-2.252,1.268-3.07
				c0.824-0.82,1.914-1.273,3.072-1.273c0.414,0,0.75,0.336,0.75,0.75s-0.336,0.75-0.75,0.75c-0.758,0-1.473,0.297-2.012,0.835
				c-0.533,0.534-0.828,1.248-0.828,2.009C97.154,110.758,96.818,111.094,96.404,111.094z"/>
			<path fill="#E44925" d="M98.056,113.348c-0.9,0-1.795-0.254-2.594-0.729c0.238,0.476,0.533,0.93,0.93,1.325
				c0.994,0.996,2.299,1.494,3.602,1.494h10.184v-2.09H98.056z"/>
			<path fill="#FFFFFF" d="M120.06,105.404c1.26,0,2.527,0.48,3.49,1.446c0.969,0.966,1.449,2.228,1.449,3.493
				c0,1.264-0.48,2.527-1.449,3.493c-0.963,0.964-2.23,1.448-3.49,1.448h-9.883v-9.881H120.06z"/>
			<path fill="#E6E5E5" d="M123.55,106.851c-0.338-0.338-0.721-0.595-1.119-0.814c0.406,0.738,0.631,1.549,0.631,2.37
				c0,1.264-0.48,2.527-1.449,3.493c-0.963,0.964-2.23,1.448-3.49,1.448h-7.945v1.938h9.883c1.26,0,2.527-0.484,3.49-1.448
				c0.969-0.966,1.449-2.229,1.449-3.493C125,109.078,124.519,107.816,123.55,106.851z"/>
		</g>
		<g>
			<path fill="#FFFFFF" d="M117.068,82.476c3.92,3.917,3.92,10.271,0,14.192c-3.926,3.916-10.273,3.916-14.193-0.001
				c-3.918-3.921-3.918-10.274,0.002-14.191C106.794,78.556,113.142,78.557,117.068,82.476z"/>
			<path fill="#E6E5E5" d="M117.068,82.476l-14.193,14.191c3.92,3.917,10.268,3.917,14.193,0.001
				C120.988,92.746,120.988,86.393,117.068,82.476z"/>
			<path fill="#CCCBCA" d="M116.71,82.153l-14.158,14.157c0.107,0.118,0.209,0.242,0.322,0.356c0.115,0.115,0.24,0.216,0.359,0.323
				l14.154-14.16c-0.107-0.118-0.207-0.24-0.32-0.354C116.953,82.361,116.828,82.261,116.71,82.153z"/>
			<path fill="#FFFFFF" d="M117.388,82.83l-14.154,14.16c1.912,1.738,4.332,2.609,6.75,2.609c2.563,0,5.125-0.977,7.084-2.932
				C120.875,92.86,120.974,86.767,117.388,82.83z M116.787,96.385c-1.82,1.814-4.236,2.814-6.803,2.814
				c-2.262,0-4.436-0.789-6.164-2.229l13.549-13.556C120.55,87.225,120.328,92.842,116.787,96.385z"/>
		</g>
	</g>
</g>
</svg>
