<?xml version="1.0" encoding="utf-8"?>
<!-- Generator: Adobe Illustrator 16.0.0, SVG Export Plug-In . SVG Version: 6.00 Build 0)  -->
<!DOCTYPE svg PUBLIC "-//W3C//DTD SVG 1.1//EN" "http://www.w3.org/Graphics/SVG/1.1/DTD/svg11.dtd">
<svg version="1.1" id="Layer_1" xmlns="http://www.w3.org/2000/svg" xmlns:xlink="http://www.w3.org/1999/xlink" x="0px" y="0px"
	 width="155px" height="155.645px" viewBox="0 0 155 155.645" enable-background="new 0 0 155 155.645" xml:space="preserve">
<g>
	<circle fill="#3F4A5A" cx="77.5" cy="77.5" r="77.5"/>
	<g>
		<g>
			<g>
				<rect x="62.665" y="70.522" fill="#FFFFFF" width="23.092" height="5.807"/>
				<path fill="#FFFFFF" d="M65.036,76.329l0.009,48.756c0,2.35,0.896,5.439,2.687,7.229c1.794,1.791,4.14,2.688,6.486,2.688h-0.006
					c2.346,0,4.696-0.896,6.486-2.688c1.792-1.789,2.689-4.141,2.689-6.486V76.329H65.036z"/>
				<path fill="#F15726" d="M74.217,133.139c-1.953,0-3.788-0.762-5.168-2.141c-1.406-1.406-2.142-4.039-2.144-5.914L66.9,101.44
					h14.624v24.387c0,1.955-0.759,3.789-2.141,5.17C78.003,132.377,76.168,133.139,74.217,133.139z"/>
			</g>
			<g>
				<rect x="79.501" y="80.561" fill="#252E3C" width="3.886" height="1.303"/>
				<rect x="79.501" y="85.78" fill="#252E3C" width="3.886" height="1.305"/>
				<rect x="79.501" y="91.002" fill="#252E3C" width="3.886" height="1.303"/>
				<rect x="79.501" y="96.221" fill="#252E3C" width="3.886" height="1.305"/>
				<rect x="79.501" y="101.44" fill="#252E3C" width="3.886" height="1.305"/>
				<rect x="79.501" y="106.661" fill="#252E3C" width="3.886" height="1.303"/>
				<rect x="79.501" y="111.881" fill="#252E3C" width="3.886" height="1.305"/>
				<rect x="79.501" y="117.102" fill="#252E3C" width="3.886" height="1.305"/>
			</g>
		</g>
		<g>
			<g>
				<rect x="73.605" y="34.182" fill="#50C4D0" width="1.223" height="67.258"/>
				<rect x="74.217" y="34.182" fill="#07B2B7" width="0.611" height="67.258"/>
			</g>
			<g>
				<path fill="#50C4D0" d="M101.162,38.04h-7.899c-4.718,0-9.435,1.799-13.036,5.399c-3.599,3.599-5.398,8.317-5.398,13.034v7.9
					h7.9c4.719,0,9.436-1.8,13.035-5.399s5.398-8.317,5.398-13.035V38.04z"/>
				<path fill="#33BFC7" d="M74.828,64.374h7.9c4.719,0,9.436-1.8,13.035-5.399s5.398-8.317,5.398-13.035V38.04L74.828,64.374z"/>
			</g>
			<g>
				<path fill="#33BFC7" d="M53.838,41.251h5.93c3.541,0,7.083,1.352,9.785,4.054c2.701,2.701,4.053,6.243,4.053,9.784v5.931h-5.93
					c-3.542,0-7.084-1.352-9.785-4.053c-2.702-2.703-4.053-6.244-4.053-9.785V41.251z"/>
				<path fill="#50C4D0" d="M73.605,61.02h-5.93c-3.542,0-7.084-1.352-9.785-4.053c-2.702-2.703-4.053-6.244-4.053-9.785v-5.931
					L73.605,61.02z"/>
			</g>
			<g>
				<path fill="#33BFC7" d="M59.424,20h4.256c2.539,0,5.079,0.969,7.02,2.907c1.937,1.938,2.904,4.479,2.906,7.019v4.256h-4.255
					c-2.54,0-5.08-0.971-7.019-2.909c-1.938-1.938-2.908-4.478-2.908-7.019V20z"/>
				<path fill="#50C4D0" d="M73.605,34.182h-4.255c-2.54,0-5.08-0.971-7.019-2.909c-1.938-1.938-2.908-4.478-2.908-7.019V20
					L73.605,34.182z"/>
			</g>
			<g>
				<path fill="#50C4D0" d="M84.628,26.895l-2.941,0.001c-1.754,0-3.509,0.669-4.851,2.01c-1.338,1.339-2.008,3.096-2.008,4.851
					v2.939l2.939,0.002c1.755-0.002,3.511-0.67,4.851-2.012c1.34-1.338,2.01-3.094,2.01-4.85V26.895z"/>
				<path fill="#33BFC7" d="M74.828,36.696l2.939,0.002c1.755-0.002,3.511-0.67,4.851-2.012c1.34-1.338,2.01-3.094,2.01-4.85v-2.941
					L74.828,36.696z"/>
			</g>
		</g>
	</g>
</g>
</svg>
