<?xml version="1.0" encoding="utf-8"?>
<!-- Generator: Adobe Illustrator 16.0.0, SVG Export Plug-In . SVG Version: 6.00 Build 0)  -->
<!DOCTYPE svg PUBLIC "-//W3C//DTD SVG 1.1//EN" "http://www.w3.org/Graphics/SVG/1.1/DTD/svg11.dtd">
<svg version="1.1" id="Layer_1" xmlns="http://www.w3.org/2000/svg" xmlns:xlink="http://www.w3.org/1999/xlink" x="0px" y="0px"
	 width="157.484px" height="157.037px" viewBox="0 0 157.484 157.037" enable-background="new 0 0 157.484 157.037"
	 xml:space="preserve">
<g>
	<circle fill="#21D8DE" cx="78.43" cy="78.519" r="77.5"/>
	<g>
		<rect x="48.783" y="108.44" fill="#FFFFFF" width="37.909" height="22.578"/>
		<path fill="#FFFFFF" d="M111.586,49.729c-4.078-15.283-18.917-25.545-35.01-23.436C60.484,28.401,48.789,42.142,48.789,57.96
			v53.785H90.29c4.556,0,9.107-1.738,12.579-5.207c3.461-3.475,5.207-8.027,5.207-12.592V81.04h11.859L111.586,49.729z"/>
		<circle fill="#242D3C" cx="80.785" cy="58.015" r="25.66"/>
		<g>
			<path fill="#FFFFFF" d="M66.073,49.367h-5.841c-0.387,0-0.7-0.313-0.7-0.7s0.313-0.7,0.7-0.7h5.141v-7.075
				c0-0.387,0.313-0.7,0.7-0.7s0.7,0.313,0.7,0.7v7.775C66.773,49.054,66.459,49.367,66.073,49.367z"/>
			<path fill="#FFFFFF" d="M84.097,42.891c-0.387,0-0.7-0.313-0.7-0.7v-4.812H73.389c-0.387,0-0.7-0.313-0.7-0.7s0.313-0.7,0.7-0.7
				h10.708c0.387,0,0.7,0.313,0.7,0.7v5.512C84.797,42.577,84.484,42.891,84.097,42.891z"/>
			<path fill="#FFFFFF" d="M90.397,69.492h-9.012c-0.387,0-0.701-0.313-0.701-0.7v-15.4c0-0.387,0.314-0.7,0.701-0.7h21.5
				c0.387,0,0.701,0.313,0.701,0.7s-0.314,0.7-0.701,0.7H82.084v14h8.313c0.387,0,0.701,0.313,0.701,0.7
				S90.783,69.492,90.397,69.492z"/>
			<path fill="#FFFFFF" d="M103.36,58.773h-8.763c-0.387,0-0.7-0.313-0.7-0.7s0.313-0.7,0.7-0.7h8.763
				c0.387,0,0.701,0.313,0.701,0.7S103.746,58.773,103.36,58.773z"/>
			<path fill="#FFFFFF" d="M96.259,48.797c-0.387,0-0.7-0.313-0.7-0.7v-6.518c0-0.387,0.313-0.7,0.7-0.7s0.7,0.313,0.7,0.7v6.518
				C96.959,48.483,96.646,48.797,96.259,48.797z"/>
			<path fill="#FFFFFF" d="M87.772,80.186c-0.387,0-0.699-0.313-0.699-0.7v-3.256c0-0.387,0.313-0.7,0.699-0.7
				s0.701,0.313,0.701,0.7v3.256C88.473,79.872,88.158,80.186,87.772,80.186z"/>
			<path fill="#FFFFFF" d="M62.572,72.055c-0.387,0-0.7-0.313-0.7-0.7V56.104H58.36c-0.387,0-0.7-0.313-0.7-0.7s0.313-0.7,0.7-0.7
				h4.212c0.387,0,0.7,0.313,0.7,0.7v15.951C63.272,71.741,62.959,72.055,62.572,72.055z"/>
			<path fill="#FFFFFF" d="M76.922,56.104h-14.35c-0.387,0-0.7-0.313-0.7-0.7s0.313-0.7,0.7-0.7h14.35
				c0.387,0,0.701,0.313,0.701,0.7S77.309,56.104,76.922,56.104z"/>
			<path fill="#FFFFFF" d="M76.922,62.578h-8.378c-0.387,0-0.7-0.313-0.7-0.7s0.313-0.7,0.7-0.7h7.679V48.667
				c0-0.387,0.313-0.7,0.699-0.7h12.775V37.583c0-0.387,0.313-0.7,0.699-0.7s0.701,0.313,0.701,0.7v11.084
				c0,0.387-0.314,0.7-0.701,0.7H77.623v12.511C77.623,62.265,77.309,62.578,76.922,62.578z"/>
			<path fill="#FFFFFF" d="M76.922,49.367c-0.387,0-0.699-0.313-0.699-0.7v-5.951c0-0.387,0.313-0.7,0.699-0.7
				s0.701,0.313,0.701,0.7v5.951C77.623,49.054,77.309,49.367,76.922,49.367z"/>
			<path fill="#FFFFFF" d="M96.959,74.461c-0.387,0-0.699-0.313-0.699-0.7v-9.694h-8.291c-0.387,0-0.7-0.313-0.7-0.7
				s0.313-0.7,0.7-0.7h8.99c0.387,0,0.701,0.313,0.701,0.7v10.395C97.66,74.147,97.346,74.461,96.959,74.461z"/>
			<path fill="#FFFFFF" d="M74.909,80.516c-0.387,0-0.7-0.313-0.7-0.7v-9.778h-3.565c-0.387,0-0.7-0.313-0.7-0.7s0.313-0.7,0.7-0.7
				h4.265c0.387,0,0.7,0.313,0.7,0.7v10.479C75.61,80.202,75.296,80.516,74.909,80.516z"/>
			<path fill="#FFFFFF" d="M81.385,81.281c-0.387,0-0.701-0.313-0.701-0.7V68.792c0-0.387,0.314-0.7,0.701-0.7
				s0.699,0.313,0.699,0.7v11.789C82.084,80.968,81.772,81.281,81.385,81.281z"/>
			<path fill="#FFFFFF" d="M70.01,49.367h-3.938c-0.387,0-0.7-0.313-0.7-0.7s0.313-0.7,0.7-0.7h3.938c0.387,0,0.7,0.313,0.7,0.7
				S70.397,49.367,70.01,49.367z"/>
			<path fill="#FFFFFF" d="M71.585,50.941c-1.254,0-2.275-1.021-2.275-2.274c0-1.255,1.021-2.276,2.275-2.276
				s2.275,1.021,2.275,2.276C73.86,49.921,72.839,50.941,71.585,50.941z M71.585,47.791c-0.482,0-0.875,0.393-0.875,0.876
				c0,0.482,0.392,0.874,0.875,0.874s0.875-0.392,0.875-0.874C72.46,48.184,72.067,47.791,71.585,47.791z"/>
			<path fill="#FFFFFF" d="M66.969,64.154c-1.254,0-2.275-1.021-2.275-2.276c0-1.254,1.021-2.274,2.275-2.274
				s2.275,1.021,2.275,2.274C69.244,63.133,68.223,64.154,66.969,64.154z M66.969,61.004c-0.482,0-0.875,0.392-0.875,0.874
				c0,0.483,0.392,0.876,0.875,0.876s0.875-0.393,0.875-0.876C67.844,61.396,67.451,61.004,66.969,61.004z"/>
			<path fill="#FFFFFF" d="M69.069,71.613c-1.254,0-2.275-1.021-2.275-2.276c0-1.254,1.021-2.274,2.275-2.274
				s2.275,1.021,2.275,2.274C71.344,70.592,70.323,71.613,69.069,71.613z M69.069,68.463c-0.482,0-0.875,0.392-0.875,0.874
				c0,0.483,0.393,0.876,0.875,0.876s0.875-0.393,0.875-0.876C69.944,68.854,69.552,68.463,69.069,68.463z"/>
			<path fill="#FFFFFF" d="M91.972,71.066c-1.255,0-2.274-1.021-2.274-2.274c0-1.255,1.02-2.276,2.274-2.276
				s2.275,1.021,2.275,2.276C94.247,70.046,93.227,71.066,91.972,71.066z M91.972,67.916c-0.482,0-0.874,0.393-0.874,0.876
				c0,0.482,0.392,0.874,0.874,0.874s0.875-0.392,0.875-0.874C92.847,68.309,92.454,67.916,91.972,67.916z"/>
			<path fill="#FFFFFF" d="M87.772,76.93c-1.254,0-2.275-1.021-2.275-2.274c0-1.255,1.021-2.276,2.275-2.276
				c1.255,0,2.275,1.021,2.275,2.276C90.047,75.909,89.027,76.93,87.772,76.93z M87.772,73.779c-0.482,0-0.875,0.393-0.875,0.876
				c0,0.482,0.393,0.874,0.875,0.874s0.875-0.392,0.875-0.874C88.647,74.172,88.254,73.779,87.772,73.779z"/>
			<path fill="#FFFFFF" d="M86.394,65.641c-1.255,0-2.274-1.021-2.274-2.274c0-1.255,1.02-2.276,2.274-2.276
				s2.275,1.021,2.275,2.276C88.669,64.62,87.649,65.641,86.394,65.641z M86.394,62.49c-0.482,0-0.874,0.393-0.874,0.876
				c0,0.482,0.392,0.874,0.874,0.874s0.875-0.392,0.875-0.874C87.269,62.883,86.876,62.49,86.394,62.49z"/>
			<path fill="#FFFFFF" d="M93.022,60.348c-1.254,0-2.275-1.021-2.275-2.274c0-1.255,1.021-2.276,2.275-2.276
				c1.255,0,2.275,1.021,2.275,2.276C95.297,59.327,94.277,60.348,93.022,60.348z M93.022,57.197c-0.482,0-0.875,0.393-0.875,0.876
				c0,0.482,0.393,0.874,0.875,0.874s0.875-0.392,0.875-0.874C93.897,57.59,93.504,57.197,93.022,57.197z"/>
			<path fill="#FFFFFF" d="M96.259,51.947c-1.255,0-2.274-1.021-2.274-2.274c0-1.255,1.02-2.276,2.274-2.276
				s2.275,1.021,2.275,2.276C98.534,50.927,97.514,51.947,96.259,51.947z M96.259,48.797c-0.482,0-0.874,0.393-0.874,0.876
				c0,0.482,0.392,0.874,0.874,0.874s0.875-0.392,0.875-0.874C97.134,49.189,96.741,48.797,96.259,48.797z"/>
			<path fill="#FFFFFF" d="M76.922,43.416c-1.254,0-2.275-1.021-2.275-2.274c0-1.255,1.021-2.276,2.275-2.276
				c1.255,0,2.275,1.021,2.275,2.276C79.198,42.396,78.177,43.416,76.922,43.416z M76.922,40.266c-0.482,0-0.875,0.393-0.875,0.876
				c0,0.482,0.393,0.874,0.875,0.874s0.875-0.392,0.875-0.874C77.797,40.658,77.405,40.266,76.922,40.266z"/>
			<path fill="#FFFFFF" d="M84.097,46.041c-1.255,0-2.274-1.021-2.274-2.274c0-1.255,1.02-2.276,2.274-2.276
				s2.275,1.021,2.275,2.276C86.372,45.021,85.352,46.041,84.097,46.041z M84.097,42.891c-0.482,0-0.874,0.393-0.874,0.876
				c0,0.482,0.392,0.874,0.874,0.874s0.875-0.392,0.875-0.874C84.972,43.283,84.579,42.891,84.097,42.891z"/>
		</g>
	</g>
</g>
</svg>
