<?xml version="1.0" encoding="utf-8"?>
<!-- Generator: Adobe Illustrator 16.0.0, SVG Export Plug-In . SVG Version: 6.00 Build 0)  -->
<!DOCTYPE svg PUBLIC "-//W3C//DTD SVG 1.1//EN" "http://www.w3.org/Graphics/SVG/1.1/DTD/svg11.dtd">
<svg version="1.1" id="Layer_1" xmlns="http://www.w3.org/2000/svg" xmlns:xlink="http://www.w3.org/1999/xlink" x="0px" y="0px"
	 width="180px" height="240px" viewBox="0 0 180 240" enable-background="new 0 0 180 240" xml:space="preserve">
<g>
	<path fill-rule="evenodd" clip-rule="evenodd" fill="#C1C1C0" d="M150.832,159.564l4.1,34.587
		c0.813,6.835-5.646,12.515-12.538,12.515H37.604c-6.89,0-13.345-5.676-12.534-12.515l4.091-34.542
		C32.697,135.299,58.588,116.6,90,116.6c16.232,0,30.992,4.993,41.95,13.143C142.16,137.336,149.07,147.67,150.832,159.564
		L150.832,159.564z M90,33.333c20.256,0,36.681,16.399,36.681,36.624c0,20.225-16.425,36.621-36.681,36.621
		c-20.259,0-36.678-16.396-36.678-36.621C53.322,49.732,69.741,33.333,90,33.333z"/>
</g>
</svg>
