<?xml version="1.0" encoding="utf-8"?>
<!-- Generator: Adobe Illustrator 16.0.0, SVG Export Plug-In . SVG Version: 6.00 Build 0)  -->
<!DOCTYPE svg PUBLIC "-//W3C//DTD SVG 1.1//EN" "http://www.w3.org/Graphics/SVG/1.1/DTD/svg11.dtd">
<svg version="1.1" id="Layer_1" xmlns="http://www.w3.org/2000/svg" xmlns:xlink="http://www.w3.org/1999/xlink" x="0px" y="0px"
	 width="216.869px" height="101px" viewBox="16.559 62.559 216.869 101" enable-background="new 16.559 62.559 216.869 101"
	 xml:space="preserve">
<g>
	<path fill="#FFFFFF" d="M33.965,113.719l1.325,1.712l0.972-0.752l-2.159-2.79l-0.762,0.588c0.303,0.471-0.131,1.037-0.667,1.438
		l0.388,0.501L33.965,113.719z"/>
	<path fill="#FFFFFF" d="M37.483,112.109c0.067-0.272,0.26-0.435,0.552-0.584c0.426-0.219,0.777-0.133,0.934,0.174
		c0.157,0.307-0.045,0.661-0.445,0.866c-0.31,0.159-0.749,0.202-0.883-0.043l-1.033,0.532c0.446,0.722,1.31,0.607,2.234,0.133
		c0.985-0.505,1.54-1.279,1.142-2.054c-0.336-0.654-1.078-0.738-1.947-0.293c-0.323,0.166-0.578,0.388-0.712,0.651l-0.012,0.006
		l-0.136-0.653l1.878-0.964l-0.333-0.648l-2.674,1.374l0.498,1.986L37.483,112.109z"/>
	<path fill="#FFFFFF" d="M59.889,111.023c-0.323-0.162-0.652-0.238-0.943-0.192l-0.013-0.007l0.449-0.493l1.884,0.952l0.329-0.651
		l-2.685-1.354l-1.313,1.569l0.938,0.474c0.262-0.107,0.506-0.046,0.799,0.102c0.428,0.217,0.563,0.553,0.408,0.859
		c-0.154,0.308-0.561,0.352-0.963,0.148c-0.311-0.157-0.604-0.487-0.483-0.738l-1.036-0.524c-0.32,0.786,0.279,1.417,1.206,1.886
		c0.987,0.499,1.94,0.493,2.333-0.284C61.129,112.116,60.761,111.464,59.889,111.023z"/>
	<path fill="#FFFFFF" d="M64.161,112.373c-0.783-0.605-1.76-0.707-2.221-0.111c-0.421,0.544-0.22,1.346,0.526,1.924
		c0.323,0.251,0.741,0.437,1.075,0.351l0.011,0.008c-0.306,0.352-0.748,0.555-1.245,0.17c-0.113-0.086-0.217-0.2-0.275-0.313
		c-0.062-0.112-0.078-0.234-0.031-0.339l-0.859-0.664c-0.27,0.618,0.039,1.246,0.725,1.777c1.201,0.926,2.185,0.581,2.808-0.223
		C65.252,114.201,65.259,113.222,64.161,112.373z M64.04,113.873c-0.194,0.251-0.59,0.272-0.979-0.029
		c-0.378-0.293-0.448-0.672-0.246-0.933c0.179-0.232,0.591-0.24,0.937,0.027C64.145,113.244,64.231,113.623,64.04,113.873z"/>
	<path fill="#FFFFFF" d="M25.199,126.839c0.62,0.206,1.074-0.392,1.435-1.016c0.362-0.628,0.632-1.28,0.897-1.192
		c0.226,0.075,0.186,0.422,0.1,0.681c-0.124,0.37-0.356,0.733-0.661,0.608l-0.4,1.207c0.776,0.25,1.414-0.567,1.72-1.488
		c0.289-0.87,0.333-1.985-0.417-2.232c-0.63-0.209-1.081,0.411-1.439,1.025c-0.361,0.623-0.637,1.266-0.939,1.164
		c-0.255-0.083-0.226-0.491-0.105-0.855c0.168-0.511,0.411-0.806,0.822-0.698l0.4-1.206c-0.882-0.283-1.539,0.541-1.892,1.604
		C24.382,125.459,24.329,126.552,25.199,126.839z"/>
	<path fill="#FFFFFF" d="M24.802,132.918l0.097-1.27c-0.411-0.08-0.637-0.438-0.591-1.029c0.064-0.816,0.624-1.092,1.159-1.051
		c0.534,0.043,1.045,0.396,0.982,1.215c-0.041,0.53-0.262,0.897-0.631,0.938l-0.098,1.268c0.871,0.033,1.453-1.064,1.533-2.115
		c0.114-1.473-0.646-2.488-1.689-2.567c-1.044-0.082-1.952,0.81-2.065,2.278C23.403,131.819,23.878,132.782,24.802,132.918z"/>
	<polygon fill="#FFFFFF" points="27.583,137 26.286,137.221 26.001,135.573 27.299,135.35 27.082,134.096 23.521,134.709 
		23.737,135.961 25.203,135.709 25.488,137.36 24.021,137.614 24.237,138.866 27.798,138.25 	"/>
	<path fill="#FFFFFF" d="M29.086,141.309c-0.629-1.4-1.746-1.854-2.702-1.424c-0.955,0.43-1.362,1.563-0.733,2.967
		c0.629,1.4,1.746,1.852,2.702,1.424C29.308,143.848,29.715,142.713,29.086,141.309z M27.832,143.116
		c-0.489,0.219-1.106,0.152-1.443-0.598c-0.335-0.748,0.026-1.254,0.516-1.473c0.489-0.219,1.107-0.152,1.443,0.596
		S28.322,142.895,27.832,143.116z"/>
	<polygon fill="#FFFFFF" points="31.329,145.307 30.559,144.295 27.684,146.485 29.832,149.307 30.476,148.817 29.099,147.004 	"/>
	<path fill="#FFFFFF" d="M30.495,150.086l0.99,0.85l0.655-0.291l1.291,1.109l-0.194,0.688l1.005,0.864l0.97-3.933l-0.979-0.842
		L30.495,150.086z M33.659,151.03l-0.84-0.723l1.245-0.6l0.011,0.01L33.659,151.03z"/>
	<path fill="#FFFFFF" d="M44.304,154.463c0.501,0.104,0.865,0.371,0.843,0.682l1.244,0.259c0.07-0.909-0.906-1.522-1.896-1.728
		c-1.445-0.301-2.552,0.324-2.765,1.351c-0.211,1.024,0.555,2.036,2,2.337c0.442,0.092,1.029,0.09,1.427-0.184l-0.007,0.4
		l0.803,0.166l0.402-1.938l-2.007-0.416l-0.143,0.687l0.87,0.18c-0.134,0.309-0.593,0.439-1.209,0.309
		c-0.802-0.166-1.002-0.756-0.892-1.277C43.084,154.76,43.5,154.299,44.304,154.463z"/>
	<polygon fill="#FFFFFF" points="49.543,157.004 49.508,156.317 51.896,156.196 51.859,155.467 49.471,155.588 49.439,154.958 
		52.052,154.825 52.014,154.073 48.131,154.268 48.315,157.877 52.266,157.678 52.224,156.87 	"/>
	<polygon fill="#FFFFFF" points="56.249,152.952 56.911,155.077 56.898,155.083 54.618,153.459 53.372,153.848 54.447,157.297 
		55.588,156.943 54.919,154.792 54.932,154.788 57.219,156.434 58.466,156.045 57.391,152.596 	"/>
	<polygon fill="#FFFFFF" points="61.267,153.682 60.907,153.098 62.941,151.838 62.557,151.221 60.522,152.477 60.19,151.938 
		62.417,150.563 62.021,149.92 58.713,151.965 60.614,155.04 63.977,152.959 63.553,152.27 	"/>
	<polygon fill="#FFFFFF" points="65.043,147.075 66.28,149.645 66.268,149.657 63.688,148.443 62.754,149.383 66.403,150.836 
		67.432,149.799 65.978,146.133 	"/>
	<polygon fill="#FFFFFF" points="69.614,145.69 69.024,145.333 70.264,143.288 69.641,142.911 68.4,144.954 67.86,144.625 
		69.217,142.389 68.573,141.999 66.556,145.323 69.645,147.196 71.698,143.813 71.005,143.393 	"/>
	<polygon fill="#FFFFFF" points="70.02,137.85 72.153,138.493 72.149,138.504 69.528,139.486 69.151,140.735 72.612,141.777 
		72.958,140.633 70.8,139.983 70.805,139.971 73.45,138.997 73.827,137.749 70.366,136.706 	"/>
	<path fill="#FFFFFF" d="M73.233,131.387c-0.652-0.028-0.926,0.67-1.104,1.367c-0.178,0.703-0.26,1.404-0.538,1.393
		c-0.237-0.012-0.293-0.355-0.281-0.629c0.017-0.389,0.142-0.801,0.47-0.766l0.055-1.271c-0.813-0.029-1.205,0.932-1.25,1.898
		c-0.039,0.916,0.222,2,1.01,2.035c0.663,0.027,0.928-0.689,1.105-1.381c0.178-0.695,0.27-1.392,0.588-1.375
		c0.269,0.012,0.352,0.411,0.334,0.795c-0.023,0.539-0.176,0.887-0.602,0.896l-0.056,1.271c0.925,0.033,1.333-0.938,1.383-2.06
		C74.395,132.493,74.148,131.428,73.233,131.387z"/>
	
		<rect x="70.446" y="128.377" transform="matrix(0.9898 -0.1426 0.1426 0.9898 -17.6623 11.6246)" fill="#FFFFFF" width="3.615" height="1.269"/>
	<path fill="#FFFFFF" d="M71.12,126.891c0.627-0.215,0.61-0.983,0.523-1.69c-0.09-0.713-0.259-1.391,0.043-1.496
		c0.253-0.086,0.479,0.254,0.602,0.617c0.177,0.511,0.162,0.891-0.23,1.055l0.413,1.202c0.874-0.307,0.897-1.362,0.534-2.423
		c-0.348-1.014-0.967-1.914-1.834-1.617c-0.616,0.212-0.615,0.962-0.526,1.676c0.093,0.72,0.272,1.402,0.009,1.492
		c-0.226,0.078-0.402-0.223-0.492-0.481c-0.125-0.369-0.162-0.796,0.158-0.885l-0.414-1.202c-0.769,0.271-0.781,1.308-0.467,2.226
		C69.733,126.231,70.374,127.146,71.12,126.891z"/>
	<circle fill="#FFFFFF" cx="38.18" cy="153.779" r="0.862"/>
	<circle fill="#FFFFFF" cx="29.74" cy="118.321" r="0.862"/>
	<circle fill="#FFFFFF" cx="67.805" cy="118.321" r="0.862"/>
	<polygon fill="#FFFFFF" points="50.972,108.409 50.272,109.506 51.985,109.506 51.985,108.975 51.31,108.978 51.683,108.419 
		51.31,107.844 51.974,107.839 51.974,107.315 50.272,107.315 	"/>
	<polygon fill="#FFFFFF" points="47.269,108.978 46.846,108.982 46.846,107.839 47.239,107.844 47.239,107.315 45.829,107.315 
		45.829,107.844 46.221,107.839 46.221,108.982 45.804,108.978 45.804,109.506 47.269,109.506 	"/>
	<polygon fill="#FFFFFF" points="49.264,108.086 48.371,108.086 48.376,107.307 47.722,107.307 47.722,109.506 48.376,109.506 
		48.371,108.633 49.264,108.633 49.264,109.506 49.916,109.506 49.916,107.307 49.264,107.307 	"/>
	<path fill="#FFFFFF" d="M48.543,106.009c0-0.166,0.119-0.271,0.292-0.271c0.156,0,0.272,0.118,0.272,0.271l0.009,0.777h1.219
		v-0.653h-0.748l-0.003-0.167c-0.004-0.468-0.22-0.845-0.753-0.845c-0.409,0-0.692,0.229-0.742,0.622
		c-0.009,0.083-0.009,0.172-0.009,0.257v0.132h-0.746l-0.001,0.653h1.209L48.543,106.009z"/>
	<circle fill="#FFFFFF" cx="48.835" cy="110.415" r="0.392"/>
	<path fill="#FFFFFF" d="M54.893,104.801l0.579-0.713l-3.371,0.497l0.534-3.333l-2.657,2.152l-1.22-3.192l-1.219,3.193l-2.651-2.157
		l0.539,3.379l-3.379-0.542l0.587,0.724c-12.653,2.815-22.143,14.124-22.143,27.611c0,15.601,12.691,28.291,28.291,28.291
		c15.6,0,28.29-12.69,28.29-28.291C77.073,118.917,67.564,107.602,54.893,104.801z M48.819,104.106c2.139,0,3.88,1.74,3.88,3.879
		c0,2.139-1.741,3.879-3.88,3.879c-2.139,0-3.88-1.74-3.88-3.879C44.939,105.847,46.68,104.106,48.819,104.106z M52.392,112.885
		c4.223,0.778,7.981,2.891,10.819,5.888h-1.816v1.355h-1.654v-1.355H57.49v1.873h-1.331c0,0,0.009-2.852,0.009-2.88
		c0-0.641-0.522-1.164-1.164-1.164c-0.643,0-1.165,0.523-1.165,1.164c0,0.029,0.01,15.109,0.01,15.109l-2.309,2.127v1.125
		c-1.016,0.146-1.858,0.797-2.287,1.685v-23.018l0.772-2.235l2.608,2.121L52.392,112.885z M53.47,145.473
		c-0.575,0.227-0.985,0.781-0.985,1.438c0,0.854,0.692,1.545,1.545,1.545h1.945c0.854,0,1.545-0.69,1.545-1.545
		c0-0.654-0.41-1.211-0.985-1.438c2.633-0.916,4.526-3.414,4.526-6.359c0-1.525-1.13-2.775-2.596-2.986v-1.125l-2.309-2.125v-4.432
		h1.331v1.873h2.251v-1.416h1.653v1.416h2.251v-5.005h-2.251v1.211h-1.653v-1.211H57.87v-1.536h1.869v-1.21h1.653v1.21h2.251v-4.538
		c3.118,3.509,5.014,8.125,5.014,13.18c0,10.802-8.664,19.613-19.407,19.865V141.12C49.888,143.154,51.462,144.774,53.47,145.473z
		 M50.501,139.112c0-0.725,0.523-1.322,1.211-1.445c0.058,0.859,0.767,1.541,1.642,1.541h3.304c0.874,0,1.583-0.681,1.641-1.541
		c0.685,0.127,1.205,0.728,1.205,1.445c0,2.783-1.917,4.463-4.5,5.104C52.42,143.577,50.501,141.895,50.501,139.112z
		 M35.483,124.375c-0.104,0.14-0.178,0.305-0.178,0.493c0,0.132,0.036,0.252,0.091,0.362l-5.143,0.011
		c0.226-0.583,0.478-1.149,0.755-1.703L35.483,124.375z M32.238,121.417c0.583-0.872,1.232-1.696,1.941-2.466
		c0.357,1.261,1.14,2.394,2.168,3.208c-0.141,0.086-0.263,0.207-0.328,0.373c-0.041,0.106-0.054,0.214-0.049,0.322L32.238,121.417z
		 M30.391,128.012c0,0,2.459-0.458,5.136-0.957c-0.021,0.139-0.02,0.281,0.035,0.42c0.036,0.093,0.092,0.169,0.152,0.239
		l-5.059,1.971c-0.708,0.433-0.913,1.301-0.504,1.959c0.198,0.317,0.507,0.541,0.873,0.629c0.366,0.086,0.744,0.022,1.063-0.174
		l4.445-2.748c0.031,0.138,0.083,0.271,0.184,0.379c0.065,0.073,0.146,0.125,0.228,0.168l-4.007,3.664
		c-0.503,0.657-0.38,1.543,0.237,2.011c0.618,0.469,1.503,0.346,1.972-0.271l3.189-4.217c0.074,0.115,0.167,0.223,0.299,0.285
		c0.069,0.035,0.144,0.047,0.217,0.063c0.017,0.01,0.03,0.021,0.046,0.031l-2.223,4.477c-0.226,0.771,0.194,1.531,0.917,1.736
		c0.723,0.205,1.48-0.217,1.687-0.938l1.282-4.484c0.551,0.166,1.136,0.256,1.741,0.256c0.493,0,0.816-0.041,1.275-0.15
		c-0.004,0.813-0.009,1.58-0.009,1.65c-0.108,0.115-4.076,4.43-4.076,4.43c-0.699,0.57-0.952,0.604-1.407,0.148l-0.132-0.133
		l-1.239,0.974l0.168,0.168c0.467,0.468,0.906,0.788,1.501,0.847c-0.862,0.455-1.598,0.844-1.727,0.91
		c-0.134-0.141-0.777-0.807-1.115-1.154c-0.051-0.885-0.778-1.59-1.675-1.59c-0.928,0-1.683,0.758-1.683,1.686v0.086l0.645,0.646
		v-0.508c0-0.115,0.044-0.222,0.124-0.304c0.166-0.166,0.436-0.166,0.601,0c0,0,0.497,0.541,0.827,0.898l-0.004,0.006l0.133,0.137
		c0.094,0.104,0.158,0.172,0.158,0.172l0.004-0.004l0.374,0.386l-0.484-0.002c-0.319-0.267-0.716-0.404-1.134-0.39
		c-0.45,0.019-0.865,0.209-1.17,0.539c-0.221,0.24-0.362,0.535-0.417,0.849c-1.859-3.022-2.934-6.578-2.934-10.38
		c0-1.596,0.194-3.145,0.551-4.631C29.704,128,30.024,128.081,30.391,128.012z M32.682,143.69c0-0.125,0.05-0.256,0.143-0.355
		c0.097-0.104,0.229-0.168,0.374-0.174l1.211,0.002c-0.605,0.139-1.126,0.537-1.413,1.104c-0.148-0.216-0.298-0.459-0.313-0.562
		C32.682,143.702,32.682,143.695,32.682,143.69z M34.224,145.456c0.027-0.106,0.093-0.203,0.189-0.264l2.538-1.434l0.711,0.729
		l-0.01,0.008l0.175,0.16l0.131,0.135l0.007-0.006l0.906,0.832c0.159,0.16,0.159,0.43-0.007,0.596
		c-0.08,0.08-0.188,0.123-0.301,0.123h-0.51l0.646,0.646h0.087c0.45,0,0.872-0.176,1.19-0.493c0.317-0.319,0.493-0.739,0.493-1.19
		c0-0.896-0.704-1.623-1.586-1.674c-0.198-0.199-0.482-0.479-0.623-0.621c0.404-0.256,7.438-4.721,8.093-5.135
		c-0.221,2.461-2.343,5.348-4.346,7.077c-0.917,0.917-1.268,1.938-1.268,2.825c0,0.781,0.274,1.457,0.676,1.857
		c0.353,0.354,0.89,0.459,1.335,0.264l0.282-0.123l-0.218-0.219c-0.355-0.354-0.482-0.975-0.482-1.438
		c0-0.926,0.239-1.396,0.687-1.881c0.095,0.097,0.293,0.293,0.573,0.569c-0.189,0.515-0.28,1.027-0.28,1.521
		c0,0.988,0.349,1.887,0.928,2.465c0.12,0.121,1.402,1.184,1.94,1.002l0.386-0.131l-0.329-0.24
		c-0.188-0.137-0.793-0.842-0.999-1.272c-0.165-0.343-0.263-0.759-0.263-1.19c0-0.705,0.288-1.521,0.924-2.156
		c0.034-0.049,1.438-3.514,2.153-5.186c0,0.039,0,0.328,0,0.328c0.004,0.396,0.009,0.782,0.009,1.161
		c0,2.019-0.122,3.808-1.008,4.69c-0.551,0.549-1.574,0.844-1.574,0.844l0.265,0.314c0.026,0.026,0.452,0.688,1.141,0.709
		c0.164,0.006,0.293-0.105,0.436-0.175c0.036,1.578,0.333,2.197,0.864,2.792c-5.295-0.154-10.077-2.391-13.554-5.917l-0.357-0.586
		c-0.042-0.065-0.064-0.146-0.064-0.226C34.213,145.522,34.217,145.491,34.224,145.456z M44.88,117.225l0.479-0.813h-1.978
		l0.231-0.846c0-0.407-0.33-0.738-0.737-0.738c-0.099,0-0.194,0.021-0.279,0.055c0.016-0.074,0.027-0.145,0.027-0.199
		c0-0.269-0.217-0.487-0.486-0.487c-0.269,0-0.487,0.218-0.487,0.487c0,0.054,0.011,0.125,0.027,0.199
		c-0.086-0.035-0.179-0.055-0.278-0.055c-0.408,0-0.738,0.331-0.738,0.738l0.23,0.846H40.37c-0.358,0-0.657,0.254-0.724,0.592
		c-0.109-0.03-0.222-0.049-0.34-0.049c-0.67,0-1.214,0.543-1.214,1.214c0,0.21,0.054,0.406,0.146,0.578
		c0.206-0.379,0.606-0.637,1.066-0.637c0.414,0,0.777,0.208,0.997,0.524c0.025,0.037,0.049,0.074,0.07,0.113
		c0.063,0.116,0.099,0.247,0.12,0.381h-2.454c-0.67,0-1.214-0.543-1.214-1.213v0.253v0.274v0.253c0,0.67,0.543,1.214,1.214,1.214
		h2.327c-0.208,0.373-0.603,0.624-1.06,0.624c-0.023,0-0.047-0.001-0.071-0.003c0.219,0.317,0.585,0.525,1,0.525
		c0.518,0,0.959-0.326,1.133-0.783h3.287c0.669,0,1.214,0.543,1.214,1.213c0,0.311,0.001,0.751-0.309,1.084l-0.303,0.455
		l-2.071,3.195c-0.377,0.555-1.132,0.696-1.687,0.318c-0.554-0.377-0.699-1.155-0.321-1.708c0.482-0.268,0.67-0.823,0.581-1.4
		c-0.112-0.713-0.763-1.203-1.473-1.131l-0.408-0.009c-2.596,0-4.534-1.755-4.802-4.243c2.74-2.614,6.222-4.453,10.093-5.167
		l-0.288,1.796l2.639-2.143l0.89,2.29v3.543L44.88,117.225z M48.783,159.022c-14.669,0-26.604-11.936-26.604-26.604
		c0-12.979,9.342-23.811,21.653-26.135l0.371,0.458l-3.196,1.218l3.195,1.223l-2.159,2.654l3.378-0.538l-0.112,0.696
		c-9.776,1.659-17.248,10.183-17.248,20.424c0,11.426,9.295,20.721,20.72,20.721c11.424,0,20.719-9.295,20.719-20.721
		c0-10.236-7.461-18.755-17.229-20.42l-0.092-0.685l3.291,0.528l-2.07-2.689l3.11-1.187l-3.146-1.283l0.329-0.404
		c12.33,2.313,21.692,13.152,21.692,26.143C75.386,147.086,63.452,159.022,48.783,159.022z"/>
</g>
<g>
	<path fill="#FFFFFF" d="M94.733,126.916c-6.13,0-7.513-3.513-7.513-7.421v-13.36h3.741v13.118c0,2.574,0.806,4.393,4.029,4.393
		c2.879,0,4.088-1.272,4.088-4.755v-12.755h3.713v12.512C102.792,124.221,99.856,126.916,94.733,126.916z"/>
	<path fill="#FFFFFF" d="M117.838,126.583c0,0-7.334-13.388-7.91-14.722c0.113,1.757,0.173,4.968,0.173,7.422v7.3h-3.626v-20.448
		h4.754c0,0,7.188,13.028,7.909,14.573c-0.146-2.061-0.202-5.695-0.202-8.21v-6.362h3.626v20.447H117.838z"/>
	<path fill="#FFFFFF" d="M126.965,126.583v-20.448h3.741v20.448H126.965z"/>
	<path fill="#FFFFFF" d="M144.17,126.583h-4.317l-6.763-20.448h4.087l3.769,11.966c0.375,1.15,0.809,2.514,1.151,3.998h0.058
		c0.288-1.393,0.604-2.513,1.15-4.241l3.828-11.724h3.828L144.17,126.583z"/>
	<path fill="#FFFFFF" d="M153.515,126.583v-20.448h10.673v3.304h-6.893v5.027h6.543v3.212h-6.543v5.543h6.893v3.362H153.515
		L153.515,126.583z"/>
	<path fill="#FFFFFF" d="M177.534,126.583l-5.41-8.452h-0.145v8.452h-3.742v-20.448c1.526-0.09,3.34-0.12,5.584-0.12
		c4.288,0,7.051,1.575,7.051,5.756c0,3.029-2.015,5.211-4.949,5.695c0.551,0.758,1.096,1.544,1.582,2.242l4.662,6.876
		L177.534,126.583L177.534,126.583z M173.448,109.226c-0.548,0-1.095,0.029-1.469,0.09v5.907c0.258,0.03,0.775,0.061,1.352,0.061
		c2.246,0,3.627-1.212,3.627-3.12C176.958,110.194,175.807,109.226,173.448,109.226z"/>
	<path fill="#FFFFFF" d="M188.491,126.916c-1.381,0-2.763-0.151-3.971-0.484l0.23-3.666c1.094,0.394,2.646,0.728,4.058,0.728
		c1.899,0,3.368-0.818,3.368-2.695c0-3.908-8.146-2.121-8.146-8.847c0-3.636,2.733-6.149,7.396-6.149
		c1.095,0,2.359,0.151,3.513,0.363l-0.202,3.454c-1.094-0.333-2.302-0.545-3.48-0.545c-2.155,0-3.254,1.03-3.254,2.484
		c0,3.665,8.176,2.302,8.176,8.693C196.176,124.099,193.269,126.916,188.491,126.916z"/>
	<path fill="#FFFFFF" d="M199.198,126.583v-20.448h3.74v20.448H199.198z"/>
	<path fill="#FFFFFF" d="M214.276,109.498v17.085h-3.74v-17.085H205.5v-3.363h13.813v3.363H214.276z"/>
	<path fill="#FFFFFF" d="M222.267,126.583v-20.448h11.116v3.304h-7.178v5.027h6.813v3.212h-6.813v5.543h7.178v3.362H222.267
		L222.267,126.583z M226.418,104.804l-1.334-2.212l5.302-3.333l1.604,2.666L226.418,104.804z"/>
	<path fill="#FFFFFF" d="M93.023,159.329c-2.12,0-3.969-0.092-5.694-0.152V138.79c1.604-0.061,4.09-0.149,6.604-0.149
		c6.331,0,10.359,2.815,10.359,9.995C104.292,155.663,99.687,159.329,93.023,159.329z M93.659,141.94
		c-0.908,0-1.756,0.029-2.393,0.09v13.783c0.544,0.091,1.361,0.15,2.15,0.15c3.849,0,6.635-2.182,6.635-7.027
		C100.052,144.543,98.325,141.94,93.659,141.94z"/>
	<path fill="#FFFFFF" d="M106.958,159.208v-20.449h11.117v3.306h-7.179v5.026h6.815v3.211h-6.815v5.543h7.179v3.363H106.958
		L106.958,159.208z"/>
	<path fill="#FFFFFF" d="M146.278,143c-1.636-0.637-3.514-1.029-5.422-1.029c-4.029,0-6.938,2.543-6.938,7.117
		c0,4.332,2.36,6.877,6.512,6.877c0.971,0,1.818-0.121,2.605-0.363v-7.119h3.938v9.754c-2.03,0.818-4.547,1.271-6.999,1.271
		c-6.481,0-10.33-3.816-10.33-10.057c0-6.424,4.362-10.996,11.451-10.996c2.03,0,4.028,0.361,5.786,0.879L146.278,143z"/>
	<path fill="#FFFFFF" d="M151.155,159.208v-20.449h11.117v3.306h-7.182v5.026h6.813v3.211h-6.813v5.543h7.182v3.363H151.155
		L151.155,159.208z"/>
	<path fill="#FFFFFF" d="M178.316,159.208c0,0-7.715-13.389-8.319-14.724c0.121,1.759,0.185,4.968,0.185,7.423v7.299h-3.815v-20.447
		h5.012c0,0,7.563,13.027,8.316,14.57c-0.148-2.059-0.212-5.693-0.212-8.207v-6.363h3.813v20.449H178.316z"/>
	<path fill="#FFFFFF" d="M187.385,159.208v-20.449h11.117v3.306h-7.183v5.026h6.816v3.211h-6.816v5.543h7.183v3.363H187.385
		L187.385,159.208z M194.14,137.458l-5.573-2.879l1.666-2.697l5.271,3.332L194.14,137.458z"/>
	<path fill="#FFFFFF" d="M212.588,159.208h-4.543l-7.119-20.449h4.302l3.97,11.968c0.393,1.147,0.848,2.517,1.211,4h0.063
		c0.303-1.396,0.636-2.517,1.212-4.242l4.025-11.726h4.031L212.588,159.208z"/>
	<path fill="#FFFFFF" d="M222.311,159.208v-20.449h11.117v3.306h-7.18v5.026h6.813v3.211h-6.813v5.543h7.18v3.363H222.311
		L222.311,159.208z"/>
</g>
<g>
	<path fill="#FFFFFF" d="M74.657,74.779c0-1.86-0.06-3.36-0.12-4.74h2.37l0.12,2.49h0.06c1.08-1.77,2.79-2.82,5.16-2.82
		c3.51,0,6.149,2.97,6.149,7.38c0,5.22-3.18,7.8-6.6,7.8c-1.92,0-3.6-0.84-4.47-2.28h-0.06v7.89h-2.61V74.779z M77.267,78.649
		c0,0.39,0.06,0.75,0.12,1.08c0.48,1.83,2.07,3.09,3.96,3.09c2.79,0,4.41-2.28,4.41-5.61c0-2.91-1.53-5.4-4.32-5.4
		c-1.8,0-3.48,1.29-3.99,3.27c-0.09,0.33-0.18,0.72-0.18,1.08V78.649z"/>
	<path fill="#FFFFFF" d="M99.766,84.559l-0.21-1.83h-0.09c-0.81,1.14-2.37,2.16-4.44,2.16c-2.94,0-4.44-2.07-4.44-4.17
		c0-3.51,3.12-5.43,8.73-5.4v-0.3c0-1.2-0.33-3.36-3.3-3.36c-1.35,0-2.76,0.42-3.78,1.08l-0.6-1.74c1.2-0.78,2.94-1.29,4.77-1.29
		c4.44,0,5.52,3.03,5.52,5.94v5.43c0,1.26,0.06,2.49,0.24,3.48H99.766z M99.376,77.149c-2.88-0.06-6.15,0.45-6.15,3.27
		c0,1.71,1.14,2.52,2.49,2.52c1.89,0,3.09-1.2,3.51-2.43c0.09-0.27,0.15-0.57,0.15-0.84V77.149z"/>
	<path fill="#FFFFFF" d="M106.187,74.569c0-1.71-0.03-3.18-0.12-4.53h2.31l0.09,2.85h0.12c0.66-1.95,2.25-3.18,4.02-3.18
		c0.3,0,0.51,0.03,0.75,0.09v2.49c-0.27-0.06-0.54-0.09-0.9-0.09c-1.86,0-3.18,1.41-3.54,3.39c-0.06,0.36-0.12,0.78-0.12,1.23v7.74
		h-2.61V74.569z"/>
	<path fill="#FFFFFF" d="M119.896,65.87v4.17h3.78v2.01h-3.78v7.83c0,1.8,0.51,2.82,1.98,2.82c0.69,0,1.2-0.09,1.53-0.18l0.12,1.98
		c-0.51,0.21-1.32,0.36-2.34,0.36c-1.23,0-2.22-0.39-2.85-1.11c-0.75-0.78-1.02-2.07-1.02-3.78V72.05h-2.25v-2.01h2.25V66.56
		L119.896,65.87z"/>
	<path fill="#FFFFFF" d="M126.646,73.97c0-1.5-0.03-2.73-0.12-3.93h2.34l0.15,2.4h0.06c0.72-1.38,2.399-2.73,4.8-2.73
		c2.01,0,5.13,1.2,5.13,6.18v8.669h-2.64v-8.37c0-2.34-0.87-4.29-3.359-4.29c-1.74,0-3.09,1.23-3.541,2.7
		c-0.119,0.33-0.18,0.78-0.18,1.23v8.729h-2.64V73.97z"/>
	<path fill="#FFFFFF" d="M144.766,77.779c0.06,3.57,2.34,5.04,4.979,5.04c1.89,0,3.03-0.33,4.02-0.75l0.45,1.89
		c-0.93,0.42-2.52,0.9-4.83,0.9c-4.47,0-7.14-2.939-7.14-7.319s2.58-7.83,6.81-7.83c4.74,0,6,4.17,6,6.84
		c0,0.54-0.06,0.96-0.09,1.23H144.766z M152.505,75.89c0.03-1.68-0.689-4.29-3.66-4.29c-2.67,0-3.84,2.46-4.05,4.29H152.505z"/>
	<path fill="#FFFFFF" d="M158.325,74.569c0-1.71-0.029-3.18-0.119-4.53h2.31l0.09,2.85h0.12c0.66-1.95,2.25-3.18,4.02-3.18
		c0.3,0,0.51,0.03,0.75,0.09v2.49c-0.27-0.06-0.54-0.09-0.899-0.09c-1.86,0-3.181,1.41-3.54,3.39c-0.061,0.36-0.12,0.78-0.12,1.23
		v7.74h-2.61V74.569z"/>
	<path fill="#FFFFFF" d="M175.545,70.04l1.92,7.38c0.42,1.62,0.81,3.12,1.08,4.62h0.09c0.33-1.47,0.81-3.03,1.29-4.59l2.369-7.41
		h2.221l2.249,7.26c0.54,1.74,0.96,3.27,1.29,4.74h0.091c0.239-1.47,0.63-3,1.109-4.709l2.07-7.29h2.609l-4.68,14.52h-2.399
		l-2.221-6.93c-0.51-1.62-0.93-3.06-1.29-4.77h-0.06c-0.36,1.74-0.81,3.24-1.32,4.8l-2.34,6.9h-2.399l-4.38-14.52H175.545z"/>
	<path fill="#FFFFFF" d="M199.515,65.96c0.03,0.9-0.63,1.62-1.68,1.62c-0.931,0-1.59-0.72-1.59-1.62c0-0.93,0.689-1.65,1.649-1.65
		C198.885,64.31,199.515,65.03,199.515,65.96z M196.575,84.559V70.04h2.641v14.52H196.575z"/>
	<path fill="#FFFFFF" d="M206.775,65.87v4.17h3.779v2.01h-3.779v7.83c0,1.8,0.51,2.82,1.979,2.82c0.69,0,1.2-0.09,1.53-0.18
		l0.12,1.98c-0.511,0.21-1.32,0.36-2.34,0.36c-1.23,0-2.221-0.39-2.851-1.11c-0.75-0.78-1.02-2.07-1.02-3.78V72.05h-2.25v-2.01h2.25
		V66.56L206.775,65.87z"/>
	<path fill="#FFFFFF" d="M213.524,63.26h2.641v9.06h0.06c0.42-0.75,1.08-1.41,1.89-1.86c0.78-0.45,1.71-0.75,2.7-0.75
		c1.95,0,5.07,1.2,5.07,6.21v8.64h-2.641v-8.34c0-2.34-0.87-4.32-3.359-4.32c-1.71,0-3.06,1.2-3.54,2.64
		c-0.15,0.36-0.18,0.75-0.18,1.26v8.76h-2.641V63.26z"/>
	<path fill="#FFFFFF" d="M229.543,72.439c0-1.11,0.75-1.89,1.801-1.89c1.05,0,1.739,0.78,1.77,1.89c0,1.05-0.69,1.86-1.8,1.86
		C230.264,74.299,229.543,73.49,229.543,72.439z M229.543,83.029c0-1.11,0.75-1.89,1.801-1.89c1.05,0,1.739,0.78,1.77,1.89
		c0,1.05-0.69,1.86-1.8,1.86C230.264,84.889,229.543,84.079,229.543,83.029z"/>
</g>
</svg>
