<?xml version="1.0" encoding="utf-8"?>
<!-- Generator: Adobe Illustrator 16.0.0, SVG Export Plug-In . SVG Version: 6.00 Build 0)  -->
<!DOCTYPE svg PUBLIC "-//W3C//DTD SVG 1.1//EN" "http://www.w3.org/Graphics/SVG/1.1/DTD/svg11.dtd">
<svg version="1.1" id="Layer_1" xmlns="http://www.w3.org/2000/svg" xmlns:xlink="http://www.w3.org/1999/xlink" x="0px" y="0px"
	 width="212.891px" height="60.499px" viewBox="20.492 100.212 212.891 60.499"
	 enable-background="new 20.492 100.212 212.891 60.499" xml:space="preserve">
<g>
	<path fill="#FFFFFF" d="M33.965,113.719l1.325,1.713l0.972-0.752l-2.159-2.791l-0.762,0.588c0.303,0.472-0.131,1.037-0.667,1.438
		l0.388,0.501L33.965,113.719z"/>
	<path fill="#FFFFFF" d="M37.483,112.109c0.067-0.272,0.26-0.436,0.552-0.584c0.426-0.219,0.777-0.133,0.934,0.174
		c0.157,0.307-0.045,0.66-0.445,0.865c-0.31,0.16-0.749,0.203-0.883-0.043l-1.033,0.533c0.446,0.721,1.31,0.606,2.234,0.133
		c0.985-0.506,1.54-1.279,1.142-2.055c-0.336-0.654-1.078-0.738-1.947-0.293c-0.323,0.166-0.578,0.389-0.712,0.651l-0.012,0.006
		l-0.136-0.653l1.878-0.964l-0.333-0.647l-2.674,1.373l0.498,1.986L37.483,112.109z"/>
	<path fill="#FFFFFF" d="M59.889,111.023c-0.323-0.162-0.652-0.238-0.943-0.192l-0.013-0.007l0.449-0.493l1.884,0.952l0.329-0.651
		l-2.685-1.354l-1.313,1.57l0.938,0.473c0.262-0.106,0.506-0.045,0.799,0.103c0.428,0.218,0.563,0.554,0.408,0.859
		c-0.154,0.308-0.561,0.352-0.963,0.147c-0.311-0.156-0.604-0.486-0.483-0.738l-1.036-0.523c-0.32,0.786,0.279,1.417,1.206,1.887
		c0.987,0.498,1.94,0.492,2.333-0.285C61.129,112.116,60.761,111.464,59.889,111.023z"/>
	<path fill="#FFFFFF" d="M64.161,112.373c-0.783-0.605-1.76-0.707-2.221-0.111c-0.421,0.545-0.22,1.346,0.526,1.924
		c0.323,0.252,0.741,0.438,1.075,0.352l0.011,0.008c-0.306,0.352-0.748,0.555-1.245,0.17c-0.113-0.086-0.217-0.199-0.275-0.313
		c-0.062-0.112-0.078-0.234-0.031-0.34l-0.859-0.664c-0.27,0.619,0.039,1.246,0.725,1.777c1.201,0.926,2.185,0.581,2.808-0.223
		C65.252,114.201,65.259,113.223,64.161,112.373z M64.04,113.873c-0.194,0.251-0.59,0.271-0.979-0.029
		c-0.378-0.293-0.448-0.672-0.246-0.933c0.179-0.231,0.591-0.24,0.937,0.026C64.145,113.244,64.231,113.623,64.04,113.873z"/>
	<path fill="#FFFFFF" d="M25.199,126.839c0.62,0.206,1.074-0.392,1.435-1.016c0.362-0.628,0.632-1.28,0.897-1.192
		c0.226,0.075,0.186,0.422,0.1,0.682c-0.124,0.369-0.356,0.732-0.661,0.607l-0.4,1.207c0.776,0.25,1.414-0.566,1.72-1.488
		c0.289-0.869,0.333-1.984-0.417-2.231c-0.63-0.209-1.081,0.411-1.439,1.024c-0.361,0.623-0.637,1.267-0.939,1.164
		c-0.255-0.082-0.226-0.49-0.105-0.854c0.168-0.511,0.411-0.806,0.822-0.698l0.4-1.206c-0.882-0.282-1.539,0.541-1.892,1.604
		C24.382,125.459,24.329,126.552,25.199,126.839z"/>
	<path fill="#FFFFFF" d="M24.802,132.918l0.097-1.27c-0.411-0.08-0.637-0.438-0.591-1.029c0.064-0.816,0.624-1.092,1.159-1.051
		c0.534,0.043,1.045,0.396,0.982,1.215c-0.041,0.529-0.262,0.896-0.631,0.938l-0.098,1.269c0.871,0.032,1.453-1.064,1.533-2.115
		c0.114-1.474-0.646-2.488-1.689-2.567c-1.044-0.082-1.952,0.811-2.065,2.278C23.403,131.818,23.878,132.782,24.802,132.918z"/>
	<polygon fill="#FFFFFF" points="27.583,137 26.286,137.221 26.001,135.573 27.299,135.35 27.082,134.096 23.521,134.709 
		23.737,135.961 25.203,135.709 25.488,137.359 24.021,137.614 24.237,138.866 27.798,138.25 	"/>
	<path fill="#FFFFFF" d="M29.086,141.309c-0.629-1.399-1.746-1.854-2.702-1.424c-0.955,0.43-1.362,1.563-0.733,2.967
		c0.629,1.4,1.746,1.853,2.702,1.424C29.308,143.848,29.715,142.713,29.086,141.309z M27.832,143.116
		c-0.489,0.219-1.106,0.151-1.443-0.599c-0.335-0.748,0.026-1.254,0.516-1.473c0.489-0.219,1.107-0.152,1.443,0.596
		S28.322,142.895,27.832,143.116z"/>
	<polygon fill="#FFFFFF" points="31.329,145.307 30.559,144.295 27.684,146.484 29.832,149.307 30.476,148.816 29.099,147.004 	"/>
	<path fill="#FFFFFF" d="M30.495,150.086l0.99,0.85l0.655-0.291l1.291,1.109l-0.194,0.688l1.005,0.865l0.97-3.934l-0.979-0.842
		L30.495,150.086z M33.659,151.029l-0.84-0.723l1.245-0.6l0.011,0.01L33.659,151.029z"/>
	<path fill="#FFFFFF" d="M44.304,154.463c0.501,0.104,0.865,0.371,0.843,0.682l1.244,0.26c0.07-0.909-0.906-1.522-1.896-1.729
		c-1.445-0.301-2.552,0.324-2.765,1.352c-0.211,1.023,0.555,2.035,2,2.337c0.442,0.092,1.029,0.09,1.427-0.185l-0.007,0.4
		l0.803,0.166l0.402-1.938l-2.007-0.416l-0.143,0.687l0.87,0.18c-0.134,0.31-0.593,0.439-1.209,0.31
		c-0.802-0.166-1.002-0.756-0.892-1.277C43.084,154.76,43.5,154.299,44.304,154.463z"/>
	<polygon fill="#FFFFFF" points="49.543,157.004 49.508,156.316 51.896,156.195 51.859,155.467 49.471,155.588 49.439,154.958 
		52.052,154.825 52.014,154.073 48.131,154.268 48.315,157.877 52.266,157.678 52.224,156.87 	"/>
	<polygon fill="#FFFFFF" points="56.249,152.952 56.911,155.077 56.898,155.083 54.618,153.459 53.372,153.848 54.447,157.297 
		55.588,156.943 54.919,154.792 54.932,154.788 57.219,156.434 58.466,156.045 57.391,152.596 	"/>
	<polygon fill="#FFFFFF" points="61.267,153.682 60.907,153.098 62.941,151.838 62.557,151.221 60.522,152.477 60.19,151.938 
		62.417,150.563 62.021,149.92 58.713,151.965 60.614,155.04 63.977,152.959 63.553,152.27 	"/>
	<polygon fill="#FFFFFF" points="65.043,147.075 66.28,149.645 66.268,149.657 63.688,148.443 62.754,149.383 66.403,150.836 
		67.432,149.799 65.978,146.133 	"/>
	<polygon fill="#FFFFFF" points="69.614,145.689 69.024,145.333 70.264,143.288 69.641,142.911 68.4,144.954 67.86,144.625 
		69.217,142.389 68.573,141.999 66.556,145.323 69.645,147.195 71.698,143.813 71.005,143.393 	"/>
	<polygon fill="#FFFFFF" points="70.02,137.85 72.153,138.493 72.149,138.504 69.528,139.486 69.151,140.734 72.612,141.777 
		72.958,140.633 70.8,139.982 70.805,139.971 73.45,138.997 73.827,137.749 70.366,136.706 	"/>
	<path fill="#FFFFFF" d="M73.233,131.387c-0.652-0.027-0.926,0.67-1.104,1.367c-0.178,0.703-0.26,1.404-0.538,1.393
		c-0.237-0.012-0.293-0.354-0.281-0.629c0.017-0.389,0.142-0.801,0.47-0.766l0.055-1.271c-0.813-0.028-1.205,0.933-1.25,1.898
		c-0.039,0.916,0.222,2,1.01,2.035c0.663,0.027,0.928-0.689,1.105-1.381c0.178-0.695,0.27-1.393,0.588-1.375
		c0.269,0.012,0.352,0.41,0.334,0.795c-0.023,0.539-0.176,0.887-0.602,0.896l-0.056,1.271c0.925,0.032,1.333-0.938,1.383-2.06
		C74.395,132.493,74.148,131.428,73.233,131.387z"/>
	
		<rect x="70.444" y="128.382" transform="matrix(-0.9898 0.1426 -0.1426 -0.9898 162.1656 246.4088)" fill="#FFFFFF" width="3.615" height="1.269"/>
	<path fill="#FFFFFF" d="M71.12,126.891c0.627-0.215,0.61-0.982,0.523-1.689c-0.09-0.713-0.259-1.391,0.043-1.496
		c0.253-0.086,0.479,0.254,0.602,0.617c0.177,0.511,0.162,0.891-0.23,1.055l0.413,1.202c0.874-0.308,0.897-1.362,0.534-2.423
		c-0.348-1.014-0.967-1.914-1.834-1.617c-0.616,0.212-0.615,0.962-0.526,1.676c0.093,0.721,0.272,1.402,0.009,1.492
		c-0.226,0.078-0.402-0.223-0.492-0.48c-0.125-0.369-0.162-0.797,0.158-0.886l-0.414-1.202c-0.769,0.271-0.781,1.309-0.467,2.227
		C69.733,126.23,70.374,127.146,71.12,126.891z"/>
	<circle fill="#FFFFFF" cx="38.18" cy="153.779" r="0.862"/>
	<circle fill="#FFFFFF" cx="29.74" cy="118.321" r="0.862"/>
	<circle fill="#FFFFFF" cx="67.805" cy="118.321" r="0.862"/>
	<polygon fill="#FFFFFF" points="50.972,108.409 50.272,109.506 51.985,109.506 51.985,108.975 51.31,108.979 51.683,108.419 
		51.31,107.844 51.974,107.839 51.974,107.314 50.272,107.314 	"/>
	<polygon fill="#FFFFFF" points="47.269,108.979 46.846,108.982 46.846,107.839 47.239,107.844 47.239,107.314 45.829,107.314 
		45.829,107.844 46.221,107.839 46.221,108.982 45.804,108.979 45.804,109.506 47.269,109.506 	"/>
	<polygon fill="#FFFFFF" points="49.264,108.086 48.371,108.086 48.376,107.307 47.722,107.307 47.722,109.506 48.376,109.506 
		48.371,108.633 49.264,108.633 49.264,109.506 49.916,109.506 49.916,107.307 49.264,107.307 	"/>
	<path fill="#FFFFFF" d="M48.543,106.009c0-0.166,0.119-0.271,0.292-0.271c0.156,0,0.272,0.117,0.272,0.271l0.009,0.777h1.219
		v-0.653h-0.748l-0.003-0.167c-0.004-0.468-0.22-0.845-0.753-0.845c-0.409,0-0.692,0.229-0.742,0.622
		c-0.009,0.083-0.009,0.172-0.009,0.257v0.132h-0.746l-0.001,0.653h1.209L48.543,106.009z"/>
	<circle fill="#FFFFFF" cx="48.835" cy="110.415" r="0.392"/>
	<path fill="#FFFFFF" d="M54.893,104.801l0.579-0.713l-3.371,0.497l0.534-3.333l-2.657,2.152l-1.22-3.192l-1.219,3.192l-2.651-2.156
		l0.539,3.379l-3.379-0.542l0.587,0.724c-12.653,2.815-22.143,14.125-22.143,27.611c0,15.602,12.691,28.291,28.291,28.291
		c15.6,0,28.29-12.689,28.29-28.291C77.073,118.917,67.564,107.602,54.893,104.801z M48.819,104.105c2.139,0,3.88,1.74,3.88,3.879
		c0,2.14-1.741,3.88-3.88,3.88c-2.139,0-3.88-1.74-3.88-3.88C44.939,105.848,46.68,104.105,48.819,104.105z M52.392,112.885
		c4.223,0.778,7.981,2.891,10.819,5.889h-1.816v1.354h-1.654v-1.354H57.49v1.873h-1.331c0,0,0.009-2.853,0.009-2.881
		c0-0.641-0.522-1.164-1.164-1.164c-0.643,0-1.165,0.523-1.165,1.164c0,0.029,0.01,15.109,0.01,15.109l-2.309,2.127v1.125
		c-1.016,0.146-1.858,0.797-2.287,1.686v-23.019l0.772-2.235l2.608,2.121L52.392,112.885z M53.47,145.473
		c-0.575,0.228-0.985,0.781-0.985,1.438c0,0.854,0.692,1.545,1.545,1.545h1.945c0.854,0,1.545-0.69,1.545-1.545
		c0-0.654-0.41-1.211-0.985-1.438c2.633-0.916,4.526-3.414,4.526-6.358c0-1.525-1.13-2.775-2.596-2.986v-1.125l-2.309-2.125v-4.433
		h1.331v1.873h2.251v-1.416h1.653v1.416h2.251v-5.004h-2.251v1.211h-1.653v-1.211H57.87v-1.537h1.869v-1.209h1.653v1.209h2.251
		v-4.537c3.118,3.509,5.014,8.125,5.014,13.18c0,10.803-8.664,19.613-19.407,19.865V141.12
		C49.888,143.154,51.462,144.773,53.47,145.473z M50.501,139.111c0-0.725,0.523-1.321,1.211-1.444
		c0.058,0.858,0.767,1.541,1.642,1.541h3.304c0.874,0,1.583-0.681,1.641-1.541c0.685,0.127,1.205,0.728,1.205,1.444
		c0,2.783-1.917,4.464-4.5,5.104C52.42,143.577,50.501,141.895,50.501,139.111z M35.483,124.375
		c-0.104,0.141-0.178,0.305-0.178,0.493c0,0.132,0.036,0.252,0.091,0.362l-5.143,0.011c0.226-0.583,0.478-1.149,0.755-1.703
		L35.483,124.375z M32.238,121.417c0.583-0.872,1.232-1.696,1.941-2.466c0.357,1.261,1.14,2.395,2.168,3.208
		c-0.141,0.086-0.263,0.207-0.328,0.373c-0.041,0.106-0.054,0.214-0.049,0.321L32.238,121.417z M30.391,128.012
		c0,0,2.459-0.457,5.136-0.957c-0.021,0.139-0.02,0.281,0.035,0.42c0.036,0.094,0.092,0.17,0.152,0.239l-5.059,1.972
		c-0.708,0.433-0.913,1.301-0.504,1.959c0.198,0.316,0.507,0.541,0.873,0.629c0.366,0.086,0.744,0.021,1.063-0.174l4.445-2.748
		c0.031,0.137,0.083,0.271,0.184,0.379c0.065,0.072,0.146,0.125,0.228,0.168l-4.007,3.664c-0.503,0.656-0.38,1.543,0.237,2.011
		c0.618,0.469,1.503,0.346,1.972-0.271l3.189-4.217c0.074,0.115,0.167,0.224,0.299,0.285c0.069,0.034,0.144,0.047,0.217,0.063
		c0.017,0.01,0.03,0.021,0.046,0.03l-2.223,4.478c-0.226,0.771,0.194,1.531,0.917,1.735c0.723,0.205,1.48-0.217,1.687-0.938
		l1.282-4.484c0.551,0.166,1.136,0.256,1.741,0.256c0.493,0,0.816-0.04,1.275-0.149c-0.004,0.813-0.009,1.58-0.009,1.649
		c-0.108,0.115-4.076,4.431-4.076,4.431c-0.699,0.569-0.952,0.604-1.407,0.147l-0.132-0.133l-1.239,0.974l0.168,0.168
		c0.467,0.469,0.906,0.788,1.501,0.848c-0.862,0.455-1.598,0.844-1.727,0.91c-0.134-0.142-0.777-0.808-1.115-1.154
		c-0.051-0.885-0.778-1.59-1.675-1.59c-0.928,0-1.683,0.758-1.683,1.686v0.086l0.645,0.646v-0.508c0-0.115,0.044-0.223,0.124-0.305
		c0.166-0.166,0.436-0.166,0.601,0c0,0,0.497,0.541,0.827,0.898l-0.004,0.006l0.133,0.137c0.094,0.104,0.158,0.172,0.158,0.172
		l0.004-0.004l0.374,0.387l-0.484-0.002c-0.319-0.268-0.716-0.404-1.134-0.391c-0.45,0.02-0.865,0.209-1.17,0.539
		c-0.221,0.24-0.362,0.535-0.417,0.85c-1.859-3.022-2.934-6.578-2.934-10.381c0-1.596,0.194-3.145,0.551-4.631
		C29.704,128,30.024,128.081,30.391,128.012z M32.682,143.689c0-0.125,0.05-0.256,0.143-0.354c0.097-0.104,0.229-0.168,0.374-0.174
		l1.211,0.002c-0.605,0.139-1.126,0.537-1.413,1.104c-0.148-0.217-0.298-0.459-0.313-0.563
		C32.682,143.702,32.682,143.695,32.682,143.689z M34.224,145.456c0.027-0.106,0.093-0.203,0.189-0.265l2.538-1.434l0.711,0.729
		l-0.01,0.009l0.175,0.159l0.131,0.136l0.007-0.006l0.906,0.832c0.159,0.159,0.159,0.43-0.007,0.596
		c-0.08,0.08-0.188,0.123-0.301,0.123h-0.51l0.646,0.646h0.087c0.45,0,0.872-0.176,1.19-0.492c0.317-0.319,0.493-0.739,0.493-1.19
		c0-0.896-0.704-1.623-1.586-1.674c-0.198-0.199-0.482-0.479-0.623-0.621c0.404-0.256,7.438-4.721,8.093-5.135
		c-0.221,2.461-2.343,5.348-4.346,7.077c-0.917,0.916-1.268,1.938-1.268,2.824c0,0.781,0.274,1.457,0.676,1.857
		c0.353,0.354,0.89,0.459,1.335,0.264l0.282-0.123l-0.218-0.219c-0.355-0.354-0.482-0.975-0.482-1.438
		c0-0.926,0.239-1.396,0.687-1.881c0.095,0.097,0.293,0.293,0.573,0.568c-0.189,0.516-0.28,1.027-0.28,1.521
		c0,0.988,0.349,1.887,0.928,2.465c0.12,0.121,1.402,1.184,1.94,1.002l0.386-0.131l-0.329-0.24
		c-0.188-0.137-0.793-0.842-0.999-1.271c-0.165-0.344-0.263-0.76-0.263-1.19c0-0.705,0.288-1.521,0.924-2.156
		c0.034-0.049,1.438-3.514,2.153-5.187c0,0.039,0,0.328,0,0.328c0.004,0.396,0.009,0.783,0.009,1.162
		c0,2.019-0.122,3.808-1.008,4.689c-0.551,0.549-1.574,0.844-1.574,0.844l0.265,0.314c0.026,0.025,0.452,0.688,1.141,0.709
		c0.164,0.006,0.293-0.105,0.436-0.176c0.036,1.578,0.333,2.197,0.864,2.793c-5.295-0.154-10.077-2.392-13.554-5.918l-0.357-0.586
		c-0.042-0.064-0.064-0.146-0.064-0.226C34.213,145.521,34.217,145.491,34.224,145.456z M44.88,117.225l0.479-0.813h-1.978
		l0.231-0.846c0-0.407-0.33-0.738-0.737-0.738c-0.099,0-0.194,0.021-0.279,0.055c0.016-0.074,0.027-0.145,0.027-0.199
		c0-0.269-0.217-0.486-0.486-0.486s-0.487,0.218-0.487,0.486c0,0.055,0.011,0.125,0.027,0.199c-0.086-0.035-0.179-0.055-0.278-0.055
		c-0.408,0-0.738,0.331-0.738,0.738l0.23,0.846H40.37c-0.358,0-0.657,0.254-0.724,0.592c-0.109-0.029-0.222-0.049-0.34-0.049
		c-0.67,0-1.214,0.543-1.214,1.214c0,0.21,0.054,0.406,0.146,0.578c0.206-0.379,0.606-0.638,1.066-0.638
		c0.414,0,0.777,0.209,0.997,0.524c0.025,0.037,0.049,0.074,0.07,0.113c0.063,0.116,0.099,0.247,0.12,0.381h-2.454
		c-0.67,0-1.214-0.543-1.214-1.213v0.253v0.273v0.254c0,0.67,0.543,1.214,1.214,1.214h2.327c-0.208,0.373-0.603,0.624-1.06,0.624
		c-0.023,0-0.047-0.001-0.071-0.004c0.219,0.318,0.585,0.525,1,0.525c0.518,0,0.959-0.326,1.133-0.783h3.287
		c0.669,0,1.214,0.543,1.214,1.213c0,0.312,0.001,0.752-0.309,1.084l-0.303,0.455l-2.071,3.195
		c-0.377,0.555-1.132,0.696-1.687,0.318c-0.554-0.377-0.699-1.155-0.321-1.708c0.482-0.269,0.67-0.823,0.581-1.399
		c-0.112-0.714-0.763-1.203-1.473-1.132l-0.408-0.009c-2.596,0-4.534-1.755-4.802-4.243c2.74-2.614,6.222-4.453,10.093-5.167
		l-0.288,1.796l2.639-2.143l0.89,2.29v3.543L44.88,117.225z M48.783,159.021c-14.669,0-26.604-11.936-26.604-26.604
		c0-12.979,9.342-23.811,21.653-26.135l0.371,0.458l-3.196,1.218l3.195,1.223l-2.159,2.654l3.378-0.538l-0.112,0.696
		c-9.776,1.658-17.248,10.183-17.248,20.424c0,11.426,9.295,20.721,20.72,20.721c11.424,0,20.719-9.295,20.719-20.721
		c0-10.236-7.461-18.755-17.229-20.42l-0.092-0.686l3.291,0.528l-2.07-2.688l3.11-1.188l-3.146-1.283l0.329-0.404
		c12.33,2.313,21.692,13.152,21.692,26.144C75.386,147.086,63.452,159.021,48.783,159.021z"/>
</g>
<g>
	<path fill="#FFFFFF" d="M94.733,126.916c-6.13,0-7.513-3.514-7.513-7.421v-13.36h3.741v13.118c0,2.574,0.806,4.394,4.029,4.394
		c2.879,0,4.088-1.272,4.088-4.756v-12.754h3.713v12.512C102.792,124.221,99.856,126.916,94.733,126.916z"/>
	<path fill="#FFFFFF" d="M117.838,126.583c0,0-7.334-13.388-7.909-14.722c0.112,1.757,0.172,4.968,0.172,7.422v7.3h-3.625v-20.448
		h4.754c0,0,7.188,13.028,7.908,14.573c-0.146-2.062-0.201-5.694-0.201-8.21v-6.362h3.625v20.447H117.838z"/>
	<path fill="#FFFFFF" d="M126.965,126.583v-20.448h3.741v20.448H126.965z"/>
	<path fill="#FFFFFF" d="M144.17,126.583h-4.317l-6.763-20.448h4.087l3.77,11.967c0.375,1.149,0.809,2.514,1.15,3.998h0.059
		c0.287-1.394,0.604-2.514,1.15-4.242l3.827-11.724h3.828L144.17,126.583z"/>
	<path fill="#FFFFFF" d="M153.515,126.583v-20.448h10.674v3.305h-6.894v5.026h6.543v3.212h-6.543v5.543h6.894v3.362H153.515
		L153.515,126.583z"/>
	<path fill="#FFFFFF" d="M177.534,126.583l-5.41-8.452h-0.145v8.452h-3.742v-20.448c1.525-0.09,3.34-0.119,5.584-0.119
		c4.287,0,7.051,1.574,7.051,5.756c0,3.028-2.016,5.211-4.949,5.694c0.551,0.759,1.096,1.544,1.582,2.242l4.662,6.876
		L177.534,126.583L177.534,126.583z M173.448,109.227c-0.549,0-1.096,0.028-1.469,0.09v5.906c0.258,0.03,0.774,0.062,1.352,0.062
		c2.246,0,3.627-1.212,3.627-3.12C176.958,110.193,175.808,109.227,173.448,109.227z"/>
	<path fill="#FFFFFF" d="M188.491,126.916c-1.381,0-2.764-0.15-3.971-0.484l0.229-3.666c1.094,0.395,2.646,0.729,4.058,0.729
		c1.899,0,3.368-0.818,3.368-2.695c0-3.908-8.146-2.121-8.146-8.847c0-3.636,2.732-6.149,7.396-6.149
		c1.095,0,2.359,0.151,3.513,0.363l-0.201,3.454c-1.094-0.333-2.303-0.545-3.48-0.545c-2.154,0-3.254,1.03-3.254,2.483
		c0,3.666,8.176,2.303,8.176,8.693C196.176,124.1,193.269,126.916,188.491,126.916z"/>
	<path fill="#FFFFFF" d="M199.198,126.583v-20.448h3.74v20.448H199.198z"/>
	<path fill="#FFFFFF" d="M214.276,109.498v17.085h-3.74v-17.085H205.5v-3.363h13.813v3.363H214.276z"/>
	<path fill="#FFFFFF" d="M222.267,126.583v-20.448h11.116v3.305h-7.178v5.026h6.813v3.212h-6.813v5.543h7.178v3.362H222.267
		L222.267,126.583z M226.418,104.805l-1.334-2.213l5.302-3.333l1.604,2.666L226.418,104.805z"/>
	<path fill="#FFFFFF" d="M93.023,159.329c-2.12,0-3.969-0.093-5.694-0.152V138.79c1.604-0.062,4.09-0.149,6.604-0.149
		c6.331,0,10.359,2.815,10.359,9.995C104.292,155.663,99.687,159.329,93.023,159.329z M93.659,141.939
		c-0.908,0-1.756,0.029-2.393,0.09v13.783c0.544,0.092,1.361,0.15,2.15,0.15c3.849,0,6.635-2.182,6.635-7.027
		C100.052,144.543,98.325,141.939,93.659,141.939z"/>
	<path fill="#FFFFFF" d="M106.958,159.208v-20.449h11.117v3.306h-7.18v5.026h6.815v3.211h-6.815v5.543h7.18v3.363H106.958
		L106.958,159.208z"/>
	<path fill="#FFFFFF" d="M146.278,143c-1.637-0.637-3.514-1.029-5.422-1.029c-4.029,0-6.938,2.543-6.938,7.117
		c0,4.332,2.36,6.877,6.513,6.877c0.971,0,1.817-0.121,2.604-0.363v-7.119h3.938v9.754c-2.031,0.818-4.548,1.271-7,1.271
		c-6.48,0-10.33-3.816-10.33-10.057c0-6.424,4.362-10.996,11.451-10.996c2.03,0,4.028,0.361,5.786,0.879L146.278,143z"/>
	<path fill="#FFFFFF" d="M151.155,159.208v-20.449h11.117v3.306h-7.183v5.026h6.813v3.211h-6.813v5.543h7.183v3.363H151.155
		L151.155,159.208z"/>
	<path fill="#FFFFFF" d="M178.315,159.208c0,0-7.715-13.39-8.318-14.724c0.121,1.759,0.186,4.968,0.186,7.423v7.299h-3.815v-20.447
		h5.012c0,0,7.563,13.027,8.315,14.57c-0.147-2.06-0.211-5.693-0.211-8.207v-6.363h3.813v20.449H178.315L178.315,159.208z"/>
	<path fill="#FFFFFF" d="M187.385,159.208v-20.449h11.117v3.306h-7.183v5.026h6.815v3.211h-6.815v5.543h7.183v3.363H187.385
		L187.385,159.208z M194.14,137.458l-5.572-2.879l1.666-2.697l5.271,3.332L194.14,137.458z"/>
	<path fill="#FFFFFF" d="M212.588,159.208h-4.543l-7.119-20.449h4.302l3.971,11.968c0.393,1.147,0.848,2.518,1.211,4h0.063
		c0.303-1.396,0.637-2.517,1.213-4.242l4.024-11.726h4.031L212.588,159.208z"/>
	<path fill="#FFFFFF" d="M222.312,159.208v-20.449h11.117v3.306h-7.181v5.026h6.813v3.211h-6.813v5.543h7.181v3.363H222.312
		L222.312,159.208z"/>
</g>
</svg>
