<?xml version="1.0" encoding="utf-8"?>
<!-- Generator: Adobe Illustrator 16.0.0, SVG Export Plug-In . SVG Version: 6.00 Build 0)  -->
<!DOCTYPE svg PUBLIC "-//W3C//DTD SVG 1.1//EN" "http://www.w3.org/Graphics/SVG/1.1/DTD/svg11.dtd">
<svg version="1.1" id="Layer_1" xmlns="http://www.w3.org/2000/svg" xmlns:xlink="http://www.w3.org/1999/xlink" x="0px" y="0px"
	 width="157.485px" height="157.037px" viewBox="0 0 157.485 157.037" enable-background="new 0 0 157.485 157.037"
	 xml:space="preserve">
<g>
	<circle fill="#F36E41" cx="79.417" cy="79.034" r="77.5"/>
	<g>
		<g>
			<g>
				<rect x="79.417" y="36.242" fill="#FFFFFF" width="21.606" height="2.251"/>
				<rect x="79.417" y="44.576" fill="#FFFFFF" width="14.629" height="2.25"/>
				<rect x="79.417" y="61.242" fill="#252E3C" width="14.629" height="2.251"/>
				<rect x="79.417" y="69.576" fill="#252E3C" width="20.93" height="2.25"/>
				<rect x="79.417" y="77.909" fill="#252E3C" width="22.928" height="2.25"/>
				<rect x="79.417" y="86.243" fill="#252E3C" width="20.93" height="2.25"/>
				<rect x="79.417" y="94.575" fill="#252E3C" width="14.629" height="2.252"/>
				<rect x="79.417" y="111.243" fill="#FFFFFF" width="14.629" height="2.25"/>
				<rect x="79.417" y="119.575" fill="#FFFFFF" width="21.606" height="2.252"/>
			</g>
			<g>
				<rect x="57.812" y="36.242" fill="#252E3C" width="21.605" height="2.251"/>
				<rect x="64.788" y="44.576" fill="#252E3C" width="14.628" height="2.25"/>
				<rect x="64.788" y="61.242" fill="#FFFFFF" width="14.628" height="2.251"/>
				<rect x="58.486" y="69.576" fill="#FFFFFF" width="20.93" height="2.25"/>
				<rect x="56.488" y="77.909" fill="#FFFFFF" width="22.928" height="2.25"/>
				<rect x="58.486" y="86.243" fill="#FFFFFF" width="20.93" height="2.25"/>
				<rect x="64.788" y="94.575" fill="#FFFFFF" width="14.628" height="2.252"/>
				<rect x="64.788" y="111.243" fill="#252E3C" width="14.628" height="2.25"/>
				<rect x="57.812" y="119.575" fill="#252E3C" width="21.605" height="2.252"/>
			</g>
		</g>
		<g>
			<path fill="#FFFFFF" d="M104.595,129.034h-4.501c0-7.283-5.04-14.271-13.483-18.691l-16.476-8.629
				c-9.954-5.211-15.897-13.69-15.897-22.68c0-8.988,5.943-17.467,15.897-22.68l16.475-8.627
				c8.444-4.421,13.484-11.409,13.484-18.693h4.501c0,8.99-5.943,17.468-15.896,22.68l-16.476,8.627
				c-8.443,4.422-13.484,11.41-13.484,18.693c0,7.284,5.041,14.271,13.484,18.693l16.476,8.627
				C98.651,111.567,104.595,120.046,104.595,129.034z"/>
			<path fill="#252E3C" d="M58.739,129.034h-4.501c0-8.988,5.943-17.467,15.897-22.68l16.476-8.627
				c8.443-4.422,13.483-11.409,13.483-18.693c0-7.283-5.041-14.271-13.483-18.693l-16.476-8.627
				c-9.954-5.212-15.897-13.69-15.897-22.68h4.501c0,7.284,5.041,14.272,13.484,18.693l16.476,8.627
				c9.953,5.213,15.896,13.692,15.896,22.68c0,8.99-5.943,17.469-15.896,22.68l-16.475,8.629
				C63.779,114.763,58.739,121.751,58.739,129.034z"/>
		</g>
		<g>
			<g>
				<polygon fill="#FFFFFF" points="74.565,54.034 79.417,56.575 84.269,54.034 79.417,51.494 				"/>
				<g>
					<polygon fill="#252E3C" points="84.269,104.034 79.417,101.493 74.565,104.034 79.417,106.575 					"/>
				</g>
			</g>
		</g>
	</g>
</g>
</svg>
