<?xml version="1.0" encoding="utf-8"?>
<!-- Generator: Adobe Illustrator 16.0.0, SVG Export Plug-In . SVG Version: 6.00 Build 0)  -->
<!DOCTYPE svg PUBLIC "-//W3C//DTD SVG 1.1//EN" "http://www.w3.org/Graphics/SVG/1.1/DTD/svg11.dtd">
<svg version="1.1" id="Layer_1" xmlns="http://www.w3.org/2000/svg" xmlns:xlink="http://www.w3.org/1999/xlink" x="0px" y="0px"
	 width="157.485px" height="157.037px" viewBox="0 0 157.485 157.037" enable-background="new 0 0 157.485 157.037"
	 xml:space="preserve">
<g>
	<circle fill="#FFD55C" cx="79.417" cy="79.034" r="77.5"/>
	<g>
		<path fill="#FFFFFF" d="M80.677,126.83c-5.544,0-10.706-5.059-14.535-14.245c-3.75-9-5.814-20.952-5.814-33.653
			c0-12.7,2.064-24.651,5.814-33.651c3.829-9.187,8.991-14.246,14.535-14.246c5.545,0,10.707,5.06,14.535,14.246
			c3.75,9,5.816,20.951,5.816,33.651c0,12.701-2.066,24.652-5.816,33.653C91.384,121.771,86.222,126.83,80.677,126.83z
			 M80.677,32.382c-10.479,0-19.003,20.883-19.003,46.55c0,25.67,8.524,46.552,19.003,46.552s19.004-20.882,19.004-46.552
			C99.681,53.265,91.155,32.382,80.677,32.382z"/>
		<path fill="#FFFFFF" d="M108.112,108.727c-10.35,0-24.41-4.551-37.609-12.171c-11-6.35-20.317-14.114-26.236-21.862
			c-6.041-7.908-7.842-14.908-5.07-19.71c2.209-3.824,7.064-5.845,14.047-5.845c10.351,0,24.41,4.549,37.609,12.169
			c11,6.351,20.316,14.115,26.236,21.863c6.041,7.908,7.842,14.908,5.068,19.711C119.95,106.705,115.093,108.727,108.112,108.727z
			 M53.243,50.484c-6.473,0-10.927,1.788-12.881,5.172c-5.238,9.075,8.584,26.899,30.813,39.734
			c13.006,7.508,26.813,11.99,36.938,11.99c6.473,0,10.928-1.789,12.881-5.173c5.238-9.075-8.584-26.899-30.813-39.733
			C77.177,54.967,63.368,50.484,53.243,50.484z"/>
		<path fill="#FFFFFF" d="M53.243,108.727c-6.982,0-11.838-2.021-14.047-5.846c-2.771-4.803-0.971-11.802,5.07-19.71
			c5.919-7.748,15.236-15.513,26.236-21.863c13.199-7.62,27.258-12.17,37.609-12.17c6.98,0,11.838,2.021,14.045,5.846
			c2.773,4.802,0.973,11.802-5.068,19.71c-5.92,7.748-15.236,15.512-26.236,21.862C77.653,104.176,63.594,108.727,53.243,108.727z
			 M108.112,50.484c-10.125,0-23.934,4.482-36.938,11.99c-10.848,6.263-20.025,13.902-25.838,21.514
			c-5.69,7.449-7.457,13.919-4.975,18.22c1.954,3.384,6.408,5.173,12.881,5.173c10.125,0,23.934-4.483,36.938-11.991
			c22.229-12.835,36.051-30.659,30.813-39.733C119.04,52.272,114.585,50.484,108.112,50.484z"/>
		<path fill="#E44925" d="M80.677,87.899v-8.791l-7.611-4.396c-0.71,0.175-1.408,0.45-2.072,0.833
			c-3.794,2.189-5.092,7.039-2.903,10.831c2.19,3.791,7.038,5.091,10.83,2.901C79.585,88.893,80.171,88.426,80.677,87.899z"/>
		<path fill="#E44925" d="M88.29,74.712l-7.613,4.396v8.79c0.506,0.526,1.092,0.994,1.758,1.379c3.793,2.189,8.641,0.89,10.83-2.902
			c2.189-3.791,0.891-8.641-2.902-10.83C89.696,75.162,89.001,74.888,88.29,74.712z"/>
		<path fill="#F15726" d="M73.064,74.713l7.612,4.396l7.613-4.395c0.203-0.703,0.314-1.443,0.314-2.212
			c0-4.379-3.549-7.928-7.928-7.928c-4.378,0-7.928,3.549-7.928,7.928C72.749,73.271,72.86,74.011,73.064,74.713z"/>
		<ellipse fill="#CCCBCA" cx="80.677" cy="69.484" rx="3.019" ry="2.357"/>
		
			<ellipse transform="matrix(-0.3033 -0.9529 0.9529 -0.3033 14.9968 175.0356)" fill="#CCCBCA" cx="71.483" cy="82.036" rx="1.629" ry="1.451"/>
		<g>
			<circle fill="#252E3C" cx="109.947" cy="49.862" r="5.981"/>
			
				<ellipse transform="matrix(0.7073 -0.7069 0.7069 0.7073 -2.1414 90.0799)" fill="#CCCBCA" cx="107.712" cy="47.626" rx="2.281" ry="1.889"/>
		</g>
		<g>
			<circle fill="#252E3C" cx="41.386" cy="69.103" r="5.982"/>
			
				<ellipse transform="matrix(0.707 -0.7072 0.7072 0.707 -35.817 47.2801)" fill="#CCCBCA" cx="39.151" cy="66.866" rx="2.28" ry="1.889"/>
		</g>
		<g>
			<circle fill="#252E3C" cx="89.583" cy="121.053" r="5.982"/>
			
				<ellipse transform="matrix(0.7072 -0.707 0.707 0.7072 -58.4297 96.5437)" fill="#CCCBCA" cx="87.349" cy="118.818" rx="2.281" ry="1.889"/>
		</g>
	</g>
</g>
</svg>
