<?xml version="1.0" encoding="utf-8"?>
<!-- Generator: Adobe Illustrator 16.0.0, SVG Export Plug-In . SVG Version: 6.00 Build 0)  -->
<!DOCTYPE svg PUBLIC "-//W3C//DTD SVG 1.1//EN" "http://www.w3.org/Graphics/SVG/1.1/DTD/svg11.dtd">
<svg version="1.1" id="Layer_1" xmlns="http://www.w3.org/2000/svg" xmlns:xlink="http://www.w3.org/1999/xlink" x="0px" y="0px"
	 width="171px" height="168px" viewBox="0 0 171 168" enable-background="new 0 0 171 168" xml:space="preserve">
<g>
	<circle fill="#F36E41" cx="87" cy="84" r="77.5"/>
	<g>
		<path fill="#FFFFFF" d="M84.636,102.571v3.373c0,1.894-0.737,3.674-2.076,5.013c-1.339,1.34-3.12,2.077-5.014,2.077
			c-1.896,0-3.676-0.737-5.015-2.077c-1.34-1.339-2.077-3.119-2.077-5.013v-33.19c0-1.895,0.737-3.676,2.077-5.015
			c1.339-1.339,3.119-2.077,5.015-2.077h11.433v-8.904H77.546c-4.273,0-8.29,1.665-11.311,4.684
			c-3.022,3.021-4.686,7.041-4.686,11.313v33.19c0,4.272,1.663,8.289,4.685,11.311c3.021,3.021,7.038,4.684,11.312,4.684
			c4.271,0,8.288-1.663,11.31-4.684c3.021-3.021,4.687-7.038,4.687-11.311v-3.373H84.636z"/>
		<g>
			<g>
				<rect x="88.979" y="48.513" fill="#FFFFFF" width="16.49" height="25.396"/>
				<polygon fill="#252E3C" points="102.995,46.204 91.452,46.204 88.979,48.513 105.469,48.513 				"/>
				<rect x="91.452" y="37.958" fill="#FFFFFF" width="11.543" height="8.246"/>
				<rect x="88.979" y="34" fill="#252E3C" width="16.49" height="3.958"/>
			</g>
			<g>
				<g>
					<path fill="#FFFFFF" d="M112.449,88.411l-5.362,5.364l-7.148-7.148c-0.686-0.687-1.11-1.635-1.111-2.683
						c0.001-1.046,0.426-1.995,1.111-2.682l0,0c0.687-0.686,1.634-1.11,2.683-1.11c1.047,0,1.995,0.425,2.682,1.11L112.449,88.411z"
						/>
					<polygon fill="#252E3C" points="112.45,91.093 109.769,93.775 107.087,93.775 112.45,88.41 					"/>
				</g>
				<rect x="81.998" y="73.908" fill="#FFFFFF" width="30.452" height="3.224"/>
				<path fill="#252E3C" d="M84.78,77.132c0,6.872,5.573,12.444,12.444,12.444s12.443-5.572,12.443-12.444H84.78z"/>
				<g>
					<path fill="#FFFFFF" d="M101.126,94.001h-7.584V83.892c0-0.97,0.369-1.941,1.11-2.683c0.74-0.739,1.71-1.111,2.681-1.111l0,0
						c0.971,0,1.942,0.372,2.683,1.111c0.74,0.741,1.11,1.713,1.11,2.683V94.001z"/>
					<polygon fill="#252E3C" points="99.231,96.557 95.438,96.557 93.542,94.001 101.126,94.001 					"/>
				</g>
			</g>
		</g>
		<g>
			<circle fill="#252E3C" cx="88.979" cy="61.21" r="6.981"/>
			<circle fill="#FFFFFF" cx="88.979" cy="61.21" r="2.828"/>
		</g>
		<g>
			<rect x="81.998" y="99.347" fill="#252E3C" width="30.452" height="3.225"/>
			<circle fill="#252E3C" cx="89.088" cy="102.571" r="2.308"/>
		</g>
		<g>
			<path fill="#252E3C" d="M81.998,123.918h-8.905v-6.432c0-1.139,0.435-2.278,1.305-3.148c0.869-0.868,2.008-1.304,3.148-1.304l0,0
				c1.139,0,2.278,0.436,3.148,1.304c0.869,0.87,1.304,2.01,1.304,3.148V123.918z"/>
			<circle fill="#FFFFFF" cx="77.545" cy="117.486" r="1.979"/>
			<rect x="70.454" y="123.918" fill="#252E3C" width="14.182" height="1.648"/>
		</g>
		<g>
			<path fill="#FFFFFF" d="M58.893,125.566c-0.768,0-1.535,0.293-2.121,0.879s-0.879,1.354-0.879,2.121v3.785h62.215v-3.785
				c0-0.768-0.293-1.535-0.879-2.121s-1.354-0.879-2.121-0.879H58.893z"/>
			<rect x="55.893" y="132.352" fill="#252E3C" width="16.491" height="1.648"/>
			<rect x="101.616" y="132.352" fill="#252E3C" width="16.491" height="1.648"/>
		</g>
	</g>
</g>
</svg>
