<?xml version="1.0" encoding="utf-8"?>
<!-- Generator: Adobe Illustrator 16.0.0, SVG Export Plug-In . SVG Version: 6.00 Build 0)  -->
<!DOCTYPE svg PUBLIC "-//W3C//DTD SVG 1.1//EN" "http://www.w3.org/Graphics/SVG/1.1/DTD/svg11.dtd">
<svg version="1.1" id="Layer_1" xmlns="http://www.w3.org/2000/svg" xmlns:xlink="http://www.w3.org/1999/xlink" x="0px" y="0px"
	 width="157.484px" height="157.037px" viewBox="0 0 157.484 157.037" enable-background="new 0 0 157.484 157.037"
	 xml:space="preserve">
<g>
	<circle fill="#F2F2F2" cx="79.417" cy="79.034" r="77.5"/>
	<g>
		<g>
			<path fill="#F36E41" d="M59.421,43.06c-1.153-0.532-2.575-0.851-3.915-0.851c-4.95,0-8.967,4.014-8.967,8.966
				c0,0.858,0.123,1.719,0.347,2.507c-0.047-0.002-0.103-0.003-0.149-0.003c-4.953,0-8.97,4.014-8.97,8.966
				c0,2.384,0.93,4.55,2.45,6.155c-3.276,1.335-5.587,4.551-5.587,8.306c0,3.375,1.866,6.314,4.622,7.845
				c-1.298,1.555-2.083,3.552-2.083,5.737c0,4.951,4.017,8.968,8.967,8.968c0.184,0,0.364-0.007,0.541-0.021
				c0.001,0,0.001,0,0.001,0c-0.337,0.947-0.542,2.012-0.542,3.076c0,4.955,4.016,8.971,8.971,8.971
				c1.517,0,2.987-0.406,4.241-1.072c0,0.003,0,0.005,0.001,0.007c0.44,4.528,4.157,8.063,8.923,8.063
				c1.601,0,2.632-0.502,3.548-0.502c2.081,0,3.155,1.736,3.155,3.575v4.778h2.264V44.503c0-4.953-4.013-8.969-8.967-8.969
				C63.813,35.534,60.11,38.793,59.421,43.06z"/>
			<g>
				<path fill="#E44925" d="M55.106,112.772c-5.547,0-10.06-4.513-10.06-10.06c0-1.178,0.204-2.338,0.605-3.446
					c0.205-0.564,0.827-0.857,1.396-0.652c0.564,0.205,0.856,0.828,0.652,1.395c-0.315,0.871-0.477,1.781-0.477,2.705
					c0,4.346,3.535,7.881,7.882,7.881c1.305,0,2.592-0.322,3.729-0.936c0.527-0.286,1.188-0.088,1.475,0.441
					c0.286,0.528,0.088,1.188-0.44,1.475C58.416,112.358,56.77,112.772,55.106,112.772z"/>
				<path fill="#E44925" d="M46.136,100.745c-5.545,0-10.056-4.51-10.056-10.055c0-2.346,0.83-4.631,2.336-6.437
					c0.385-0.461,1.069-0.524,1.533-0.139c0.462,0.385,0.522,1.071,0.139,1.532c-1.181,1.416-1.83,3.205-1.83,5.041
					c0,4.345,3.534,7.879,7.878,7.879c0.156,0,0.31-0.006,0.46-0.018c4.17-0.244,7.422-3.695,7.422-7.861
					c0-0.601,0.487-1.088,1.089-1.088c0.603,0,1.089,0.487,1.089,1.088c0,5.316-4.152,9.725-9.454,10.035
					C46.555,100.737,46.347,100.745,46.136,100.745z"/>
				<path fill="#E44925" d="M68.429,91.778c-0.602,0-1.089-0.487-1.089-1.088c0-3.073-2.499-5.573-5.571-5.573
					c-3.073,0-5.573,2.5-5.573,5.573c0,0.601-0.486,1.088-1.089,1.088c-0.602,0-1.089-0.487-1.089-1.088
					c0-4.274,3.479-7.75,7.751-7.75s7.749,3.476,7.749,7.75C69.518,91.291,69.03,91.778,68.429,91.778z"/>
				<path fill="#E44925" d="M43.598,87.165c-5.545,0-10.057-4.512-10.057-10.057c0-5.545,4.512-10.056,10.057-10.056
					s10.056,4.511,10.056,10.056c0,0.601-0.486,1.088-1.089,1.088c-0.602,0-1.089-0.487-1.089-1.088
					c0-4.345-3.534-7.879-7.878-7.879c-4.345,0-7.879,3.535-7.879,7.879c0,4.345,3.534,7.879,7.879,7.879
					c0.603,0,1.089,0.488,1.089,1.089S44.199,87.165,43.598,87.165z"/>
				<path fill="#E44925" d="M40.219,69.892c-0.288,0-0.576-0.114-0.79-0.339c-1.773-1.871-2.751-4.324-2.751-6.906
					c0-5.544,4.513-10.055,10.059-10.055c0.073,0,0.157,0,0.231,0.005c4.78,0.079,8.867,3.258,9.455,7.392
					c0.403,2.851,2.286,5.726,5.582,5.726c0.602,0,1.089,0.487,1.089,1.088c0,0.601-0.487,1.088-1.089,1.088
					c-3.985,0-7.095-3.053-7.738-7.597c-0.479-3.387-4.135-5.468-7.389-5.523l-0.143-0.003c-4.346,0-7.881,3.534-7.881,7.878
					c0,2.022,0.766,3.943,2.153,5.408c0.414,0.437,0.396,1.125-0.041,1.539C40.757,69.793,40.487,69.892,40.219,69.892z"/>
				<path fill="#E44925" d="M46.896,54.772c-0.471,0-0.904-0.309-1.044-0.784c-0.267-0.912-0.4-1.858-0.4-2.813
					c0-5.544,4.511-10.055,10.056-10.055c1.538,0,3.013,0.338,4.383,1.006c0.54,0.264,0.765,0.915,0.501,1.456
					c-0.263,0.541-0.912,0.765-1.456,0.501c-1.068-0.522-2.223-0.787-3.428-0.787c-4.344,0-7.878,3.534-7.878,7.878
					c0,0.748,0.104,1.489,0.313,2.203c0.168,0.577-0.163,1.181-0.739,1.35C47.1,54.758,46.997,54.772,46.896,54.772z"/>
				<path fill="#E44925" d="M77.239,127.622h-2.264c-0.602,0-1.089-0.486-1.089-1.088v-4.778c0-1.147-0.541-2.485-2.066-2.485
					c-0.273,0-0.633,0.08-1.047,0.172c-0.654,0.146-1.47,0.328-2.501,0.328c-5.641,0-10.059-4.418-10.059-10.058
					c0-5.546,4.513-10.057,10.059-10.057c0.603,0,1.089,0.487,1.089,1.089s-0.486,1.088-1.089,1.088
					c-4.346,0-7.881,3.535-7.881,7.88c0,4.419,3.462,7.882,7.881,7.882c0.79,0,1.418-0.141,2.025-0.277
					c0.519-0.114,1.008-0.225,1.521-0.225c2.786,0,4.245,2.346,4.245,4.663v3.69h0.087V44.503c0-4.345-3.534-7.881-7.879-7.881
					c-4.346,0-7.881,3.536-7.881,7.881c0,4.344,3.535,7.878,7.881,7.878c0.603,0,1.089,0.487,1.089,1.088
					c0,0.601-0.486,1.088-1.089,1.088c-5.546,0-10.059-4.51-10.059-10.055c0-5.546,4.513-10.058,10.059-10.058
					c5.545,0,10.058,4.512,10.058,10.058v82.031C78.329,127.136,77.84,127.622,77.239,127.622z"/>
			</g>
		</g>
		<g>
			<path fill="#F36E41" d="M99.412,43.06c1.153-0.532,2.575-0.851,3.916-0.851c4.948,0,8.967,4.014,8.967,8.966
				c0,0.858-0.123,1.719-0.349,2.507c0.048-0.002,0.104-0.003,0.15-0.003c4.953,0,8.969,4.014,8.969,8.966
				c0,2.384-0.93,4.55-2.448,6.155c3.274,1.335,5.586,4.551,5.586,8.306c0,3.375-1.865,6.314-4.621,7.845
				c1.297,1.555,2.082,3.552,2.082,5.737c0,4.951-4.017,8.968-8.968,8.968c-0.184,0-0.362-0.007-0.541-0.021c0,0,0,0-0.002,0
				c0.339,0.947,0.543,2.012,0.543,3.076c0,4.955-4.016,8.971-8.971,8.971c-1.514,0-2.988-0.406-4.24-1.072
				c0,0.003-0.002,0.005-0.002,0.007c-0.438,4.528-4.155,8.063-8.922,8.063c-1.6,0-2.633-0.502-3.549-0.502
				c-2.08,0-3.154,1.736-3.154,3.575v4.778h-2.264V44.503c0-4.953,4.012-8.969,8.967-8.969
				C95.021,35.534,98.723,38.793,99.412,43.06z"/>
			<g>
				<path fill="#E44925" d="M103.727,112.772c-1.662,0-3.309-0.414-4.762-1.197c-0.529-0.285-0.728-0.945-0.441-1.475
					c0.286-0.531,0.947-0.729,1.476-0.441c1.137,0.611,2.426,0.936,3.729,0.936c4.349,0,7.883-3.535,7.883-7.881
					c0-0.924-0.159-1.834-0.477-2.705c-0.205-0.564,0.088-1.189,0.652-1.395c0.565-0.205,1.19,0.088,1.395,0.652
					c0.402,1.108,0.607,2.27,0.607,3.446C113.787,108.261,109.273,112.772,103.727,112.772z"/>
				<path fill="#E44925" d="M112.697,100.745c-0.211,0-0.418-0.008-0.62-0.021c-5.285-0.31-9.438-4.717-9.438-10.033
					c0-0.601,0.486-1.088,1.088-1.088c0.603,0,1.09,0.487,1.09,1.088c0,4.166,3.252,7.617,7.404,7.86
					c0.168,0.013,0.32,0.019,0.477,0.019c4.345,0,7.88-3.534,7.88-7.879c0-1.836-0.65-3.625-1.83-5.041
					c-0.386-0.461-0.324-1.147,0.139-1.532c0.461-0.388,1.148-0.322,1.533,0.139c1.506,1.806,2.336,4.091,2.336,6.437
					C122.754,96.235,118.242,100.745,112.697,100.745z"/>
				<path fill="#E44925" d="M103.727,91.778c-0.602,0-1.09-0.487-1.09-1.088c0-3.073-2.5-5.573-5.572-5.573
					c-3.071,0-5.569,2.5-5.569,5.573c0,0.601-0.488,1.088-1.091,1.088c-0.602,0-1.088-0.487-1.088-1.088
					c0-4.274,3.478-7.75,7.748-7.75c4.273,0,7.75,3.476,7.75,7.75C104.814,91.291,104.328,91.778,103.727,91.778z"/>
				<path fill="#E44925" d="M115.236,87.165c-0.602,0-1.09-0.487-1.09-1.088c0-0.602,0.488-1.088,1.09-1.088
					c4.345,0,7.88-3.535,7.88-7.88c0-4.345-3.535-7.879-7.88-7.879c-4.346,0-7.879,3.535-7.879,7.879
					c0,0.601-0.487,1.088-1.09,1.088c-0.602,0-1.088-0.487-1.088-1.088c0-5.545,4.512-10.056,10.057-10.056
					s10.058,4.511,10.058,10.056C125.293,82.653,120.781,87.165,115.236,87.165z"/>
				<path fill="#E44925" d="M118.615,69.892c-0.271,0-0.539-0.099-0.75-0.298c-0.437-0.414-0.455-1.103-0.041-1.539
					c1.389-1.465,2.153-3.386,2.153-5.408c0-4.344-3.535-7.878-7.881-7.878c-0.018,0.001-0.125,0.003-0.143,0.003
					c-3.254,0.055-6.908,2.136-7.39,5.523c-0.645,4.543-3.754,7.596-7.737,7.596c-0.603,0-1.091-0.487-1.091-1.088
					c0-0.601,0.488-1.088,1.091-1.088c3.295,0,5.178-2.876,5.582-5.726c0.588-4.134,4.676-7.313,9.508-7.394
					c0.022-0.003,0.104-0.003,0.18-0.003c5.545,0,10.059,4.51,10.059,10.055c0,2.583-0.979,5.035-2.752,6.906
					C119.191,69.778,118.902,69.892,118.615,69.892z"/>
				<path fill="#E44925" d="M111.938,54.772c-0.102,0-0.205-0.014-0.307-0.044c-0.576-0.168-0.908-0.772-0.74-1.35
					c0.209-0.716,0.314-1.458,0.314-2.203c0-4.344-3.533-7.878-7.877-7.878c-1.205,0-2.359,0.265-3.431,0.787
					c-0.541,0.262-1.192,0.039-1.455-0.502c-0.264-0.54-0.039-1.192,0.502-1.455c1.371-0.668,2.847-1.006,4.384-1.006
					c5.545,0,10.055,4.51,10.055,10.055c0,0.952-0.135,1.898-0.402,2.813C112.842,54.463,112.408,54.772,111.938,54.772z"/>
				<path fill="#E44925" d="M83.859,127.622h-2.264c-0.602,0-1.087-0.486-1.087-1.088V44.503c0-5.546,4.509-10.058,10.054-10.058
					s10.06,4.512,10.06,10.058c0,5.544-4.515,10.055-10.06,10.055c-0.602,0-1.09-0.487-1.09-1.088c0-0.601,0.488-1.088,1.09-1.088
					c4.347,0,7.881-3.534,7.881-7.878c0-4.345-3.534-7.881-7.881-7.881c-4.344,0-7.877,3.536-7.877,7.881v80.943h0.084v-3.69
					c0-2.316,1.459-4.663,4.244-4.663c0.516,0,1.004,0.109,1.523,0.226c0.606,0.137,1.233,0.277,2.024,0.277
					c4.418,0,7.881-3.464,7.881-7.883c0-4.345-3.534-7.88-7.881-7.88c-0.602,0-1.09-0.487-1.09-1.088
					c0-0.603,0.488-1.089,1.09-1.089c5.545,0,10.06,4.511,10.06,10.057c0,5.641-4.418,10.059-10.06,10.059
					c-1.031,0-1.846-0.183-2.502-0.328c-0.414-0.094-0.771-0.174-1.047-0.174c-1.525,0-2.066,1.34-2.066,2.486v4.778
					C84.947,127.136,84.461,127.622,83.859,127.622z"/>
			</g>
		</g>
	</g>
</g>
</svg>
