<?xml version="1.0" encoding="utf-8"?>
<!-- Generator: Adobe Illustrator 16.0.0, SVG Export Plug-In . SVG Version: 6.00 Build 0)  -->
<!DOCTYPE svg PUBLIC "-//W3C//DTD SVG 1.1//EN" "http://www.w3.org/Graphics/SVG/1.1/DTD/svg11.dtd">
<svg version="1.1" id="Layer_1" xmlns="http://www.w3.org/2000/svg" xmlns:xlink="http://www.w3.org/1999/xlink" x="0px" y="0px"
	 width="364.586px" height="364.586px" viewBox="0 0 364.586 364.586" enable-background="new 0 0 364.586 364.586"
	 xml:space="preserve">
<g>
	<rect fill="#DC472E" width="364.586" height="364.586"/>
	<path fill="#FFFFFF" d="M207.52,57.926c24.555,23.941,27.359,65.543-1.91,90.238c-5.785,4.879-11.273,10.121-16.848,15.258
		c-5.43,5-6.883,15.41-1.766,21.957c3.699,4.731,21.746,18.91,31.523,27.059c9.285,7.734,16.441,17.277,19.219,29.255
		c5.605,24.175-1.992,44.409-19.777,61c-13.719,12.808-30.457,19.922-48.656,23.44c-25.215,4.887-50.282,4.695-74.75-4.272
		c-9.754-3.567-18.586-8.743-25.731-16.375c-17.758-18.946-15.953-44.418-0.597-63.778c10.652-13.429,25.773-20.238,41.902-24.918
		c12.664-3.679,25.609-5.547,38.676-6.684c2.047-0.18,7.652-0.637,9.226-0.805c-10.086-11.785-14.75-24.312-7.621-39.359
		c-5.992,0-11.41,0.222-16.793-0.036c-29.672-1.406-52.929-21.437-57.558-50.429c-3.45-21.571,3.644-40.258,18.414-55.961
		c13.609-14.465,30.816-22.129,50.359-24.289c11.227-1.231,23.313-2.024,33.84-2.024c0,0,67.527-0.086,69.074-0.086l-14.918,13.504
		h-33.332C199.496,50.621,205.543,55.996,207.52,57.926L207.52,57.926z M110.711,101.227c1.562,15.625,6.937,30.015,17.066,42.32
		c8.559,10.395,19.121,16.098,33.078,14.891c14.008-1.211,27.211-11.992,29.84-25.426c0.195-0.981,0.352-1.969,0.488-2.969
		c0.973-7.054,0.863-14.219-0.086-21.277c-0.262-1.949-0.566-3.91-0.961-5.856c-3.48-17.05-10.168-32.488-23.594-44.257
		c-19.277-16.903-50.301-6.711-55.07,18.449C109.984,84.934,109.922,93.278,110.711,101.227L110.711,101.227z M116.023,303.739
		c7.082,3.604,14.469,5.815,22.071,7.14c9.218,1.606,18.633,1.738,27.937,0.762c3.758-0.395,16.958-3.633,21.356-5.909
		c29.707-15.384,34.375-40.871,14.461-60.153c-8.156-7.895-20.77-17.332-29.848-24.242l-4.711-0.14
		c-5.848,0-11.711,0.214-17.535,0.718c-12.801,1.09-25.211,3.785-36.77,9.648C95,240.692,86.672,258.981,92.281,277.59
		C96.016,289.996,104.863,298.051,116.023,303.739L116.023,303.739z M116.023,303.739"/>
	<path fill="#FFFFFF" d="M318.059,160.453h-29.211v-29.211h-18.543v29.211h-29.207v18.543h29.207v29.211h18.543v-29.211h29.211
		V160.453z M318.059,160.453"/>
</g>
</svg>
