<?xml version="1.0" encoding="utf-8"?>
<!-- Generator: Adobe Illustrator 16.0.0, SVG Export Plug-In . SVG Version: 6.00 Build 0)  -->
<!DOCTYPE svg PUBLIC "-//W3C//DTD SVG 1.1//EN" "http://www.w3.org/Graphics/SVG/1.1/DTD/svg11.dtd">
<svg version="1.1" id="Layer_1" xmlns="http://www.w3.org/2000/svg" xmlns:xlink="http://www.w3.org/1999/xlink" x="0px" y="0px"
	 width="364.586px" height="364.586px" viewBox="0 0 364.586 364.586" enable-background="new 0 0 364.586 364.586"
	 xml:space="preserve">
<g>
	<rect fill="#50ABF1" width="364.586" height="364.586"/>
	<path fill="#FFFFFF" d="M48.301,270.258c24.265,15.387,53.047,24.293,83.902,24.293c86.676,0,156.941-70.272,156.941-156.941
		c0-2.164-0.043-4.313-0.129-6.454c3.137-2.468,22.527-18.011,27.281-28c0,0-15.75,6.543-31.16,8.083
		c-0.031,0-0.066,0.007-0.098,0.007c0,0,0.031-0.015,0.082-0.05c1.422-0.95,21.273-14.465,23.961-30.567
		c0,0-11.137,5.945-26.73,11.145c-2.582,0.859-5.285,1.703-8.07,2.484c-10.051-10.73-24.34-17.426-40.199-17.426
		c-30.422,0-55.074,24.645-55.074,55.043c0,4.289,0.492,8.465,1.426,12.473c-4.25-0.172-68.989-3.805-113.032-57.137
		c0,0-26.32,35.934,15.688,72.883c0,0-12.77-0.508-23.785-7.09c0,0-4.047,43.531,43.523,54.664c0,0-9.359,3.543-24.293,1.016
		c0,0,8.352,35.177,50.617,38.461c0,0-33.422,30.191-80.867,23.109L48.301,270.258z M48.301,270.258"/>
</g>
</svg>
