<?xml version="1.0" encoding="utf-8"?>
<!-- Generator: Adobe Illustrator 16.0.0, SVG Export Plug-In . SVG Version: 6.00 Build 0)  -->
<!DOCTYPE svg PUBLIC "-//W3C//DTD SVG 1.1//EN" "http://www.w3.org/Graphics/SVG/1.1/DTD/svg11.dtd">
<svg version="1.1" id="Layer_1" xmlns="http://www.w3.org/2000/svg" xmlns:xlink="http://www.w3.org/1999/xlink" x="0px" y="0px"
	 width="255.118px" height="255.118px" viewBox="0 0 255.118 255.118" enable-background="new 0 0 255.118 255.118"
	 xml:space="preserve">
<g>
	<path fill-rule="evenodd" clip-rule="evenodd" fill="#FECA00" d="M4.377,136.561c0-2.385,0-4.768,0-7.152
		c0.271-2.13,0.163-4.304,0.754-6.397c0.219-0.776,0.266-1.624,0.9-2.235c0.524-0.112,0.509,0.312,0.615,0.617
		c-0.1,3.761,0.326,7.457,1.662,10.992c3.675,9.73,10.587,15.854,20.668,18.4c0.516,0.131,1.041,0.227,1.562,0.334
		c1.61,0.965,3,2.248,4.688,3.113c2.983,1.529,6.092,2.574,9.448,2.828c1.233,0.199,2.467,0.182,3.7,0.01
		c6.076-0.568,11.296-2.98,15.664-7.246c0.279-0.273,0.563-0.633,1.056-0.439c0.333,0.568,0.079,1.137-0.046,1.678
		c-1.01,4.354-2.936,8.275-5.752,11.738c-4.593,5.646-10.538,9.045-17.663,10.4c-2.431,0.463-4.897,0.482-7.364,0.418
		c-1.566-0.203-3.006-0.818-4.425-1.447c-10.732-4.771-18.345-12.613-22.799-23.465c-1.545-3.764-2.646-7.674-2.543-11.816
		C4.506,136.764,4.461,136.655,4.377,136.561z"/>
	<path fill-rule="evenodd" clip-rule="evenodd" fill="#B4BEDA" d="M44.308,90.668c0.02-0.072,0.025-0.145,0.016-0.218
		c1.562,0,3.123,0,4.685,0c0.005,0.068,0.011,0.138,0.02,0.206C47.456,91.343,45.883,91.322,44.308,90.668z"/>
	<path fill-rule="evenodd" clip-rule="evenodd" fill="#2A245B" d="M59.616,92.65c5.308,1.545,10.005,4.229,14.227,7.75
		c4.357,3.631,7.938,7.909,10.44,13.037c-0.548-0.003-0.55,0-0.902-0.346c-1.112-1.094-2.168-2.24-3.398-3.216
		c-4.842-3.837-10.277-6.02-16.501-6.311c-6.197-0.29-11.866,1.202-17.063,4.547c-0.638,0.41-1.314,0.658-2.046,0.793
		c-4.639,0.636-8.885,2.229-12.591,5.152c-0.68,0.535-1.269,1.16-1.896,1.749c-0.414,0.389-0.792,0.849-1.438,0.855
		c-0.64-0.52-0.248-1.159-0.121-1.7c1.153-4.886,3.322-9.288,6.678-13.022c4.663-5.188,10.448-8.445,17.391-9.45
		C54.789,92.145,57.218,92.203,59.616,92.65z"/>
	<path fill-rule="evenodd" clip-rule="evenodd" fill="#E3261F" d="M87.016,145.93c-1.339,4.719-3.674,8.932-6.642,12.799
		c-3.878,5.053-8.607,9.104-14.36,11.908c-0.155-0.582,0.339-0.783,0.651-1.07c5.089-4.67,8.283-10.393,9.274-17.229
		c0.937-6.463-0.258-12.584-3.496-18.279c-0.446-0.785-0.908-1.563-1.402-2.318c-0.209-0.359-0.341-0.746-0.374-1.16
		c-0.462-5.814-3.003-10.644-6.993-14.793c-0.323-0.335-0.797-0.63-0.615-1.233c0.542-0.382,1.106-0.177,1.658-0.045
		c11.865,2.821,20.726,12.406,22.477,24.474C87.527,141.27,87.6,143.627,87.016,145.93z"/>
	<path fill-rule="evenodd" clip-rule="evenodd" fill="#EF8700" d="M71.213,131.622c2.399,3.057,3.813,6.576,4.647,10.318
		c1.63,7.309,0.501,14.234-3.186,20.732c-1.629,2.871-3.71,5.395-6.275,7.498c-0.153,0.125-0.258,0.309-0.385,0.467
		c-4.391,2.416-9.126,3.732-14.067,4.371c-1.215,0.158-2.445,0.203-3.668,0.301c-4.365,0.047-8.682-0.322-12.896-1.541
		c-0.42-0.121-0.822-0.305-1.233-0.461c4.2,0.131,8.343-0.207,12.297-1.748c9.784-3.811,15.959-10.791,18.363-21.053
		c0.092-0.395,0.291-0.773,0.184-1.199c-0.216-0.535,0.187-0.836,0.458-1.178c3.479-4.396,5.272-9.4,5.421-15
		C70.887,132.61,70.764,132.047,71.213,131.622z"/>
	<path fill-rule="evenodd" clip-rule="evenodd" fill="#911C70" d="M87.016,145.93c0.087-3.387,0.181-6.777-0.775-10.082
		c-3.004-10.389-9.614-17.28-19.959-20.535c-1.09-0.344-2.167-0.76-3.344-0.692c-0.509,0.095-0.845-0.228-1.202-0.5
		c-3.976-3.027-8.381-4.911-13.439-5.13c-0.938-0.04-1.861-0.193-2.805-0.017c-0.388,0.073-0.83,0.079-1.101-0.341
		c0.86-0.16,1.557-0.635,2.288-1.085c4.191-2.581,8.721-4.064,13.67-4.306c9.572-0.467,17.414,3.023,23.708,10.166
		c0.038,0.043,0.149,0.02,0.227,0.028c2.318,4.076,3.641,8.495,4.346,13.091c0.983,6.419,0.516,12.755-1.4,18.972
		C87.182,145.651,87.087,145.788,87.016,145.93z"/>
	<path fill-rule="evenodd" clip-rule="evenodd" fill="#314D9A" d="M59.616,92.65c-3.385,0.068-6.763-0.152-10.12,0.729
		c-10.896,2.86-19.044,11.87-21.122,22.892c-0.019,0.097,0.079,0.217,0.123,0.326c0.174,0.68-0.351,1.061-0.685,1.485
		c-3.398,4.316-5.103,9.213-5.108,14.705c0,0.525,0.083,1.076-0.265,1.547c-0.77,0.146-0.965-0.518-1.248-0.959
		c-1.924-3.004-3.28-6.253-3.976-9.755c-1.744-8.771,0.229-16.706,5.537-23.832c1.275-1.713,2.82-3.204,4.606-4.411
		c3.793-2.197,7.928-3.41,12.207-4.168c1.563-0.277,3.16-0.367,4.742-0.541c1.574-0.004,3.146-0.008,4.72-0.012
		C52.637,90.895,56.197,91.4,59.616,92.65z"/>
	<path fill-rule="evenodd" clip-rule="evenodd" fill="#1D1D1B" d="M150.706,126.925c3.268-3.757,9.057-3.84,11.676,0.675
		c1.623-2.16,3.654-3.488,6.463-3.421c2.838,0.067,5.037,1.491,6.107,4.136c0.512,1.264,0.791,2.588,0.793,3.955
		c0.008,3.941-0.025,7.885,0.025,11.826c0.01,0.883-0.242,1.162-1.098,1.063c-1.008-0.119-2.33,0.43-2.961-0.211
		c-0.629-0.639-0.162-1.951-0.189-2.967c-0.09-3.363,0.23-6.742-0.156-10.09c-0.334-2.875-1.74-4.176-3.988-4.028
		c-2.166,0.141-3.877,2.067-3.939,4.586c-0.064,2.586-0.018,5.174-0.02,7.762c0,1.395-0.025,2.791,0.012,4.188
		c0.016,0.596-0.191,0.738-0.771,0.766c-3.473,0.158-3.471,0.176-3.471-3.24c0-2.998-0.006-5.996,0.002-8.994
		c0.002-0.912-0.121-1.799-0.439-2.652c-0.895-2.402-3.418-3.211-5.498-1.719c-1.418,1.018-2.158,2.441-2.16,4.205
		c-0.006,3.779-0.031,7.559,0.02,11.336c0.012,0.883-0.248,1.158-1.1,1.059c-1.008-0.119-2.33,0.43-2.961-0.213
		c-0.625-0.641-0.172-1.953-0.186-2.969c-0.07-5.498,0.15-11.002-0.205-16.496c-0.049-0.732,0.172-0.973,0.861-0.882
		c0.203,0.025,0.41,0.004,0.615,0.004C150.446,124.603,150.446,124.603,150.706,126.925z"/>
	<path fill-rule="evenodd" clip-rule="evenodd" fill="#1D1D1B" d="M138.762,118.841c0,1.625,0.072,3.148-0.027,4.66
		c-0.064,0.983,0.295,1.174,1.17,1.115c1.105-0.073,2.219,0.001,3.328-0.025c0.518-0.013,0.686,0.147,0.723,0.69
		c0.189,2.775,0.209,2.774-2.578,2.774c-2.615,0-2.615,0-2.615,2.582c0,2.426-0.002,4.85,0,7.275c0,0.369-0.004,0.738,0.023,1.107
		c0.166,2.229,0.938,2.902,3.129,2.754c1.66-0.111,1.66-0.111,1.738,1.564c0.08,1.764,0.031,1.879-1.693,2.053
		c-1.676,0.17-3.377,0.297-4.912-0.646c-1.844-1.135-2.422-2.951-2.461-4.953c-0.07-3.533-0.078-7.066-0.033-10.6
		c0.012-0.939-0.256-1.276-1.172-1.146c-0.361,0.052-0.74-0.016-1.107,0.015c-0.57,0.047-0.859-0.152-0.791-0.759
		c0.021-0.203,0.004-0.411,0.002-0.616c-0.002-2.039-0.002-2.086,2.043-2.064c0.842,0.009,1.02-0.273,1.025-1.057
		c0.008-1.215-0.547-2.772,0.246-3.556c0.758-0.751,2.277-0.733,3.463-1.052C138.379,118.926,138.499,118.901,138.762,118.841z"/>
	<path fill-rule="evenodd" clip-rule="evenodd" fill="#1D1D1B" d="M249.819,128.879c-1.805-0.972-3.598-1.233-5.477-0.987
		c-2.309,0.301-3.949,1.524-4.852,3.663c-0.881,2.088-0.924,4.234-0.121,6.357c1.229,3.254,4.545,4.713,8.348,3.715
		c0.158-0.041,0.311-0.113,0.471-0.135c0.619-0.09,1.463-0.869,1.715-0.445c0.496,0.84,0.576,1.938,0.785,2.938
		c0.059,0.281-0.252,0.371-0.467,0.492c-4.32,2.418-11.293,1.008-13.912-3.004c-2.488-3.809-2.592-7.924-0.518-11.926
		c2.023-3.905,5.58-5.341,9.816-5.35c1.529-0.003,3.01,0.294,4.457,0.795c0.639,0.221,0.801,0.584,0.586,1.211
		C250.362,127.052,250.116,127.918,249.819,128.879z"/>
	<path fill-rule="evenodd" clip-rule="evenodd" fill="#1D1D1B" d="M205.583,118.829c0,1.658,0.047,3.256-0.018,4.849
		c-0.033,0.789,0.238,0.978,0.975,0.939c1.146-0.057,2.297-0.001,3.447-0.02c0.498-0.008,0.701,0.136,0.75,0.689
		c0.234,2.766,0.254,2.765-2.49,2.765c-2.664,0-2.664,0-2.664,2.666c0,2.545-0.006,5.088,0.004,7.633
		c0.01,3.014,0.963,3.857,3.922,3.32c0.697-0.127,0.881-0.004,0.879,0.625c0,0.123-0.002,0.248,0.008,0.369
		c0.219,2.559,0.092,2.699-2.535,2.811c-4.307,0.18-6.348-1.643-6.471-5.965c-0.098-3.486-0.049-6.977-0.023-10.465
		c0.006-0.707-0.113-1.009-0.922-1.017c-2.293-0.021-2.266-0.062-2.232-2.506c0.01-0.671,0.16-0.923,0.885-0.938
		c2.256-0.049,2.256-0.083,2.256-2.338c0-2.324,0-2.325,2.246-2.92C204.227,119.159,204.858,119.01,205.583,118.829z"/>
	<path fill-rule="evenodd" clip-rule="evenodd" fill="#1D1D1B" d="M128.858,130.27c-0.002,4.6-0.023,9.199,0.018,13.799
		c0.008,0.855-0.209,1.172-1.088,1.094c-1.054-0.09-2.434,0.326-3.093-0.201c-0.703-0.563-0.221-1.996-0.223-3.047
		c-0.02-8.459,0.005-16.918-0.034-25.378c-0.004-0.95,0.213-1.322,1.194-1.193c1.041,0.137,2.443-0.451,3.048,0.252
		c0.514,0.598,0.172,1.951,0.174,2.971C128.862,122.468,128.858,126.369,128.858,130.27z"/>
	<path fill-rule="evenodd" clip-rule="evenodd" fill="#1D1D1B" d="M217.465,127.346c1.475-2.154,3.232-3.302,5.689-3.168
		c0.723,0.039,1.033,0.256,0.977,1.02c-0.061,0.817-0.033,1.644-0.008,2.464c0.016,0.529-0.027,0.789-0.723,0.73
		c-2.91-0.248-4.617,1.09-5.266,3.957c-0.369,1.631-0.191,3.273-0.215,4.912c-0.033,2.301-0.047,4.602,0.012,6.902
		c0.021,0.836-0.254,1.072-1.039,0.996c-1.051-0.104-2.424,0.436-3.082-0.211c-0.666-0.656-0.195-2.031-0.207-3.09
		c-0.072-5.463,0.125-10.926-0.141-16.386c-0.035-0.723,0.207-0.973,0.893-0.876c0.162,0.021,0.328,0.002,0.492,0.002
		C217.286,124.597,217.286,124.597,217.465,127.346z"/>
	<path fill-rule="evenodd" clip-rule="evenodd" fill="#1D1D1B" d="M231.02,134.963c0,3.078-0.021,6.154,0.018,9.232
		c0.01,0.74-0.172,1.031-0.953,0.967c-1.055-0.086-2.424,0.32-3.094-0.205c-0.713-0.563-0.225-1.992-0.23-3.039
		c-0.023-5.416,0.008-10.832-0.031-16.248c-0.006-0.853,0.205-1.161,1.08-1.084c1.016,0.09,2.383-0.335,2.975,0.181
		c0.697,0.604,0.211,2.004,0.227,3.057C231.045,130.204,231.02,132.584,231.02,134.963z"/>
	<path fill-rule="evenodd" clip-rule="evenodd" fill="#1E1E1C" d="M231.473,119.469c-0.008,1.435-1.125,2.524-2.602,2.541
		c-1.504,0.018-2.605-1.125-2.576-2.671c0.029-1.458,1.129-2.533,2.598-2.538C230.422,116.796,231.483,117.895,231.473,119.469z"/>
	<path fill-rule="evenodd" clip-rule="evenodd" fill="#FEFEFE" d="M22.339,134.346c-0.325-6.74,1.903-12.596,6.158-17.749
		c2.097-2.012,4.276-3.903,6.888-5.255c2.839-1.469,5.837-2.356,9.005-2.709c5.936-0.486,11.381,0.9,16.297,4.282
		c0.775,0.533,1.502,1.136,2.25,1.705c4.193,3.917,6.943,8.633,7.908,14.329c0.15,0.887,0.247,1.781,0.368,2.672
		c0.1,5.355-1.113,10.35-4.125,14.836c-0.657,0.979-1.394,1.902-2.095,2.85c-2.82,2.852-5.979,5.188-9.791,6.57
		c-2.169,0.787-4.394,1.266-6.688,1.445c-1.344,0.092-2.687,0.156-4.028-0.033c-5.337-0.344-9.925-2.432-13.891-5.967
		c-1.184-0.414-1.92-1.389-2.664-2.285c-3.266-3.928-5.249-8.432-5.813-13.531C22.075,135.1,22.02,134.686,22.339,134.346z"/>
	<path fill-rule="evenodd" clip-rule="evenodd" fill="#3EB8EA" d="M22.339,134.346c0.488,6.76,3.277,12.4,8.257,16.977
		c-2.481-0.123-4.787-0.934-7.015-1.93c-2.76-1.234-5.251-2.881-7.531-4.912c-4.973-4.436-7.995-9.896-9.252-16.412
		c-0.428-2.215-0.523-4.425-0.427-6.662c0.212-0.587-0.084-1.226,0.185-1.807c3.595-10.658,10.413-18.605,20.232-24.02
		c0.174-0.096,0.378-0.136,0.57-0.202c-1.993,2.112-4.136,4.072-5.751,6.542c-6.255,9.575-6.216,22.438,0.181,31.779
		C21.948,133.932,22.155,134.131,22.339,134.346z"/>
	<path fill-rule="evenodd" clip-rule="evenodd" fill="#C7DC75" d="M44.487,157.29c1.343,0.01,2.685,0.021,4.028,0.033
		C47.169,157.706,45.826,157.735,44.487,157.29z"/>
	<path fill-rule="evenodd" clip-rule="evenodd" fill="#C7DC75" d="M6.557,119.601c-0.01,0.609,0.154,1.235-0.185,1.809
		c-0.084-0.176-0.167-0.351-0.251-0.523C6.166,120.425,6.257,119.978,6.557,119.601z"/>
	<path fill-rule="evenodd" clip-rule="evenodd" fill="#1D1D1B" d="M121.561,143.903c-2.659-7.826-5.316-15.65-7.986-23.472
		c-0.407-1.194-0.553-2.831-1.403-3.421c-0.865-0.6-2.455-0.112-3.723-0.193c-0.752-0.048-1.041,0.235-1.271,0.926
		c-2.692,8.032-5.419,16.053-8.138,24.077c-0.352,1.039-1.318,2.385-0.84,3.059c0.563,0.795,2.122,0.127,3.233,0.281
		c0.797,0.111,1.055-0.305,1.265-0.969c0.726-2.303,1.53-4.578,2.237-6.887c0.208-0.678,0.521-0.891,1.212-0.879
		c2.463,0.037,4.928,0.043,7.391-0.004c0.708-0.014,1.004,0.234,1.211,0.885c0.749,2.336,1.55,4.658,2.346,6.979
		c0.153,0.443,0.251,0.918,0.956,0.883c1.264-0.064,2.533-0.02,3.901-0.02C121.802,144.668,121.69,144.284,121.561,143.903z
		 M112.782,132.907c-2.129-0.012-4.26-0.004-6.507-0.004c1.103-3.691,2.526-7.171,3.492-10.965c1.204,3.59,2.324,6.965,3.477,10.329
		C113.426,132.797,113.277,132.911,112.782,132.907z"/>
	<path fill-rule="evenodd" clip-rule="evenodd" fill="#1D1D1B" d="M184.129,135.84c1.969,0.061,3.939,0.021,5.908,0.021
		c1.479,0,2.955,0,4.434,0c2.848,0,2.848,0,2.725-2.838c-0.197-4.564-2.814-7.97-6.711-8.736c-4.277-0.841-8.416,1.227-10.252,5.236
		c-1.398,3.053-1.625,6.24-0.629,9.465c1.047,3.387,3.352,5.469,6.801,6.219c2.443,0.531,4.895,0.365,7.311-0.232
		c2.572-0.637,2.547-0.646,1.855-3.24c-0.172-0.643-0.281-0.908-1.035-0.586c-1.723,0.73-3.561,0.912-5.422,0.834
		c-3.158-0.133-5.32-2.096-5.795-5.156C183.202,136.073,183.301,135.817,184.129,135.84z M183.411,131.967
		c0.363-3.057,3.482-5.161,6.412-4.299c1.785,0.526,3.201,2.543,3.162,4.399c-0.014,0.619-0.383,0.504-0.73,0.506
		c-1.395,0.004-2.789,0.002-4.184,0.002c-1.354,0-2.707-0.014-4.061,0.006C183.555,132.588,183.35,132.497,183.411,131.967z"/>
</g>
</svg>
