<?xml version="1.0" encoding="utf-8"?>
<!-- Generator: Adobe Illustrator 16.0.0, SVG Export Plug-In . SVG Version: 6.00 Build 0)  -->
<!DOCTYPE svg PUBLIC "-//W3C//DTD SVG 1.1//EN" "http://www.w3.org/Graphics/SVG/1.1/DTD/svg11.dtd">
<svg version="1.1" id="Layer_1" xmlns="http://www.w3.org/2000/svg" xmlns:xlink="http://www.w3.org/1999/xlink" x="0px" y="0px"
	 width="255.118px" height="255.118px" viewBox="0 0 255.118 255.118" enable-background="new 0 0 255.118 255.118"
	 xml:space="preserve">
<g>
	<g>
		<path fill="#38353B" d="M61.387,98.274H84.68c1.565,0,2.902,0.108,4.009,0.325c1.107,0.215,2.005,0.574,2.694,1.073
			c0.688,0.499,1.196,1.149,1.518,1.945c0.324,0.797,0.486,1.775,0.486,2.937v2.268c0,1.621-0.285,2.782-0.85,3.483
			c-0.568,0.703-1.284,1.175-2.147,1.419c0.486,0.107,0.937,0.276,1.358,0.505c0.416,0.229,0.775,0.562,1.073,0.993
			c0.294,0.432,0.525,0.992,0.689,1.68c0.16,0.689,0.242,1.547,0.242,2.572v2.431c0,1.108-0.155,2.039-0.466,2.796
			c-0.31,0.756-0.809,1.37-1.499,1.843c-0.688,0.474-1.587,0.816-2.693,1.033c-1.107,0.216-2.444,0.324-4.009,0.324H61.387V98.274
			L61.387,98.274z M67.544,103.298v6.359H84.8c1.081,0,1.824-0.175,2.229-0.526c0.405-0.351,0.608-0.986,0.608-1.904v-1.741
			c0-0.838-0.25-1.412-0.75-1.723c-0.498-0.31-1.396-0.465-2.692-0.465H67.544z M67.544,114.112v6.765h17.218
			c1.159,0,1.989-0.155,2.491-0.467c0.498-0.31,0.748-0.897,0.748-1.762v-1.702c0-1.133-0.222-1.89-0.668-2.268
			c-0.446-0.377-1.236-0.567-2.369-0.567L67.544,114.112L67.544,114.112z"/>
		<path fill="#38353B" d="M99.828,102.689c-0.756,0-1.289-0.148-1.599-0.446c-0.312-0.296-0.467-0.769-0.467-1.418v-2.35
			c0-0.648,0.156-1.114,0.467-1.397c0.309-0.284,0.842-0.425,1.599-0.425h1.985c0.784,0,1.331,0.141,1.641,0.425
			c0.311,0.284,0.467,0.749,0.467,1.397v2.35c0,0.648-0.157,1.121-0.467,1.418c-0.31,0.298-0.857,0.446-1.641,0.446H99.828z
			 M97.762,125.9v-21.388h6.158V125.9H97.762z"/>
		<path fill="#38353B" d="M119.028,125.9c-2.025,0-3.713-0.168-5.063-0.506c-1.352-0.337-2.432-0.877-3.241-1.621
			c-0.809-0.743-1.384-1.714-1.722-2.916c-0.339-1.201-0.506-2.68-0.506-4.436v-8.668c0-1.728,0.167-3.2,0.506-4.416
			c0.338-1.214,0.913-2.194,1.722-2.937c0.81-0.742,1.89-1.282,3.241-1.62c1.35-0.337,3.038-0.507,5.063-0.507h10.492
			c2.053,0,3.751,0.169,5.103,0.507c1.352,0.338,2.43,0.878,3.241,1.62c0.81,0.743,1.383,1.722,1.72,2.937
			c0.342,1.216,0.509,2.688,0.509,4.416v8.668c0,1.756-0.167,3.234-0.509,4.436c-0.337,1.202-0.91,2.174-1.72,2.916
			c-0.812,0.743-1.89,1.283-3.241,1.621s-3.05,0.506-5.103,0.506H119.028z M133.934,108.036c0-0.863-0.072-1.581-0.223-2.146
			c-0.147-0.567-0.4-1.026-0.747-1.378c-0.352-0.35-0.833-0.593-1.438-0.728c-0.61-0.135-1.358-0.204-2.248-0.204h-9.965
			c-0.973,0-1.763,0.068-2.372,0.204c-0.607,0.136-1.086,0.377-1.438,0.728c-0.352,0.352-0.587,0.811-0.708,1.378
			c-0.121,0.567-0.182,1.283-0.182,2.146v8.143c0,0.891,0.061,1.627,0.182,2.207c0.121,0.582,0.356,1.04,0.708,1.379
			c0.352,0.337,0.833,0.566,1.438,0.688c0.608,0.121,1.398,0.182,2.372,0.182h9.965c0.89,0,1.64-0.061,2.248-0.182
			c0.607-0.121,1.087-0.351,1.438-0.688c0.347-0.339,0.6-0.796,0.747-1.379c0.15-0.58,0.223-1.316,0.223-2.207V108.036z"/>
		<path fill="#38353B" d="M155.08,125.9c-2.025,0-3.716-0.168-5.063-0.506c-1.351-0.337-2.432-0.877-3.24-1.621
			c-0.812-0.743-1.384-1.714-1.725-2.916c-0.337-1.201-0.504-2.68-0.504-4.436v-12.477h6.075v12.314
			c0,0.947,0.089,1.709,0.265,2.289c0.174,0.581,0.449,1.033,0.83,1.357c0.377,0.324,0.884,0.547,1.52,0.668
			c0.633,0.122,1.41,0.183,2.328,0.183h6.318c0.973,0,1.784-0.061,2.43-0.183c0.648-0.121,1.154-0.345,1.519-0.668
			c0.365-0.324,0.621-0.776,0.771-1.357c0.146-0.58,0.223-1.342,0.223-2.289v-12.314h5.995v12.477c0,1.756-0.17,3.234-0.509,4.436
			c-0.337,1.202-0.911,2.174-1.723,2.916c-0.809,0.743-1.897,1.283-3.258,1.621c-1.366,0.337-3.073,0.506-5.126,0.506H155.08z"/>
		<path fill="#38353B" d="M178.737,125.9v-17.054h-3.08v-4.901h3.08v-6.197h6.156v6.197h6.927v4.901h-6.927V125.9H178.737
			L178.737,125.9z"/>
		<path fill="#38353B" d="M196.799,102.689c-0.754,0-1.287-0.148-1.599-0.446c-0.31-0.296-0.466-0.769-0.466-1.418v-2.35
			c0-0.648,0.156-1.114,0.466-1.397c0.312-0.284,0.845-0.425,1.599-0.425h1.987c0.784,0,1.33,0.141,1.642,0.425
			c0.308,0.284,0.464,0.749,0.464,1.397v2.35c0,0.648-0.156,1.121-0.464,1.418c-0.312,0.298-0.857,0.446-1.642,0.446H196.799z
			 M194.735,125.9v-21.388h6.157V125.9H194.735z"/>
		<path fill="#38353B" d="M205.671,125.9V96.856h6.158V125.9H205.671z"/>
		<path fill="#38353B" d="M242.414,120.068c0,1.08-0.098,1.992-0.286,2.734c-0.19,0.743-0.562,1.345-1.112,1.804
			c-0.555,0.459-1.311,0.79-2.271,0.993c-0.957,0.203-2.205,0.303-3.745,0.303h-18.876v-4.74h18.107c0.809,0,1.377-0.134,1.7-0.404
			c0.322-0.27,0.485-0.783,0.485-1.541v-0.729c0-0.81-0.156-1.316-0.466-1.518c-0.312-0.203-0.83-0.304-1.562-0.304h-12.313
			c-1.243,0-2.248-0.121-3.017-0.364c-0.771-0.244-1.373-0.608-1.805-1.093c-0.43-0.486-0.723-1.086-0.869-1.802
			c-0.15-0.716-0.224-1.56-0.224-2.533v-1.661c0-0.944,0.102-1.754,0.303-2.429c0.203-0.676,0.533-1.221,0.993-1.641
			c0.46-0.417,1.08-0.723,1.864-0.911s1.767-0.284,2.957-0.284h8.344v4.577h-6.886c-0.596,0-1.02,0.108-1.277,0.323
			c-0.257,0.217-0.384,0.609-0.384,1.176v1.012c0,0.623,0.12,1.04,0.364,1.256c0.243,0.216,0.636,0.324,1.176,0.324h11.907
			c1.404,0,2.555,0.115,3.444,0.345c0.892,0.23,1.593,0.595,2.105,1.094c0.513,0.5,0.864,1.147,1.053,1.945
			c0.19,0.796,0.286,1.776,0.286,2.937v1.132H242.414z"/>
	</g>
	<path fill="#ACD923" d="M243.331,146.059c-2.573-1.927-5.097-4.245-7.539-6.486c-2.673-2.455-5.281-4.844-7.918-6.727v-0.001
		c-0.098-0.074-1.223-0.92-2.83-1.794c-0.085-0.047-0.172-0.096-0.257-0.143c-0.277-0.145-0.565-0.288-0.866-0.43
		c-0.098-0.045-0.192-0.09-0.29-0.133c-0.892-0.406-1.86-0.767-2.854-1.004c-0.127-0.053-0.265-0.08-0.409-0.091
		c-0.604-0.121-1.211-0.196-1.809-0.196c-0.034,0-0.067,0-0.102,0c-0.058,0-0.114,0.008-0.17,0.01
		c-0.071-0.002-0.142-0.01-0.214-0.01c-4.644,0-7.994,2.646-9.098,3.651c-0.782,0.547-1.56,1.138-2.337,1.766l-0.928-0.774
		c-0.025-0.022-0.055-0.044-0.082-0.064c-0.259-0.187-6.4-4.578-11.365-4.578c-5.046,0-9.409,3.773-9.55,3.897l-14.868,12.093
		c-0.108,0.087-0.195,0.189-0.271,0.297c-2.256-1.766-4.461-3.777-6.641-5.77c-2.698-2.466-5.33-4.861-7.988-6.749
		c-0.949-0.891-4.385-3.769-9.226-3.769c-0.073,0-0.146,0.007-0.22,0.009c-0.053-0.002-0.104-0.009-0.157-0.009
		c-0.055-0.002-0.107-0.002-0.163-0.002c-4.457,0-8.898,3.499-9.293,3.817c-0.79,0.564-1.578,1.171-2.364,1.816l-1.044-0.82
		c-0.263-0.198-6.495-4.812-11.477-4.812c-5.045,0-9.406,3.772-9.555,3.905l-11.112,9.178l-3.683,2.813
		c-2-1.664-3.95-3.521-5.876-5.357c-5.679-5.421-11.045-10.539-17.322-10.539c-4.244,0-9.398,3.688-9.565,3.811l-1.779,1.178
		l-0.89-0.953c-0.016-0.015-0.034-0.027-0.051-0.044c-0.015-0.013-0.025-0.03-0.041-0.045l-11.587-10.459
		c1.096-6.014-1.033-12.106-5.792-16.452c-4.798-4.388-11.652-5.859-17.889-3.837c-0.509,0.165-0.89,0.588-1.002,1.109
		c-0.113,0.522,0.06,1.064,0.455,1.424l9.237,8.435l-1.721,7.728l-7.551,2.423l-9.239-8.437c-0.393-0.36-0.95-0.482-1.458-0.323
		c-0.51,0.159-0.895,0.578-1.013,1.1c-1.445,6.373,0.638,13.065,5.435,17.464c4.859,4.436,11.64,5.87,17.901,3.834l6.733,6.149
		c0.006,0.007,0.012,0.009,0.017,0.013c3.567,3.499,7.697,2.025,9.336,0.781l8.685-5.988l0.947,1.012
		c0.807,0.978,11.81,14.094,20.63,14.094c5.126,0,7.844-0.738,11.643-3.153c0.023-0.017,0.049-0.032,0.072-0.048l1.597-1.153
		c3.591,2.725,7.423,4.756,11.731,5.099c0.125,0.036,0.256,0.062,0.396,0.062c0.152,0,0.299-0.019,0.449-0.022
		c0.149,0.004,0.294,0.022,0.445,0.022c0.14,0,0.271-0.025,0.398-0.061c7.585-0.604,13.917-6.404,20.047-12.034
		c1.18-1.084,2.348-2.153,3.502-3.167l1.087,0.965c0.966,1.002,13.159,13.492,21.891,13.492c4.715,0,8.485-1.121,12.612-3.746
		c0.136-0.087,0.246-0.196,0.343-0.312c3.598,2.578,7.404,4.473,11.59,4.802c0.127,0.035,0.261,0.061,0.396,0.061
		c0.151,0,0.297-0.018,0.445-0.021c0.15,0.004,0.297,0.021,0.447,0.021c0.138,0,0.269-0.025,0.396-0.061
		c7.613-0.6,13.964-6.4,20.114-12.028c1.279-1.172,2.544-2.326,3.791-3.411l1.062,0.883c2.051,2.103,10.844,10.781,18.45,13.185
		c0.187,0.113,0.4,0.18,0.63,0.185c1.027,0.281,2.029,0.442,2.984,0.442c4.714,0,8.484-1.121,12.612-3.746
		c0.079-0.049,0.152-0.108,0.221-0.171l0.854-0.8c0.324-0.303,0.498-0.734,0.473-1.176
		C243.907,146.733,243.684,146.326,243.331,146.059z M94.492,149.284c-3.656,2.327-6.283,3.037-11.24,3.037
		c-8.619,0-19.62-13.293-20.086-13.858c-0.841-0.944-1.301-1.414-1.786-1.91c-0.464-0.474-0.944-0.964-1.788-1.908l-12.196-11.01
		c-0.204-0.183-0.291-0.461-0.227-0.727c1.292-5.49-0.555-11.157-4.938-15.157c-3.881-3.549-9.3-4.918-14.407-3.715l8.881,8.11
		c0.2,0.181,0.285,0.455,0.227,0.716l-2.098,9.414c-0.058,0.259-0.249,0.47-0.502,0.551l-9.196,2.952
		c-0.257,0.082-0.536,0.021-0.736-0.16l-8.881-8.113c-0.732,5.186,1.121,10.455,4.998,14.012c4.456,4.068,10.766,5.251,16.463,3.083
		c0.255-0.096,0.544-0.047,0.754,0.132l0.061,0.053l7.356,6.717c0.004,0.003,0.005,0.009,0.01,0.014
		c0.004,0.004,0.009,0.004,0.015,0.009c3.087,3.085,6.374,0.7,6.512,0.599l7.497-5.17c0.339-0.234,0.806-0.147,1.042,0.191
		c0.233,0.341,0.148,0.809-0.194,1.042l-7.47,5.149c-0.796,0.604-2.226,1.263-3.874,1.263c-1.442,0-3.048-0.506-4.545-1.99
		c0,0-0.001,0-0.002-0.001l-7.061-6.445c-6.115,2.147-12.81,0.813-17.574-3.538c-4.6-4.218-6.596-10.635-5.209-16.748
		c0.059-0.26,0.251-0.47,0.507-0.549c0.252-0.08,0.532-0.02,0.729,0.161l9.559,8.731l8.374-2.688l1.909-8.57l-9.559-8.728
		c-0.197-0.18-0.284-0.451-0.227-0.712c0.056-0.262,0.248-0.472,0.502-0.555c5.978-1.938,12.551-0.529,17.152,3.678
		c4.673,4.267,6.704,10.282,5.482,16.17l11.903,10.747c0.019,0.018,0.039,0.037,0.055,0.059c0.838,0.936,1.312,1.42,1.767,1.886
		c0.477,0.487,0.97,0.99,1.856,1.985c0.129,0.157,11.034,13.332,18.946,13.332c4.679,0,7.019-0.629,10.435-2.801
		c0.35-0.223,0.812-0.119,1.034,0.229C94.943,148.601,94.839,149.064,94.492,149.284z M37.211,111.592l-7.771-7.095
		c4.425-0.601,8.951,0.755,12.287,3.805c4.179,3.816,5.941,9.212,4.712,14.433c-0.126,0.531,0.051,1.089,0.456,1.456l12.176,10.991
		l0.535,0.572l-8.361,5.763c-0.296,0.216-2.969,2.043-5.537-0.524c-0.008-0.008-0.019-0.013-0.026-0.022
		c-0.008-0.006-0.014-0.018-0.023-0.024l-7.375-6.731l-0.061-0.053c-0.418-0.356-0.996-0.456-1.508-0.261
		c-5.434,2.067-11.446,0.94-15.689-2.937c-3.333-3.054-5.096-7.437-4.899-11.89l7.77,7.096c0.396,0.362,0.958,0.483,1.468,0.321
		l9.197-2.952c0.506-0.162,0.889-0.581,1.005-1.101l2.096-9.413C37.779,112.5,37.608,111.954,37.211,111.592z M64.186,136.264
		l1.409-0.934c0.374-0.269,0.981-0.668,1.717-1.094v5.503c-0.994-1.048-1.82-1.988-2.407-2.703
		c-0.021-0.025-0.041-0.048-0.063-0.071L64.186,136.264z M69.933,142.352v-9.429c1.2-0.502,2.45-0.87,3.521-0.87
		c0.135,0,0.271,0.016,0.407,0.021v13.646C72.482,144.657,71.15,143.498,69.933,142.352z M76.484,147.568v-14.981
		c1.309,0.445,2.617,1.147,3.926,2.029v14.917C79.135,149.093,77.808,148.406,76.484,147.568z M83.034,150.063V136.59
		c1.296,1.07,2.604,2.265,3.926,3.512v9.767c-1.072,0.144-2.27,0.204-3.709,0.204C83.18,150.073,83.105,150.065,83.034,150.063z
		 M89.584,149.257v-6.661c1.497,1.425,3.013,2.84,4.563,4.167l-0.899,0.647C91.918,148.254,90.774,148.846,89.584,149.257z
		 M132.081,138.898c-0.934,0.834-1.866,1.689-2.807,2.552c-5.938,5.454-12.072,11.072-19.42,11.621
		c-0.083,0.031-0.173,0.054-0.269,0.054c-0.15,0-0.299-0.016-0.451-0.021c-0.148,0.003-0.294,0.021-0.442,0.021
		c-0.093,0-0.18-0.022-0.262-0.053c-3.285-0.253-6.619-1.576-10.161-4.043c-3.084-2.146-4.203-3.283-4.417-3.515
		c-1.578-1.385-3.127-2.864-4.629-4.296c-5.343-5.099-10.392-9.915-15.77-9.915c-3.524,0-8.25,3.386-8.296,3.42
		c-0.338,0.24-0.805,0.166-1.046-0.17c-0.243-0.336-0.167-0.804,0.167-1.045c0.21-0.153,5.173-3.705,9.177-3.705
		c5.978,0,11.235,5.017,16.805,10.329c1.499,1.431,3.048,2.91,4.613,4.284c0.022,0.021,0.047,0.044,0.069,0.068
		c0.006,0.009,0.972,1.076,4.184,3.313c3.531,2.46,6.806,3.697,10.007,3.806c7.099-0.225,13.216-5.826,19.13-11.26
		c0.944-0.866,1.884-1.729,2.824-2.564c0.307-0.276,0.781-0.249,1.059,0.059C132.417,138.149,132.39,138.623,132.081,138.898z
		 M99.177,146.911c0.113-0.051,0.222-0.113,0.32-0.197l4.343-3.584v6.477C102.243,148.921,100.696,147.998,99.177,146.911z
		 M106.452,140.969l3.938-3.251v13.033c-0.415,0.053-0.833,0.086-1.25,0.102c-0.917-0.032-1.813-0.161-2.695-0.373
		c0.009-0.064,0.02-0.127,0.02-0.191v-9.228C106.462,141.03,106.454,141,106.452,140.969z M113.012,150.158v-14.605l0.377-0.311
		c0.023-0.021,1.487-1.286,3.55-2.216v15.365C115.653,149.126,114.345,149.73,113.012,150.158z M123.493,143.615
		c-1.294,1.107-2.602,2.153-3.931,3.096v-14.526c0.472-0.084,0.955-0.134,1.44-0.134c0.769,0,1.618,0.17,2.487,0.436v11.078
		C123.489,143.583,123.493,143.597,123.493,143.615z M126.111,141.299v-7.764c1.961,0.942,3.719,2.096,4.543,2.709l0.545,0.429
		c-1.062,0.938-2.123,1.914-3.199,2.9C127.374,140.149,126.743,140.725,126.111,141.299z M167.59,149.375
		c-3.986,2.536-6.531,2.946-11.081,2.946c-8.586,0-20.874-12.762-21.396-13.307c-2.555-2.306-4.512-3.768-4.53-3.781
		c-0.051-0.039-5.347-3.932-9.582-3.932c-4.209,0-8.068,3.342-8.108,3.377L99.425,145.8c-0.32,0.265-0.792,0.219-1.055-0.102
		c-0.265-0.319-0.218-0.791,0.1-1.053l13.454-11.108c0.159-0.14,4.311-3.733,9.079-3.733c4.734,0,10.245,4.053,10.477,4.227
		c0.083,0.061,2.027,1.514,4.68,3.91c0.163,0.166,12.402,12.88,20.351,12.88c4.44,0,6.66-0.41,10.276-2.711
		c0.352-0.224,0.813-0.119,1.033,0.229C168.042,148.69,167.94,149.152,167.59,149.375z M135.849,136.665
		c1.265-1.016,2.517-1.915,3.763-2.648v6.226c-1.183-1.078-2.172-2.05-2.871-2.779c-0.027-0.029-0.057-0.058-0.089-0.084
		L135.849,136.665z M142.234,142.526v-9.784c1.087-0.406,2.165-0.645,3.243-0.678c0.229,0.01,0.455,0.024,0.685,0.051v13.434
		C144.792,144.584,143.462,143.548,142.234,142.526z M148.784,147.264v-14.468c1.301,0.501,2.607,1.23,3.928,2.128v14.317
		C151.44,148.75,150.112,148.065,148.784,147.264z M155.335,149.976v-13.09c1.295,1.048,2.602,2.199,3.928,3.398v9.617
		c-0.884,0.111-1.797,0.171-2.754,0.171C156.13,150.073,155.738,150.038,155.335,149.976z M161.885,149.375v-6.699
		c1.672,1.523,3.364,3.036,5.093,4.439C165.262,148.152,163.604,148.895,161.885,149.375z M205.351,138.578
		c-1.069,0.938-2.137,1.914-3.211,2.895c-5.97,5.447-12.132,11.059-19.533,11.599c-0.083,0.031-0.172,0.054-0.265,0.054
		c-0.152,0-0.308-0.016-0.464-0.021c-0.145,0.005-0.284,0.021-0.428,0.021c-0.085,0-0.166-0.022-0.242-0.048
		c-3.088-0.23-6.246-1.398-9.617-3.564l-4.626-3.44c-1.881-1.562-3.698-3.23-5.455-4.845c-5.559-5.104-10.81-9.924-16.198-9.924
		c-4.66,0-9.171,4.163-9.215,4.204c-0.303,0.282-0.775,0.269-1.06-0.033c-0.283-0.304-0.267-0.776,0.034-1.06
		c0.201-0.188,4.982-4.61,10.24-4.61c5.972,0,11.431,5.013,17.211,10.321c1.743,1.602,3.546,3.256,5.366,4.77l4.554,3.386
		c3.319,2.133,6.421,3.223,9.429,3.326c7.158-0.216,13.306-5.812,19.254-11.24c1.082-0.984,2.158-1.968,3.232-2.913
		c0.313-0.272,0.786-0.242,1.06,0.068C205.695,137.832,205.665,138.305,205.351,138.578z M172.026,147.135l4.921-4.002v6.656
		C175.271,149.137,173.633,148.222,172.026,147.135z M179.563,141.004l3.934-3.198v12.896c-0.529,0.082-1.063,0.135-1.602,0.152
		c-0.794-0.027-1.582-0.121-2.359-0.284c0.021-0.089,0.033-0.185,0.033-0.28v-9.229
		C179.569,141.042,179.563,141.024,179.563,141.004z M186.12,150.047v-14.376l0.527-0.43c0.023-0.021,1.417-1.224,3.399-2.146
		v15.115C188.758,148.968,187.45,149.592,186.12,150.047z M192.669,146.498v-14.279c0.519-0.104,1.053-0.165,1.593-0.165
		c0.725,0,1.521,0.143,2.334,0.371v10.941C195.304,144.476,193.998,145.541,192.669,146.498z M199.219,141.041v-7.639
		c1.97,0.896,3.749,2.014,4.613,2.631l0.479,0.398c-1.152,1.012-2.311,2.069-3.484,3.143
		C200.295,140.063,199.759,140.552,199.219,141.041z M242.986,147.928l-0.953,0.727c-4.051,2.579-7.705,3.665-12.266,3.665
		c-8.592,0-20.041-12.245-20.526-12.767c-2.35-2.338-5.084-4.228-5.111-4.247c-0.068-0.049-5.627-4.005-9.869-4.005
		c-4.194,0-8.069,3.343-8.109,3.377l-14.089,11.461c-0.322,0.263-0.792,0.213-1.053-0.106c-0.261-0.321-0.214-0.794,0.108-1.057
		l14.069-11.442c0.152-0.136,4.309-3.729,9.075-3.729c4.728,0,10.485,4.102,10.731,4.277c0.102,0.071,2.861,1.979,5.327,4.434
		c0.136,0.144,11.509,12.308,19.448,12.308c4.256,0,7.664-1.017,11.407-3.394l0.121-0.093c-2.419-1.877-4.758-4.022-7.026-6.106
		c-5.559-5.104-10.81-9.925-16.197-9.925c-4.653,0-8.795,3.946-8.833,3.986c-0.299,0.286-0.773,0.281-1.062-0.018
		c-0.288-0.298-0.281-0.771,0.017-1.059c0.187-0.18,4.61-4.409,9.878-4.409c5.97,0,11.431,5.013,17.21,10.319
		c2.486,2.282,5.056,4.644,7.695,6.607c0.187,0.142,0.299,0.362,0.301,0.598C243.282,147.564,243.172,147.786,242.986,147.928z
		 M208.991,136.429c0.409-0.322,0.815-0.627,1.223-0.923c0.198-0.077,0.385-0.194,0.544-0.361c0.002-0.003,0.045-0.046,0.11-0.107
		c0.517-0.359,1.033-0.687,1.551-0.99v5.616c-0.977-0.905-1.862-1.775-2.621-2.557c-0.049-0.049-0.097-0.093-0.15-0.134
		L208.991,136.429z M215.039,142.001v-9.235c1.091-0.413,2.182-0.662,3.269-0.701c0.218,0.006,0.438,0.014,0.659,0.037v13.012
		C217.615,144.125,216.289,143.068,215.039,142.001z M221.588,146.907v-14.155c1.301,0.49,2.607,1.215,3.925,2.107v14.165
		C224.249,148.48,222.923,147.75,221.588,146.907z M228.138,149.887v-13.068c1.297,1.049,2.604,2.204,3.928,3.408v9.721
		c-0.744,0.076-1.502,0.123-2.297,0.123C229.252,150.073,228.706,150.005,228.138,149.887z M234.69,149.495v-6.869
		c1.727,1.582,3.493,3.175,5.313,4.643C238.221,148.321,236.495,149.043,234.69,149.495z"/>
</g>
</svg>
