<?xml version="1.0" encoding="utf-8"?>
<!-- Generator: Adobe Illustrator 16.0.0, SVG Export Plug-In . SVG Version: 6.00 Build 0)  -->
<!DOCTYPE svg PUBLIC "-//W3C//DTD SVG 1.1//EN" "http://www.w3.org/Graphics/SVG/1.1/DTD/svg11.dtd">
<svg version="1.1" id="Layer_1" xmlns="http://www.w3.org/2000/svg" xmlns:xlink="http://www.w3.org/1999/xlink" x="0px" y="0px"
	 width="255.118px" height="255.118px" viewBox="70.898 -138.559 255.118 255.118"
	 enable-background="new 70.898 -138.559 255.118 255.118" xml:space="preserve">
<circle fill="#38353B" cx="197.966" cy="-10.978" r="123.28"/>
<g>
	<g>
		<path fill="#FFFFFF" d="M135.522-31.783h21.476c1.444,0,2.676,0.1,3.697,0.299c1.021,0.199,1.849,0.53,2.484,0.99
			c0.635,0.46,1.102,1.059,1.4,1.793c0.298,0.735,0.448,1.637,0.448,2.708v2.091c0,1.495-0.263,2.565-0.785,3.212
			c-0.523,0.648-1.183,1.083-1.979,1.308c0.448,0.099,0.864,0.255,1.252,0.466c0.384,0.212,0.715,0.518,0.989,0.916
			c0.272,0.398,0.485,0.914,0.636,1.549c0.148,0.635,0.223,1.426,0.223,2.372v2.241c0,1.022-0.143,1.88-0.43,2.578
			c-0.286,0.697-0.746,1.263-1.381,1.699c-0.635,0.437-1.463,0.753-2.484,0.952c-1.021,0.2-2.253,0.299-3.697,0.299h-21.849V-31.783
			L135.522-31.783z M141.2-27.151v5.863h15.91c0.996,0,1.681-0.161,2.055-0.485c0.373-0.323,0.56-0.909,0.56-1.756v-1.605
			c0-0.772-0.23-1.301-0.691-1.588c-0.46-0.286-1.287-0.429-2.483-0.429H141.2z M141.2-17.18v6.237h15.874
			c1.069,0,1.834-0.143,2.297-0.43c0.46-0.286,0.69-0.827,0.69-1.625v-1.569c0-1.045-0.205-1.742-0.616-2.091
			c-0.411-0.348-1.14-0.523-2.185-0.523H141.2z"/>
		<path fill="#FFFFFF" d="M170.966-27.712c-0.698,0-1.189-0.136-1.476-0.411c-0.286-0.273-0.43-0.709-0.43-1.307v-2.167
			c0-0.598,0.143-1.027,0.43-1.289c0.286-0.261,0.777-0.392,1.476-0.392h1.83c0.722,0,1.226,0.13,1.512,0.392
			c0.286,0.262,0.431,0.691,0.431,1.289v2.167c0,0.597-0.145,1.033-0.431,1.307c-0.286,0.275-0.79,0.411-1.512,0.411H170.966z
			 M169.061-6.311v-19.72h5.678v19.72H169.061z"/>
		<path fill="#FFFFFF" d="M188.668-6.311c-1.867,0-3.423-0.155-4.668-0.467c-1.246-0.311-2.241-0.809-2.988-1.494
			c-0.746-0.685-1.276-1.581-1.587-2.689c-0.313-1.107-0.468-2.471-0.468-4.09v-7.992c0-1.593,0.155-2.95,0.468-4.071
			c0.311-1.12,0.841-2.023,1.587-2.708c0.747-0.685,1.742-1.183,2.988-1.494c1.245-0.311,2.801-0.467,4.668-0.467h9.674
			c1.892,0,3.46,0.156,4.706,0.467c1.245,0.312,2.24,0.81,2.987,1.494c0.747,0.685,1.276,1.587,1.587,2.708
			c0.313,1.121,0.468,2.478,0.468,4.071v7.992c0,1.619-0.155,2.982-0.468,4.09c-0.311,1.108-0.84,2.005-1.587,2.689
			c-0.747,0.685-1.742,1.183-2.987,1.494c-1.246,0.311-2.814,0.467-4.706,0.467H188.668z M202.413-22.782
			c0-0.796-0.068-1.457-0.206-1.979c-0.137-0.523-0.368-0.946-0.69-1.27c-0.324-0.323-0.766-0.547-1.326-0.671
			c-0.561-0.124-1.251-0.188-2.072-0.188h-9.188c-0.897,0-1.626,0.063-2.186,0.188c-0.56,0.125-1.003,0.348-1.326,0.671
			c-0.324,0.324-0.542,0.747-0.653,1.27s-0.168,1.183-0.168,1.979v7.508c0,0.821,0.057,1.5,0.168,2.035
			c0.112,0.536,0.329,0.959,0.653,1.271c0.323,0.311,0.767,0.522,1.326,0.634c0.56,0.112,1.288,0.168,2.186,0.168h9.188
			c0.821,0,1.512-0.056,2.072-0.168c0.561-0.112,1.002-0.323,1.326-0.634c0.322-0.312,0.554-0.734,0.69-1.271
			c0.138-0.535,0.206-1.214,0.206-2.035V-22.782z"/>
		<path fill="#FFFFFF" d="M221.908-6.311c-1.867,0-3.425-0.155-4.668-0.467c-1.246-0.311-2.241-0.809-2.988-1.494
			s-1.276-1.581-1.589-2.689c-0.311-1.107-0.465-2.471-0.465-4.09v-11.503h5.601V-15.2c0,0.873,0.082,1.576,0.244,2.11
			c0.161,0.536,0.415,0.953,0.766,1.251c0.347,0.299,0.814,0.505,1.4,0.617c0.584,0.112,1.301,0.168,2.147,0.168h5.826
			c0.896,0,1.644-0.056,2.241-0.168s1.063-0.318,1.399-0.617c0.337-0.298,0.573-0.715,0.711-1.251
			c0.136-0.534,0.205-1.237,0.205-2.11v-11.354h5.527v11.503c0,1.619-0.156,2.982-0.467,4.09c-0.312,1.108-0.84,2.005-1.588,2.689
			c-0.746,0.685-1.75,1.183-3.005,1.494c-1.259,0.311-2.834,0.467-4.726,0.467H221.908z"/>
		<path fill="#FFFFFF" d="M243.72-6.311v-15.724h-2.839v-4.519h2.839v-5.714h5.676v5.714h6.388v4.519h-6.387v15.724L243.72-6.311
			L243.72-6.311z"/>
		<path fill="#FFFFFF" d="M260.376-27.712c-0.696,0-1.188-0.136-1.475-0.411c-0.286-0.273-0.431-0.709-0.431-1.307v-2.167
			c0-0.598,0.145-1.027,0.431-1.289c0.286-0.261,0.778-0.392,1.475-0.392h1.831c0.722,0,1.226,0.13,1.513,0.392
			c0.285,0.262,0.429,0.691,0.429,1.289v2.167c0,0.597-0.144,1.033-0.429,1.307c-0.287,0.275-0.791,0.411-1.513,0.411H260.376z
			 M258.471-6.311v-19.72h5.678v19.72H258.471z"/>
		<path fill="#FFFFFF" d="M268.555-6.311V-33.09h5.677v26.779H268.555z"/>
		<path fill="#FFFFFF" d="M302.431-11.689c0,0.996-0.088,1.837-0.263,2.521c-0.175,0.685-0.517,1.24-1.026,1.663
			c-0.511,0.423-1.208,0.728-2.092,0.915c-0.884,0.187-2.035,0.28-3.455,0.28h-17.403v-4.37h16.694c0.747,0,1.27-0.124,1.569-0.373
			c0.298-0.249,0.447-0.722,0.447-1.42v-0.672c0-0.747-0.144-1.214-0.43-1.4c-0.286-0.187-0.765-0.28-1.438-0.28h-11.354
			c-1.146,0-2.073-0.112-2.782-0.336c-0.71-0.225-1.265-0.561-1.663-1.008c-0.397-0.448-0.666-1.002-0.802-1.662
			c-0.138-0.66-0.206-1.438-0.206-2.335v-1.531c0-0.871,0.093-1.618,0.28-2.24c0.187-0.623,0.492-1.126,0.915-1.513
			c0.423-0.385,0.996-0.666,1.719-0.84c0.722-0.174,1.629-0.262,2.726-0.262h7.693v4.22h-6.349c-0.548,0-0.94,0.1-1.177,0.298
			c-0.236,0.2-0.354,0.561-0.354,1.084v0.933c0,0.574,0.112,0.959,0.336,1.158c0.224,0.2,0.585,0.299,1.084,0.299h10.979
			c1.295,0,2.354,0.106,3.175,0.318c0.822,0.212,1.469,0.548,1.942,1.008c0.473,0.461,0.796,1.058,0.971,1.793
			c0.175,0.734,0.263,1.638,0.263,2.708V-11.689L302.431-11.689z"/>
	</g>
	<path fill="#ACD923" d="M303.277,12.275c-2.372-1.776-4.699-3.914-6.95-5.98c-2.465-2.264-4.87-4.466-7.301-6.202l-0.001-0.001
		c-0.089-0.068-1.127-0.848-2.608-1.655c-0.079-0.043-0.158-0.088-0.238-0.13c-0.254-0.133-0.521-0.266-0.798-0.396
		c-0.089-0.042-0.178-0.083-0.267-0.123c-0.822-0.375-1.716-0.707-2.631-0.926c-0.117-0.048-0.245-0.074-0.378-0.083
		c-0.556-0.112-1.116-0.182-1.667-0.182c-0.031,0-0.062,0-0.094,0.001c-0.053,0-0.105,0.007-0.157,0.009
		c-0.065-0.002-0.13-0.009-0.196-0.009c-4.282,0-7.371,2.44-8.389,3.366c-0.72,0.505-1.438,1.049-2.154,1.628l-0.856-0.714
		c-0.024-0.02-0.05-0.04-0.076-0.059c-0.238-0.173-5.9-4.221-10.479-4.221c-4.652,0-8.676,3.479-8.805,3.593l-13.709,11.15
		c-0.099,0.08-0.179,0.174-0.249,0.273c-2.08-1.628-4.114-3.482-6.124-5.319c-2.488-2.273-4.913-4.483-7.365-6.223
		c-0.875-0.821-4.043-3.475-8.506-3.475c-0.067,0-0.135,0.007-0.202,0.009c-0.05-0.002-0.097-0.008-0.146-0.009
		c-0.049-0.001-0.099-0.001-0.149-0.001c-4.109,0-8.206,3.226-8.569,3.519c-0.729,0.521-1.454,1.081-2.18,1.675l-0.962-0.756
		c-0.243-0.182-5.989-4.436-10.582-4.436c-4.653,0-8.673,3.478-8.811,3.6L171.433,8.66l-3.396,2.595
		c-1.843-1.535-3.641-3.246-5.418-4.941c-5.236-4.998-10.183-9.716-15.971-9.716c-3.913,0-8.665,3.4-8.819,3.514l-1.641,1.085
		l-0.821-0.878c-0.014-0.015-0.031-0.026-0.046-0.041c-0.014-0.013-0.023-0.028-0.037-0.041L124.6-9.407
		c1.011-5.545-0.952-11.162-5.34-15.169c-4.424-4.046-10.744-5.402-16.494-3.538c-0.469,0.151-0.82,0.542-0.924,1.022
		c-0.104,0.481,0.055,0.981,0.419,1.313l8.517,7.777l-1.587,7.125l-6.962,2.234l-8.519-7.779c-0.362-0.332-0.876-0.444-1.345-0.298
		c-0.47,0.147-0.825,0.533-0.934,1.014C90.099-9.83,92.019-3.66,96.442,0.396c4.48,4.091,10.732,5.412,16.505,3.536l6.208,5.67
		c0.005,0.005,0.011,0.008,0.015,0.011c3.289,3.226,7.097,1.867,8.608,0.72l8.008-5.52l0.872,0.932
		c0.745,0.902,10.889,12.994,19.022,12.994c4.726,0,7.233-0.68,10.734-2.907c0.022-0.015,0.045-0.029,0.067-0.044l1.472-1.063
		c3.311,2.512,6.844,4.384,10.817,4.701c0.116,0.033,0.237,0.056,0.366,0.056c0.139,0,0.274-0.017,0.413-0.02
		c0.138,0.003,0.272,0.02,0.41,0.02c0.129,0,0.25-0.023,0.368-0.055c6.994-0.557,12.831-5.906,18.483-11.096
		c1.089-1,2.164-1.985,3.229-2.92l1.003,0.89c0.889,0.924,12.133,12.439,20.183,12.439c4.348,0,7.825-1.033,11.628-3.454
		c0.126-0.08,0.228-0.18,0.317-0.287c3.317,2.377,6.826,4.124,10.686,4.428c0.117,0.032,0.239,0.055,0.365,0.055
		c0.139,0,0.273-0.016,0.411-0.019c0.138,0.003,0.272,0.019,0.411,0.019c0.128,0,0.249-0.023,0.366-0.055
		c7.019-0.553,12.874-5.902,18.544-11.091c1.181-1.08,2.346-2.144,3.497-3.144l0.978,0.813c1.891,1.939,9.998,9.94,17.011,12.156
		c0.172,0.104,0.369,0.166,0.581,0.171c0.947,0.259,1.871,0.407,2.751,0.407c4.346,0,7.823-1.033,11.63-3.454
		c0.071-0.045,0.14-0.099,0.202-0.157l0.788-0.738c0.298-0.278,0.458-0.676,0.436-1.084
		C303.808,12.897,303.604,12.521,303.277,12.275z M166.045,15.249c-3.371,2.145-5.792,2.8-10.363,2.8
		c-7.946,0-18.09-12.256-18.519-12.777c-0.776-0.871-1.199-1.304-1.647-1.762c-0.428-0.437-0.87-0.889-1.648-1.759L122.623-8.401
		c-0.188-0.169-0.268-0.425-0.209-0.67c1.191-5.062-0.511-10.287-4.552-13.975c-3.579-3.272-8.575-4.535-13.284-3.425l8.188,7.478
		c0.184,0.167,0.263,0.419,0.209,0.66l-1.934,8.68c-0.053,0.239-0.229,0.433-0.463,0.508l-8.479,2.721
		c-0.237,0.076-0.494,0.02-0.678-0.147l-8.189-7.48c-0.675,4.781,1.033,9.64,4.608,12.919c4.108,3.751,9.926,4.842,15.179,2.843
		c0.236-0.088,0.502-0.043,0.696,0.122l0.056,0.048l6.782,6.193c0.004,0.003,0.005,0.008,0.01,0.013
		c0.004,0.004,0.008,0.004,0.013,0.008c2.847,2.845,5.877,0.645,6.004,0.551l6.912-4.766c0.313-0.216,0.744-0.136,0.961,0.177
		c0.215,0.314,0.137,0.745-0.178,0.961l-6.888,4.748c-0.734,0.556-2.052,1.164-3.572,1.164c-1.329,0-2.81-0.467-4.191-1.835
		c0,0-0.001,0-0.002-0.001l-6.51-5.944c-5.638,1.981-11.811,0.75-16.204-3.262c-4.241-3.888-6.081-9.805-4.803-15.441
		c0.054-0.24,0.232-0.433,0.467-0.506c0.233-0.074,0.491-0.018,0.672,0.148l8.813,8.05l7.721-2.478l1.76-7.902l-8.813-8.047
		c-0.182-0.166-0.262-0.416-0.209-0.657c0.052-0.241,0.228-0.435,0.463-0.511c5.511-1.787,11.572-0.488,15.814,3.391
		c4.309,3.934,6.181,9.48,5.055,14.91l10.974,9.908c0.018,0.016,0.036,0.034,0.052,0.053c0.772,0.864,1.208,1.31,1.629,1.74
		c0.439,0.449,0.894,0.913,1.711,1.83c0.118,0.145,10.173,12.293,17.468,12.293c4.314,0,6.472-0.58,9.621-2.583
		c0.323-0.205,0.749-0.109,0.954,0.212C166.462,14.619,166.366,15.046,166.045,15.249z M113.232-19.504l-7.165-6.542
		c4.08-0.554,8.253,0.697,11.328,3.509c3.853,3.518,5.478,8.493,4.345,13.307c-0.116,0.49,0.047,1.004,0.42,1.342l11.226,10.134
		l0.494,0.527l-7.71,5.314c-0.273,0.199-2.737,1.884-5.105-0.483c-0.008-0.008-0.017-0.012-0.024-0.021
		c-0.008-0.006-0.013-0.016-0.021-0.022l-6.8-6.208l-0.056-0.048c-0.385-0.328-0.918-0.42-1.39-0.241
		c-5.01,1.906-10.554,0.867-14.466-2.707C95.235-4.459,93.61-8.5,93.791-12.606l7.164,6.543c0.366,0.334,0.884,0.446,1.354,0.296
		l8.48-2.722c0.467-0.149,0.82-0.536,0.927-1.015l1.932-8.679C113.756-18.666,113.598-19.17,113.232-19.504z M138.103,3.244
		l1.299-0.86c0.345-0.248,0.905-0.616,1.583-1.009v5.074c-0.916-0.966-1.678-1.833-2.219-2.492
		c-0.019-0.023-0.038-0.045-0.058-0.067L138.103,3.244z M143.402,8.857V0.164c1.107-0.463,2.259-0.803,3.246-0.803
		c0.125,0,0.25,0.015,0.375,0.021v12.582C145.752,10.983,144.524,9.914,143.402,8.857z M149.442,13.667V-0.146
		c1.207,0.409,2.413,1.057,3.62,1.871v13.753C151.886,15.073,150.663,14.44,149.442,13.667z M155.481,15.967V3.545
		c1.196,0.987,2.401,2.088,3.62,3.238v9.005c-0.988,0.132-2.093,0.188-3.42,0.188C155.615,15.976,155.548,15.969,155.481,15.967z
		 M161.521,15.225V9.083c1.38,1.313,2.778,2.618,4.207,3.842l-0.829,0.597C163.673,14.3,162.617,14.846,161.521,15.225z
		 M200.703,5.673c-0.86,0.768-1.721,1.558-2.587,2.352c-5.476,5.029-11.131,10.21-17.906,10.715c-0.077,0.03-0.16,0.05-0.249,0.05
		c-0.138,0-0.276-0.015-0.416-0.019c-0.136,0.003-0.271,0.019-0.408,0.019c-0.085,0-0.166-0.02-0.241-0.049
		c-3.028-0.233-6.103-1.453-9.368-3.727c-2.844-1.98-3.875-3.027-4.073-3.24c-1.454-1.278-2.883-2.642-4.267-3.962
		c-4.927-4.701-9.582-9.142-14.54-9.142c-3.249,0-7.607,3.122-7.65,3.153c-0.311,0.222-0.742,0.154-0.965-0.156
		c-0.223-0.309-0.154-0.741,0.155-0.964c0.194-0.141,4.77-3.416,8.461-3.416c5.511,0,10.36,4.626,15.494,9.524
		c1.382,1.319,2.811,2.683,4.253,3.95c0.021,0.019,0.044,0.041,0.064,0.063c0.006,0.008,0.896,0.993,3.857,3.054
		c3.255,2.268,6.276,3.409,9.226,3.509c6.546-0.208,12.185-5.371,17.639-10.381c0.871-0.799,1.736-1.594,2.603-2.366
		c0.284-0.254,0.721-0.229,0.976,0.056C201.013,4.982,200.988,5.419,200.703,5.673z M170.366,13.061
		c0.104-0.048,0.204-0.105,0.295-0.182l4.004-3.305v5.972C173.192,14.915,171.766,14.063,170.366,13.061z M177.073,7.583l3.63-2.998
		v12.017c-0.382,0.049-0.767,0.08-1.152,0.093c-0.845-0.029-1.671-0.148-2.485-0.344c0.008-0.059,0.018-0.116,0.018-0.176V7.667
		C177.082,7.639,177.075,7.612,177.073,7.583z M183.122,16.055V2.588l0.347-0.286c0.021-0.019,1.371-1.186,3.274-2.043v14.167
		C185.556,15.104,184.35,15.66,183.122,16.055z M192.786,10.022c-1.193,1.021-2.4,1.985-3.625,2.854V-0.517
		c0.435-0.078,0.88-0.123,1.327-0.123c0.709,0,1.492,0.155,2.293,0.401V9.975C192.782,9.992,192.785,10.006,192.786,10.022z
		 M195.199,7.887V0.728c1.81,0.869,3.431,1.933,4.19,2.498l0.501,0.396c-0.977,0.865-1.957,1.765-2.948,2.674
		C196.364,6.826,195.782,7.358,195.199,7.887z M233.444,15.332c-3.676,2.339-6.022,2.717-10.218,2.717
		c-7.916,0-19.246-11.767-19.725-12.269c-2.357-2.126-4.16-3.473-4.178-3.486c-0.048-0.036-4.931-3.625-8.835-3.625
		c-3.881,0-7.439,3.081-7.476,3.113l-12.418,10.255c-0.295,0.244-0.73,0.201-0.973-0.093c-0.244-0.295-0.201-0.73,0.093-0.972
		L182.118,0.73c0.146-0.128,3.975-3.442,8.371-3.442c4.364,0,9.445,3.738,9.66,3.897c0.075,0.056,1.869,1.396,4.315,3.605
		c0.149,0.154,11.435,11.876,18.763,11.876c4.093,0,6.14-0.378,9.475-2.5c0.323-0.206,0.749-0.11,0.953,0.212
		C233.86,14.701,233.766,15.127,233.444,15.332z M204.178,3.613c1.166-0.936,2.321-1.766,3.469-2.441v5.74
		c-1.091-0.994-2.003-1.891-2.646-2.562c-0.027-0.028-0.054-0.054-0.082-0.079L204.178,3.613z M210.065,9.018v-9.021
		c1.001-0.375,1.996-0.595,2.989-0.625c0.211,0.009,0.421,0.022,0.632,0.047v12.385C212.424,10.916,211.198,9.961,210.065,9.018z
		 M216.104,13.387V0.047c1.199,0.462,2.405,1.135,3.621,1.962V15.21C218.553,14.756,217.328,14.125,216.104,13.387z M222.144,15.887
		V3.818c1.194,0.966,2.399,2.028,3.621,3.133v8.867c-0.814,0.103-1.655,0.158-2.538,0.158
		C222.878,15.976,222.516,15.943,222.144,15.887z M228.184,15.332V9.155c1.541,1.405,3.101,2.8,4.696,4.094
		C231.298,14.205,229.768,14.891,228.184,15.332z M268.261,5.378c-0.987,0.865-1.972,1.765-2.962,2.668
		c-5.503,5.022-11.185,10.196-18.01,10.694c-0.075,0.03-0.157,0.05-0.244,0.05c-0.141,0-0.283-0.014-0.427-0.019
		c-0.133,0.004-0.263,0.019-0.396,0.019c-0.078,0-0.151-0.021-0.221-0.044c-2.848-0.213-5.76-1.29-8.868-3.287l-4.266-3.172
		c-1.733-1.439-3.41-2.978-5.029-4.466c-5.125-4.707-9.967-9.151-14.935-9.151c-4.297,0-8.455,3.839-8.497,3.877
		c-0.278,0.26-0.715,0.247-0.977-0.032c-0.261-0.279-0.246-0.715,0.032-0.976c0.185-0.174,4.593-4.251,9.441-4.251
		c5.506,0,10.54,4.622,15.87,9.516c1.607,1.477,3.27,3.003,4.948,4.398l4.198,3.122c3.061,1.966,5.921,2.971,8.694,3.067
		c6.599-0.2,12.268-5.359,17.752-10.363c0.998-0.909,1.989-1.815,2.981-2.687c0.288-0.251,0.724-0.223,0.975,0.063
		C268.576,4.689,268.549,5.126,268.261,5.378z M237.534,13.268l4.537-3.69v6.137C240.526,15.113,239.016,14.269,237.534,13.268z
		 M244.483,7.615l3.627-2.949v11.891c-0.488,0.076-0.98,0.124-1.476,0.14c-0.733-0.025-1.459-0.111-2.176-0.261
		c0.019-0.083,0.03-0.17,0.03-0.259V7.667C244.489,7.65,244.483,7.633,244.483,7.615z M250.528,15.953V2.698l0.486-0.396
		c0.021-0.019,1.306-1.128,3.135-1.979V14.26C252.962,14.958,251.755,15.533,250.528,15.953z M256.567,12.679V-0.486
		c0.479-0.095,0.971-0.153,1.469-0.153c0.668,0,1.402,0.132,2.152,0.343V9.792C258.996,10.817,257.791,11.798,256.567,12.679z
		 M262.606,7.648V0.606c1.817,0.826,3.457,1.856,4.253,2.425l0.443,0.368c-1.064,0.932-2.132,1.908-3.213,2.897
		C263.598,6.747,263.103,7.198,262.606,7.648z M302.959,13.999l-0.879,0.67c-3.735,2.378-7.103,3.379-11.308,3.379
		c-7.922,0-18.479-11.29-18.926-11.771c-2.166-2.156-4.688-3.898-4.713-3.916c-0.063-0.044-5.188-3.692-9.099-3.692
		c-3.867,0-7.44,3.082-7.477,3.113L237.567,12.35c-0.297,0.242-0.73,0.196-0.972-0.099c-0.24-0.296-0.196-0.731,0.101-0.973
		l12.972-10.551c0.141-0.125,3.973-3.439,8.368-3.439c4.358,0,9.668,3.783,9.893,3.944c0.095,0.066,2.639,1.824,4.913,4.088
		c0.125,0.132,10.611,11.348,17.932,11.348c3.923,0,7.067-0.937,10.517-3.129l0.112-0.086c-2.23-1.73-4.387-3.709-6.479-5.63
		c-5.125-4.706-9.966-9.151-14.933-9.151c-4.291,0-8.109,3.639-8.146,3.676c-0.274,0.264-0.711,0.259-0.978-0.017
		c-0.266-0.274-0.259-0.711,0.016-0.976c0.171-0.166,4.251-4.065,9.108-4.065c5.504,0,10.538,4.622,15.867,9.515
		c2.293,2.104,4.661,4.281,7.095,6.092c0.173,0.13,0.276,0.334,0.277,0.551C303.232,13.663,303.132,13.867,302.959,13.999z
		 M271.615,3.396c0.377-0.296,0.752-0.578,1.127-0.85c0.184-0.072,0.356-0.18,0.502-0.333c0.003-0.003,0.042-0.043,0.101-0.1
		c0.478-0.331,0.954-0.632,1.43-0.913v5.179c-0.899-0.835-1.717-1.637-2.416-2.357c-0.044-0.045-0.09-0.086-0.138-0.123
		L271.615,3.396z M277.192,8.534V0.02c1.006-0.381,2.012-0.611,3.014-0.647c0.201,0.005,0.404,0.013,0.606,0.034v11.997
		C279.566,10.493,278.344,9.517,277.192,8.534z M283.23,13.056V0.006c1.199,0.452,2.405,1.12,3.62,1.943v13.06
		C285.684,14.508,284.461,13.834,283.23,13.056z M289.27,15.804V3.756c1.195,0.966,2.4,2.032,3.621,3.142v8.964
		c-0.685,0.069-1.385,0.113-2.117,0.113C290.297,15.976,289.794,15.914,289.27,15.804z M295.31,15.443V9.11
		c1.593,1.458,3.222,2.927,4.9,4.28C298.566,14.361,296.974,15.027,295.31,15.443z"/>
</g>
</svg>
