<?xml version="1.0" encoding="utf-8"?>
<!-- Generator: Adobe Illustrator 16.0.0, SVG Export Plug-In . SVG Version: 6.00 Build 0)  -->
<!DOCTYPE svg PUBLIC "-//W3C//DTD SVG 1.1//EN" "http://www.w3.org/Graphics/SVG/1.1/DTD/svg11.dtd">
<svg version="1.1"
	 id="svg2795" xmlns:cc="http://creativecommons.org/ns#" xmlns:rdf="http://www.w3.org/1999/02/22-rdf-syntax-ns#" xmlns:inkscape="http://www.inkscape.org/namespaces/inkscape" xmlns:sodipodi="http://sodipodi.sourceforge.net/DTD/sodipodi-0.dtd" xmlns:svg="http://www.w3.org/2000/svg" xmlns:dc="http://purl.org/dc/elements/1.1/" inkscape:output_extension="org.inkscape.output.svg.inkscape" sodipodi:docname="WEF logo.svg" sodipodi:version="0.32" inkscape:version="0.46"
	 xmlns="http://www.w3.org/2000/svg" xmlns:xlink="http://www.w3.org/1999/xlink" x="0px" y="0px" width="230px" height="232.823px"
	 viewBox="-30 -30.368 230 232.823" enable-background="new -30 -30.368 230 232.823" xml:space="preserve">
<defs>
	
	
		<inkscape:perspective  id="perspective2803" inkscape:vp_x="0 : 526.18109 : 1" sodipodi:type="inkscape:persp3d" inkscape:vp_z="744.09448 : 526.18109 : 1" inkscape:vp_y="0 : 1000 : 0" inkscape:persp3d-origin="372.04724 : 350.78739 : 1">
		</inkscape:perspective>
</defs>
<sodipodi:namedview  guidetolerance="10" objecttolerance="10" id="base" showgrid="false" inkscape:zoom="1.979899" inkscape:cy="78.88499" inkscape:cx="-3.850061" borderopacity="1.0" pagecolor="#ffffff" bordercolor="#666666" gridtolerance="10000" inkscape:window-x="-4" inkscape:window-y="-4" inkscape:pageopacity="0.0" inkscape:window-width="1024" inkscape:window-height="712" inkscape:pageshadow="2" inkscape:current-layer="layer1" inkscape:document-units="px">
	</sodipodi:namedview>
<g id="layer1" transform="translate(-154.16277,-417.1104)" inkscape:label="Layer 1" inkscape:groupmode="layer">
	<path id="path2599" fill="#5A5B5D" d="M207.17,459.879c-0.353-0.994-0.554-2.067-0.554-3.187c0-4.733,3.188-8.989,8.962-8.989
		c1.218,0,2.309,0.201,3.292,0.542c1.048-0.812,2.123-1.59,3.219-2.339c-1.919-1.105-4.145-1.742-6.512-1.742
		c-7.051,0-12.889,5.641-12.889,12.528c0,2.494,0.707,4.771,1.928,6.687c0.29-0.427,0.574-0.851,0.874-1.269
		C206.034,461.351,206.596,460.61,207.17,459.879"/>
	<path id="path2601" fill="#5A5B5D" d="M224.283,447.488c-1.013,0.674-2,1.372-2.972,2.098c2.108,1.684,3.23,4.309,3.23,7.106
		c0,4.922-3.643,8.986-8.963,8.986c-3.014,0-5.487-1.306-7.066-3.335c-0.305,0.401-0.614,0.803-0.903,1.217
		c-0.451,0.626-0.889,1.261-1.311,1.9c2.348,2.341,5.638,3.76,9.283,3.76c7.114,0,12.893-5.388,12.893-12.528
		C228.467,453.064,226.847,449.784,224.283,447.488"/>
	<path id="path2603" fill="#5A5B5D" d="M201.562,489.301c0,3.787-2.163,7.063-5.581,8.37c-0.022,0.691-0.039,1.381-0.039,2.071
		c0,0.56,0.009,1.113,0.026,1.667c5.481-1.394,9.525-6.137,9.525-12.108c0-4.38-2.372-8.258-5.91-10.5
		c-0.415,1.15-0.791,2.311-1.134,3.485C200.484,483.972,201.562,486.553,201.562,489.301"/>
	<path id="path2605" fill="#5A5B5D" d="M193.389,498.252c-0.258,0.019-0.517,0.033-0.788,0.033c-5.317,0-8.958-4.063-8.958-8.985
		c0-4.733,3.184-8.989,8.958-8.989c1.33,0,2.516,0.234,3.557,0.641c0.344-1.114,0.699-2.223,1.099-3.317
		c-1.447-0.553-3.019-0.862-4.657-0.862c-7.047,0-12.89,5.641-12.89,12.528c0,7.14,5.775,12.529,12.89,12.529
		c0.266,0,0.532-0.011,0.796-0.028c-0.025-0.685-0.036-1.371-0.036-2.059C193.36,499.246,193.378,498.747,193.389,498.252"/>
	<path id="path2607" fill="#5A5B5D" d="M201.855,513.078c5.776,0,8.958,4.255,8.958,8.986c0,4.142-2.586,7.667-6.574,8.684
		c0.615,1.063,1.269,2.108,1.949,3.139c4.982-1.681,8.557-6.207,8.557-11.822c0-6.885-5.843-12.525-12.891-12.525
		c-1.76,0-3.442,0.349-4.979,0.985c0.204,1.172,0.446,2.341,0.718,3.497C198.802,513.426,200.22,513.078,201.855,513.078"/>
	<path id="path2609" fill="#5A5B5D" d="M192.894,522.064c0-2.431,0.844-4.731,2.45-6.401c-0.324-1.271-0.604-2.553-0.849-3.852
		c-3.329,2.273-5.527,6.027-5.527,10.252c0,7.138,5.775,12.527,12.889,12.527c0.563,0,1.119-0.038,1.663-0.105
		c-0.727-1.134-1.415-2.287-2.064-3.456C196.354,530.828,192.894,526.86,192.894,522.064"/>
	<path id="path2611" fill="#00529C" d="M303.313,549.868c-11.973,9.747-27.121,15.114-42.752,15.114
		c-15.992,0-31.456-5.609-43.551-15.787l-1.984,2.25c12.652,10.635,28.821,16.495,45.535,16.495c16.35,0,32.199-5.606,44.725-15.819
		L303.313,549.868z"/>
	<path id="path2613" fill="#5A5B5D" d="M264.437,510.085v14.499c0,3.354-1.102,6.468-5.408,6.468c-4.307,0-5.402-3.112-5.402-6.468
		v-14.499h-3.958v15.194c0,5.291,3.362,9.34,9.36,9.34c6.007,0,9.367-4.048,9.367-9.34v-15.194H264.437z"/>
	<path id="path2615" fill="#5A5B5D" d="M267.591,465.328h10.806v3.373H263.66v-24.034h3.931V465.328z"/>
	<path id="path2617" fill="#5A5B5D" d="M134.561,477.335h14.076v3.477H138.49v5.673h9.855v3.48h-9.855v7.929h10.147v3.477h-14.076
		V477.335z"/>
	<path id="path2619" fill="#5A5B5D" d="M213.68,476.083l16.531,16.908v-15.656h3.927v24.99l-16.533-16.8v15.845h-3.926V476.083z"/>
	<path id="path2621" fill="#5A5B5D" d="M316.199,501.37h-3.932v-24.035h3.932V501.37z"/>
	<path id="path2623" fill="#5A5B5D" d="M173.259,513.523v5.709h8.551v3.476h-8.551v11.374h-3.927v-24.036h12.768v3.478H173.259z"/>
	<path id="path2625" fill="#5A5B5D" d="M189.171,459.695h0.062l3.838-15.036h3.917l-6.742,25.056l-8.454-18.095l-8.451,18.095
		l-6.745-25.056h3.917l3.842,15.036h0.064l7.375-15.544L189.171,459.695z"/>
	<path id="path2627" fill="#5A5B5D" d="M281.065,486.336h-0.063l-3.845,15.033h-3.917l6.743-25.057l8.455,18.097l8.457-18.097
		l6.736,25.057h-3.917l-3.837-15.033h-0.065l-7.374,15.545L281.065,486.336z"/>
	<path id="path2629" fill="#5A5B5D" d="M283.216,519.076h-0.063l-3.846,15.03h-3.915l6.743-25.055l8.451,18.096l8.452-18.097
		l6.745,25.056h-3.917l-3.839-15.035h-0.063l-7.378,15.545L283.216,519.076z"/>
	<path id="path2631" fill="#5A5B5D" d="M227.156,520.803h1.842c3.129,0,6.848,0.059,6.848-3.772c0-3.758-3.977-3.673-7.011-3.673
		h-1.679L227.156,520.803L227.156,520.803z M229.745,510.053c2.187,0,4.75,0.031,6.709,1.112c2.054,1.18,3.231,3.444,3.231,5.74
		c0,3.443-2.35,6.313-5.907,6.726l7.769,10.456h-4.477l-7.246-10.169h-2.669v10.169h-3.927v-24.034H229.745z"/>
	<path id="path2633" fill="#5A5B5D" d="M240.647,455.412h1.832c3.136,0,6.858,0.059,6.858-3.771c0-3.758-3.986-3.671-7.014-3.671
		h-1.677V455.412L240.647,455.412z M243.232,444.664c2.19,0,4.754,0.031,6.708,1.116c2.063,1.179,3.232,3.439,3.232,5.735
		c0,3.444-2.352,6.313-5.905,6.727l7.771,10.457h-4.481l-7.243-10.169h-2.668v10.169h-3.932v-24.035H243.232z"/>
	<path id="path2635" fill="#5A5B5D" d="M285.399,444.668h6.598c7.535,0,13.803,3.72,13.803,11.891c0,8.325-6.134,12.145-13.9,12.145
		h-6.498L285.399,444.668L285.399,444.668z M289.332,465.309h2.298c5.268,0,10.238-1.902,10.238-8.768
		c0-6.864-4.971-8.57-10.238-8.57h-2.298V465.309L289.332,465.309z"/>
	<path id="path2637" fill="#5A5B5D" d="M342.49,497.24c-1.266,0.683-2.743,1.065-4.382,1.065c-5.318,0-8.965-4.063-8.965-8.985
		c0-4.733,3.193-8.989,8.965-8.989c1.697,0,3.17,0.369,4.404,1.011l1.993-2.872c-1.891-1.064-4.073-1.678-6.397-1.678
		c-7.045,0-12.889,5.64-12.889,12.528c0,7.14,5.779,12.529,12.889,12.529c2.354,0,4.552-0.594,6.453-1.639L342.49,497.24z"/>
	<path id="path2639" fill="#5A5B5D" d="M173.411,497.24c-1.261,0.683-2.743,1.065-4.379,1.065c-5.318,0-8.961-4.063-8.961-8.985
		c0-4.733,3.184-8.989,8.961-8.989c1.695,0,3.169,0.369,4.403,1.011l1.992-2.872c-1.889-1.064-4.077-1.678-6.395-1.678
		c-7.05,0-12.889,5.64-12.889,12.528c0,7.14,5.776,12.529,12.889,12.529c2.351,0,4.554-0.594,6.453-1.639L173.411,497.24z"/>
	<path id="path2641" fill="#00529C" d="M302.746,549.217c-11.815,9.623-26.761,14.91-42.185,14.91
		c-17.609,0-34.155-6.693-46.604-18.853c-12.449-12.164-19.306-28.331-19.306-45.533c0-13.298,4.112-26.059,11.9-36.907
		c7.608-10.608,18.148-18.648,30.479-23.255l-0.473-1.211c-12.582,4.699-23.332,12.9-31.098,23.72
		c-7.939,11.072-12.135,24.094-12.135,37.653c0,17.546,6.996,34.04,19.696,46.445c12.698,12.405,29.58,19.243,47.54,19.243
		c15.747,0,30.992-5.406,43.05-15.229L302.746,549.217z"/>
	<path id="path2643" fill="#5A5B5D" d="M268.164,489.321c0,7.14-5.78,12.529-12.893,12.529c-7.118,0-12.895-5.389-12.895-12.529
		c0-6.888,5.843-12.528,12.895-12.528C262.322,476.793,268.164,482.434,268.164,489.321 M264.232,489.321
		c0-4.733-3.185-8.985-8.961-8.985c-5.779,0-8.963,4.252-8.963,8.985c0,4.922,3.645,8.99,8.963,8.99
		C260.586,498.306,264.232,494.243,264.232,489.321"/>
</g>
</svg>
