<?xml version="1.0" encoding="utf-8"?>
<!-- Generator: Adobe Illustrator 16.0.0, SVG Export Plug-In . SVG Version: 6.00 Build 0)  -->
<!DOCTYPE svg PUBLIC "-//W3C//DTD SVG 1.1//EN" "http://www.w3.org/Graphics/SVG/1.1/DTD/svg11.dtd">
<svg version="1.1" id="Layer_1" xmlns="http://www.w3.org/2000/svg" xmlns:xlink="http://www.w3.org/1999/xlink" x="0px" y="0px"
	 width="255.118px" height="255.118px" viewBox="0 0 255.118 255.118" enable-background="new 0 0 255.118 255.118"
	 xml:space="preserve">
<circle fill="#D32F2F" cx="127.558" cy="127.559" r="123.28"/>
<g>
	<g enable-background="new    ">
		<path fill="#FFFFFF" d="M172.604,196.124l1.332-0.798c0.938,1.726,2.019,2.586,3.247,2.586c0.524,0,1.02-0.122,1.48-0.366
			c0.462-0.248,0.813-0.572,1.054-0.984c0.244-0.413,0.364-0.85,0.364-1.312c0-0.525-0.177-1.04-0.533-1.544
			c-0.488-0.696-1.383-1.534-2.683-2.513c-1.305-0.988-2.12-1.699-2.438-2.142c-0.556-0.738-0.833-1.535-0.833-2.395
			c0-0.682,0.164-1.305,0.489-1.866c0.329-0.561,0.786-1,1.38-1.325c0.594-0.324,1.235-0.486,1.933-0.486
			c0.739,0,1.429,0.183,2.071,0.549c0.643,0.367,1.322,1.038,2.04,2.018l-1.279,0.972c-0.588-0.78-1.092-1.297-1.505-1.545
			c-0.416-0.248-0.869-0.373-1.359-0.373c-0.633,0-1.147,0.192-1.55,0.575c-0.401,0.384-0.603,0.855-0.603,1.418
			c0,0.339,0.071,0.672,0.216,0.99c0.139,0.321,0.402,0.669,0.775,1.044c0.208,0.2,0.881,0.718,2.023,1.569
			c1.357,0.997,2.288,1.891,2.791,2.673c0.507,0.78,0.759,1.566,0.759,2.352c0,1.138-0.431,2.124-1.296,2.964
			c-0.861,0.834-1.912,1.256-3.146,1.256c-0.952,0-1.813-0.253-2.588-0.76C173.967,198.167,173.257,197.318,172.604,196.124z"/>
		<path fill="#FFFFFF" d="M196.387,187.453v11.59h-1.47v-1.993c-0.624,0.761-1.325,1.334-2.104,1.717
			c-0.778,0.383-1.628,0.573-2.549,0.573c-1.642,0-3.043-0.594-4.204-1.783c-1.162-1.188-1.739-2.635-1.739-4.34
			c0-1.669,0.584-3.096,1.757-4.281c1.173-1.187,2.583-1.78,4.229-1.78c0.949,0,1.81,0.203,2.581,0.607
			c0.771,0.405,1.448,1.01,2.029,1.821v-2.131H196.387z M190.43,188.593c-0.833,0-1.598,0.205-2.303,0.612
			c-0.702,0.407-1.262,0.979-1.674,1.719c-0.415,0.738-0.623,1.518-0.623,2.34c0,0.815,0.211,1.599,0.628,2.343
			c0.419,0.745,0.981,1.323,1.687,1.739c0.704,0.413,1.461,0.621,2.273,0.621c0.815,0,1.587-0.208,2.317-0.617
			c0.729-0.409,1.293-0.968,1.686-1.67c0.396-0.702,0.592-1.493,0.592-2.374c0-1.339-0.442-2.461-1.325-3.36
			C192.804,189.046,191.718,188.593,190.43,188.593z M189.977,182.021l2.32,3.281h-1.472l-3.141-3.281H189.977z"/>
		<path fill="#FFFFFF" d="M199.179,187.453h1.522v1.696c0.454-0.67,0.936-1.168,1.438-1.498c0.505-0.328,1.03-0.496,1.576-0.496
			c0.411,0,0.854,0.132,1.322,0.394l-0.778,1.259c-0.313-0.135-0.576-0.202-0.788-0.202c-0.498,0-0.979,0.204-1.439,0.611
			c-0.46,0.408-0.811,1.041-1.053,1.9c-0.187,0.659-0.276,1.995-0.276,4.008v3.918h-1.524L199.179,187.453L199.179,187.453z"/>
		<path fill="#FFFFFF" d="M206.08,182.979h1.491v16.063h-1.491V182.979z"/>
	</g>
	<g enable-background="new    ">
		<path fill="#FFFFFF" d="M48.459,181.315h4.024v14.362h7.049v3.365H48.459V181.315z"/>
		<path fill="#FFFFFF" d="M72.447,191.545h-6.523v4.21h7.284v3.287H61.899v-17.728H72.84v3.286h-6.917v3.682h6.523V191.545z"/>
		<path fill="#FFFFFF" d="M75.944,181.315h10.835v3.287h-6.813v4.05h6.365v3.265h-6.365v7.128h-4.022V181.315L75.944,181.315z"/>
		<path fill="#FFFFFF" d="M93.222,184.68h-4.758v-3.365h13.623v3.365h-4.84v14.362h-4.022V184.68H93.222z"/>
		<path fill="#FFFFFF" d="M104.219,181.315h4.021v14.362h7.051v3.365h-11.072V181.315z"/>
		<path fill="#FFFFFF" d="M121.944,194.492l-1.263,4.551h-4.153l5.417-17.729h5.262l5.498,17.729h-4.316l-1.365-4.551H121.944z
			 M126.442,191.494l-1.106-3.761c-0.316-1.052-0.632-2.368-0.895-3.421h-0.052c-0.263,1.051-0.525,2.396-0.815,3.421l-1.052,3.761
			H126.442z"/>
		<path fill="#FFFFFF" d="M135.068,199.042v-17.728h4.681l3.683,6.497c1.051,1.867,2.103,4.077,2.894,6.076h0.079
			c-0.265-2.34-0.343-4.735-0.343-7.392v-5.184h3.682v17.729h-4.208l-3.788-6.839c-1.053-1.894-2.208-4.18-3.078-6.261l-0.077,0.028
			c0.103,2.34,0.158,4.837,0.158,7.732v5.339H135.068L135.068,199.042z"/>
		<path fill="#FFFFFF" d="M163.763,191.545h-6.522v4.21h7.284v3.287h-11.311v-17.728h10.939v3.286h-6.917v3.682h6.524v3.262
			L163.763,191.545L163.763,191.545z"/>
	</g>
</g>
<g>
	<path fill="#FFFFFF" d="M124.727,156.971c1.445-18.369,4.979-36.433,8.874-54.441c3.356-15.495,7.009-30.931,12.405-45.94
		c1.936-5.381,3.329-6.189,9.087-4.857c4.556,1.055,9.067,2.321,13.509,3.741c4.166,1.331,4.76,2.678,3.457,6.488
		c-9.471,27.775-15.348,56.318-20.428,85.031c-1.136,6.441-1.969,12.936-2.858,19.41c-0.388,2.854-2.007,3.699-4.874,3.258
		c-5.24-0.813-10.229-2.419-15.26-3.941c-3.05-0.92-4.35-2.801-4.079-5.757C124.651,158.965,124.673,157.967,124.727,156.971z"/>
	<path fill="#FFFFFF" d="M85.411,160.544c0.842-15.128,3.387-29.436,6.208-43.698c3.91-19.796,8.217-39.514,14.802-58.709
		c2.568-7.474,3.375-7.879,11.372-5.962c3.975,0.952,7.928,2.04,11.801,3.302c4.115,1.34,4.714,2.708,3.422,6.516
		c-9.786,28.851-15.856,58.483-20.964,88.318c-0.899,5.246-1.56,10.524-2.25,15.801c-0.379,2.879-1.815,4.066-4.985,3.541
		c-5.343-0.892-10.503-2.35-15.563-4.133C86.119,164.412,85.367,163.181,85.411,160.544z"/>
</g>
</svg>
