<?xml version="1.0" encoding="utf-8"?>
<!-- Generator: Adobe Illustrator 16.0.0, SVG Export Plug-In . SVG Version: 6.00 Build 0)  -->
<!DOCTYPE svg PUBLIC "-//W3C//DTD SVG 1.1//EN" "http://www.w3.org/Graphics/SVG/1.1/DTD/svg11.dtd">
<svg version="1.1" id="Layer_1" xmlns="http://www.w3.org/2000/svg" xmlns:xlink="http://www.w3.org/1999/xlink" x="0px" y="0px"
	 width="255.118px" height="255.118px" viewBox="0 0 255.118 255.118" enable-background="new 0 0 255.118 255.118"
	 xml:space="preserve">
<g>
	<g enable-background="new    ">
		<path fill="#D32F2F" d="M172.604,196.124l1.332-0.797c0.938,1.725,2.02,2.586,3.247,2.586c0.524,0,1.021-0.123,1.479-0.367
			c0.463-0.248,0.813-0.571,1.055-0.983c0.244-0.413,0.363-0.851,0.363-1.312c0-0.525-0.177-1.041-0.533-1.545
			c-0.487-0.695-1.383-1.533-2.682-2.513c-1.306-0.987-2.121-1.698-2.439-2.142c-0.555-0.738-0.832-1.535-0.832-2.395
			c0-0.683,0.164-1.306,0.488-1.867c0.33-0.561,0.787-1,1.381-1.324s1.234-0.486,1.933-0.486c0.739,0,1.429,0.184,2.071,0.549
			c0.643,0.367,1.322,1.038,2.039,2.018l-1.278,0.973c-0.588-0.779-1.093-1.297-1.505-1.545c-0.416-0.248-0.869-0.373-1.359-0.373
			c-0.633,0-1.146,0.191-1.55,0.574c-0.401,0.385-0.603,0.855-0.603,1.418c0,0.34,0.07,0.673,0.215,0.99
			c0.14,0.321,0.402,0.67,0.775,1.045c0.209,0.199,0.881,0.718,2.023,1.568c1.357,0.997,2.288,1.891,2.791,2.674
			c0.507,0.779,0.759,1.565,0.759,2.352c0,1.138-0.431,2.124-1.296,2.964c-0.861,0.834-1.912,1.256-3.146,1.256
			c-0.951,0-1.813-0.253-2.588-0.76C173.967,198.167,173.256,197.318,172.604,196.124z"/>
		<path fill="#D32F2F" d="M196.387,187.454v11.59h-1.471v-1.994c-0.623,0.762-1.324,1.334-2.104,1.718
			c-0.777,0.383-1.628,0.573-2.549,0.573c-1.643,0-3.043-0.594-4.204-1.783c-1.162-1.188-1.739-2.635-1.739-4.34
			c0-1.67,0.584-3.096,1.758-4.281c1.172-1.188,2.582-1.779,4.229-1.779c0.949,0,1.811,0.202,2.581,0.606
			c0.771,0.405,1.448,1.01,2.028,1.821v-2.131H196.387z M190.43,188.592c-0.833,0-1.598,0.205-2.303,0.613
			c-0.703,0.406-1.262,0.979-1.674,1.719c-0.416,0.738-0.623,1.518-0.623,2.34c0,0.814,0.211,1.599,0.627,2.343
			c0.42,0.745,0.981,1.323,1.688,1.739c0.704,0.412,1.461,0.621,2.273,0.621c0.814,0,1.586-0.209,2.316-0.617
			c0.729-0.409,1.293-0.969,1.686-1.67c0.396-0.702,0.593-1.493,0.593-2.374c0-1.339-0.442-2.462-1.325-3.36
			C192.804,189.045,191.717,188.592,190.43,188.592z M189.977,182.021l2.32,3.28h-1.473l-3.141-3.28H189.977z"/>
		<path fill="#D32F2F" d="M199.179,187.454h1.522v1.695c0.453-0.67,0.936-1.168,1.438-1.498c0.505-0.328,1.029-0.496,1.576-0.496
			c0.41,0,0.854,0.133,1.322,0.395l-0.779,1.259c-0.313-0.136-0.575-0.202-0.787-0.202c-0.498,0-0.979,0.204-1.439,0.611
			c-0.459,0.408-0.811,1.041-1.053,1.9c-0.188,0.658-0.275,1.994-0.275,4.008v3.918h-1.524V187.454L199.179,187.454z"/>
		<path fill="#D32F2F" d="M206.081,182.979h1.49v16.063h-1.49V182.979z"/>
	</g>
	<g enable-background="new    ">
		<path fill="#D32F2F" d="M48.459,181.315h4.024v14.361h7.049v3.365H48.459V181.315z"/>
		<path fill="#D32F2F" d="M72.447,191.545h-6.523v4.209h7.284v3.287H61.899v-17.728H72.84v3.286h-6.917v3.682h6.523L72.447,191.545
			L72.447,191.545z"/>
		<path fill="#D32F2F" d="M75.944,181.315h10.835v3.287h-6.813v4.05h6.365v3.265h-6.365v7.129h-4.022V181.315L75.944,181.315z"/>
		<path fill="#D32F2F" d="M93.222,184.68h-4.758v-3.365h13.623v3.365h-4.84v14.361h-4.022V184.68H93.222z"/>
		<path fill="#D32F2F" d="M104.219,181.315h4.021v14.361h7.051v3.365h-11.072L104.219,181.315L104.219,181.315z"/>
		<path fill="#D32F2F" d="M121.944,194.493l-1.263,4.551h-4.153l5.417-17.729h5.262l5.499,17.729h-4.316l-1.365-4.551H121.944z
			 M126.442,191.495l-1.106-3.762c-0.316-1.052-0.632-2.367-0.895-3.421h-0.052c-0.263,1.051-0.525,2.396-0.815,3.421l-1.052,3.762
			H126.442z"/>
		<path fill="#D32F2F" d="M135.068,199.042v-17.728h4.681l3.684,6.497c1.051,1.867,2.104,4.077,2.895,6.076h0.078
			c-0.265-2.34-0.343-4.735-0.343-7.393v-5.184h3.683v17.729h-4.209l-3.787-6.838c-1.054-1.895-2.209-4.181-3.078-6.262
			l-0.078,0.027c0.104,2.341,0.158,4.838,0.158,7.732v5.34h-3.683V199.042z"/>
		<path fill="#D32F2F" d="M163.763,191.545h-6.522v4.209h7.284v3.287h-11.312v-17.728h10.939v3.286h-6.917v3.682h6.524v3.262
			L163.763,191.545L163.763,191.545z"/>
	</g>
</g>
<g>
	<path fill="#D32F2F" d="M124.727,156.971c1.445-18.369,4.979-36.433,8.874-54.441c3.356-15.495,7.009-30.931,12.405-45.94
		c1.936-5.381,3.328-6.189,9.086-4.857c4.557,1.055,9.068,2.321,13.51,3.741c4.166,1.331,4.76,2.678,3.457,6.488
		c-9.471,27.775-15.348,56.318-20.428,85.031c-1.137,6.441-1.969,12.937-2.858,19.41c-0.388,2.854-2.007,3.699-4.874,3.258
		c-5.24-0.813-10.229-2.418-15.26-3.941c-3.05-0.92-4.35-2.801-4.079-5.756C124.651,158.965,124.673,157.967,124.727,156.971z"/>
	<path fill="#D32F2F" d="M85.411,160.543c0.842-15.127,3.387-29.436,6.208-43.697c3.91-19.796,8.217-39.514,14.802-58.709
		c2.568-7.474,3.375-7.879,11.372-5.962c3.975,0.952,7.928,2.04,11.801,3.302c4.115,1.34,4.714,2.708,3.422,6.516
		c-9.786,28.851-15.856,58.483-20.964,88.318c-0.899,5.246-1.56,10.523-2.25,15.801c-0.379,2.879-1.815,4.066-4.985,3.541
		c-5.343-0.893-10.503-2.35-15.563-4.133C86.119,164.413,85.367,163.181,85.411,160.543z"/>
</g>
</svg>
