<?xml version="1.0" encoding="utf-8"?>
<!-- Generator: Adobe Illustrator 16.0.0, SVG Export Plug-In . SVG Version: 6.00 Build 0)  -->
<!DOCTYPE svg PUBLIC "-//W3C//DTD SVG 1.1//EN" "http://www.w3.org/Graphics/SVG/1.1/DTD/svg11.dtd">
<svg version="1.1" id="Layer_1" xmlns="http://www.w3.org/2000/svg" xmlns:xlink="http://www.w3.org/1999/xlink" x="0px" y="0px"
	 width="521.707px" height="170.657px" viewBox="0 0 521.707 170.657" enable-background="new 0 0 521.707 170.657"
	 xml:space="preserve">
<g>
	<g>
		<defs>
			<rect id="SVGID_1_" x="0" width="521.707" height="170.657"/>
		</defs>
		<clipPath id="SVGID_2_">
			<use xlink:href="#SVGID_1_"  overflow="visible"/>
		</clipPath>
		<path clip-path="url(#SVGID_2_)" d="M521.709,147.592c0,12.736-10.322,23.064-23.059,23.064H23.062
			C10.328,170.657,0,160.329,0,147.592V23.062C0,10.327,10.328,0,23.062,0h475.589c12.735,0,23.059,10.327,23.059,23.062V147.592z"
			/>
	</g>
	<g>
		<defs>
			<rect id="SVGID_3_" x="0" width="521.707" height="170.657"/>
		</defs>
		<clipPath id="SVGID_4_">
			<use xlink:href="#SVGID_3_"  overflow="visible"/>
		</clipPath>
		<path clip-path="url(#SVGID_4_)" fill="#FFFFFF" d="M136.047,112.804c-2.762,6.122-4.084,8.854-7.639,14.264
			c-4.964,7.556-11.955,16.961-20.619,17.04c-7.701,0.071-9.679-5.012-20.127-4.954c-10.449,0.058-12.632,5.044-20.333,4.974
			c-8.664-0.08-15.291-8.574-20.253-16.127c-13.875-21.121-15.324-45.909-6.769-59.085c6.082-9.365,15.673-14.846,24.694-14.846
			c9.184,0,14.958,5.037,22.551,5.037c7.365,0,11.855-5.045,22.473-5.045c8.025,0,16.529,4.369,22.589,11.928
			C112.762,76.866,115.986,105.224,136.047,112.804"/>
	</g>
	<g>
		<defs>
			<rect id="SVGID_5_" x="0" width="521.707" height="170.657"/>
		</defs>
		<clipPath id="SVGID_6_">
			<use xlink:href="#SVGID_5_"  overflow="visible"/>
		</clipPath>
		<path clip-path="url(#SVGID_6_)" fill="#FFFFFF" d="M101.971,45.622c3.855-4.951,6.787-11.945,5.725-19.092
			c-6.301,0.434-13.674,4.444-17.979,9.67c-3.906,4.746-7.131,11.784-5.875,18.623C90.721,55.036,97.838,50.928,101.971,45.622"/>
	</g>
	<g display="none">
		<defs>
			<rect id="SVGID_7_" x="0" width="521.707" height="170.657"/>
		</defs>
		<defs>
			<rect id="SVGID_8_" x="0" width="521.707" height="170.657"/>
		</defs>
		<defs>
			<rect id="SVGID_9_" x="0" width="521.707" height="170.657"/>
		</defs>
		<defs>
			<rect id="SVGID_10_" x="0" width="521.707" height="170.657"/>
		</defs>
		<defs>
			<rect id="SVGID_11_" x="0" width="521.707" height="170.657"/>
		</defs>
		<defs>
			<rect id="SVGID_12_" x="0" width="521.707" height="170.657"/>
		</defs>
		<defs>
			<rect id="SVGID_13_" x="0" width="521.707" height="170.657"/>
		</defs>
		<defs>
			<rect id="SVGID_14_" x="0" width="521.707" height="170.657"/>
		</defs>
		<defs>
			<rect id="SVGID_15_" x="0" width="521.707" height="170.657"/>
		</defs>
		<defs>
			<rect id="SVGID_16_" x="0" width="521.707" height="170.657"/>
		</defs>
		<defs>
			<rect id="SVGID_17_" x="0" width="521.707" height="170.657"/>
		</defs>
		<defs>
			<rect id="SVGID_18_" x="0" width="521.707" height="170.657"/>
		</defs>
		<defs>
			<rect id="SVGID_19_" x="0" width="521.707" height="170.657"/>
		</defs>
		<defs>
			<rect id="SVGID_20_" x="0" width="521.707" height="170.657"/>
		</defs>
		<defs>
			<rect id="SVGID_21_" x="0" width="521.707" height="170.657"/>
		</defs>
		<defs>
			<rect id="SVGID_22_" x="0" width="521.707" height="170.657"/>
		</defs>
		<defs>
			<rect id="SVGID_23_" x="0" width="521.707" height="170.657"/>
		</defs>
		<defs>
			<rect id="SVGID_24_" x="0" width="521.707" height="170.657"/>
		</defs>
		<defs>
			<rect id="SVGID_25_" x="0" width="521.707" height="170.657"/>
		</defs>
		<defs>
			<rect id="SVGID_26_" x="0" width="521.707" height="170.657"/>
		</defs>
		<defs>
			<rect id="SVGID_27_" x="0" width="521.707" height="170.657"/>
		</defs>
		<clipPath id="SVGID_28_" display="inline">
			<use xlink:href="#SVGID_7_"  overflow="visible"/>
		</clipPath>
		<clipPath id="SVGID_29_" display="inline" clip-path="url(#SVGID_28_)">
			<use xlink:href="#SVGID_8_"  overflow="visible"/>
		</clipPath>
		<clipPath id="SVGID_30_" display="inline" clip-path="url(#SVGID_29_)">
			<use xlink:href="#SVGID_9_"  overflow="visible"/>
		</clipPath>
		<clipPath id="SVGID_31_" display="inline" clip-path="url(#SVGID_30_)">
			<use xlink:href="#SVGID_10_"  overflow="visible"/>
		</clipPath>
		<clipPath id="SVGID_32_" display="inline" clip-path="url(#SVGID_31_)">
			<use xlink:href="#SVGID_11_"  overflow="visible"/>
		</clipPath>
		<clipPath id="SVGID_33_" display="inline" clip-path="url(#SVGID_32_)">
			<use xlink:href="#SVGID_12_"  overflow="visible"/>
		</clipPath>
		<clipPath id="SVGID_34_" display="inline" clip-path="url(#SVGID_33_)">
			<use xlink:href="#SVGID_13_"  overflow="visible"/>
		</clipPath>
		<clipPath id="SVGID_35_" display="inline" clip-path="url(#SVGID_34_)">
			<use xlink:href="#SVGID_14_"  overflow="visible"/>
		</clipPath>
		<clipPath id="SVGID_36_" display="inline" clip-path="url(#SVGID_35_)">
			<use xlink:href="#SVGID_15_"  overflow="visible"/>
		</clipPath>
		<clipPath id="SVGID_37_" display="inline" clip-path="url(#SVGID_36_)">
			<use xlink:href="#SVGID_16_"  overflow="visible"/>
		</clipPath>
		<clipPath id="SVGID_38_" display="inline" clip-path="url(#SVGID_37_)">
			<use xlink:href="#SVGID_17_"  overflow="visible"/>
		</clipPath>
		<clipPath id="SVGID_39_" display="inline" clip-path="url(#SVGID_38_)">
			<use xlink:href="#SVGID_18_"  overflow="visible"/>
		</clipPath>
		<clipPath id="SVGID_40_" display="inline" clip-path="url(#SVGID_39_)">
			<use xlink:href="#SVGID_19_"  overflow="visible"/>
		</clipPath>
		<clipPath id="SVGID_41_" display="inline" clip-path="url(#SVGID_40_)">
			<use xlink:href="#SVGID_20_"  overflow="visible"/>
		</clipPath>
		<clipPath id="SVGID_42_" display="inline" clip-path="url(#SVGID_41_)">
			<use xlink:href="#SVGID_21_"  overflow="visible"/>
		</clipPath>
		<clipPath id="SVGID_43_" display="inline" clip-path="url(#SVGID_42_)">
			<use xlink:href="#SVGID_22_"  overflow="visible"/>
		</clipPath>
		<clipPath id="SVGID_44_" display="inline" clip-path="url(#SVGID_43_)">
			<use xlink:href="#SVGID_23_"  overflow="visible"/>
		</clipPath>
		<clipPath id="SVGID_45_" display="inline" clip-path="url(#SVGID_44_)">
			<use xlink:href="#SVGID_24_"  overflow="visible"/>
		</clipPath>
		<clipPath id="SVGID_46_" display="inline" clip-path="url(#SVGID_45_)">
			<use xlink:href="#SVGID_25_"  overflow="visible"/>
		</clipPath>
		<clipPath id="SVGID_47_" display="inline" clip-path="url(#SVGID_46_)">
			<use xlink:href="#SVGID_26_"  overflow="visible"/>
		</clipPath>
		<clipPath id="SVGID_48_" display="inline" clip-path="url(#SVGID_47_)">
			<use xlink:href="#SVGID_27_"  overflow="visible"/>
		</clipPath>
		<path display="inline" clip-path="url(#SVGID_48_)" fill="#FFFFFF" d="M178.316,68.595l-19.875,58.504h9.103l5.933-17.964h19.244
			l6.102,17.964h9.354l-19.96-58.504H178.316z M183.032,78.214c0.671,2.611,1.395,5.323,2.325,8.253l5.357,15.513H175.47
			l5.282-15.612C181.556,83.835,182.32,81.101,183.032,78.214"/>
		<path display="inline" clip-path="url(#SVGID_48_)" fill="#FFFFFF" d="M233.894,83.761c-6.029,0-10.856,2.328-14.072,6.751
			l-0.353-5.819h-8.096l0.048,0.744c0.239,3.625,0.338,7.614,0.338,13.343v45.094h8.852v-21.043c2.746,3.285,7.132,5.198,12.1,5.198
			c5.174,0,9.939-2.026,13.413-5.702c3.877-4.098,5.922-9.988,5.922-17.025c0-6.219-1.776-11.596-5.143-15.545
			C243.606,85.89,238.988,83.761,233.894,83.761 M231.689,91.088c7.892,0,11.422,7.31,11.422,14.554
			c0,9.343-4.506,15.146-11.758,15.146c-4.951,0-9.233-3.369-10.428-8.213c-0.205-0.75-0.314-1.744-0.314-2.865v-7.119
			c0-0.645,0.145-1.426,0.281-2.184c0.044-0.242,0.092-0.484,0.127-0.72C222.339,94.622,226.721,91.088,231.689,91.088"/>
		<path display="inline" clip-path="url(#SVGID_48_)" fill="#FFFFFF" d="M279.474,83.761c-6.026,0-10.854,2.328-14.072,6.751
			l-0.354-5.819h-8.093l0.044,0.744c0.241,3.629,0.342,7.614,0.342,13.343v45.094h8.853v-21.043
			c2.746,3.285,7.128,5.198,12.097,5.198c5.173,0,9.938-2.026,13.418-5.702c3.872-4.098,5.919-9.988,5.919-17.025
			c0-6.219-1.779-11.596-5.146-15.545C289.186,85.89,284.568,83.761,279.474,83.761 M277.271,91.088
			c7.888,0,11.419,7.31,11.419,14.554c0,9.343-4.51,15.146-11.758,15.146c-4.948,0-9.235-3.369-10.428-8.213
			c-0.205-0.75-0.313-1.744-0.313-2.865v-7.119c0-0.647,0.143-1.434,0.281-2.191c0.044-0.238,0.088-0.477,0.128-0.711
			C267.918,94.622,272.302,91.088,277.271,91.088"/>
		<path display="inline" clip-path="url(#SVGID_48_)" fill="#FFFFFF" d="M336.576,93.383c-8.262-3.198-10.906-5.715-10.906-10.362
			c0-3.914,3.107-7.862,10.06-7.862c5.735,0,9.403,1.995,10.392,2.609l0.75,0.463l2.498-7.387l-0.494-0.289
			c-1.482-0.869-5.709-2.892-12.891-2.892c-11.288,0-19.172,6.664-19.172,16.202c0,7.693,4.938,13.07,15.536,16.922
			c7.512,2.809,10.308,5.685,10.308,10.614c0,5.581-4.312,9.044-11.251,9.044c-4.519,0-9.169-1.316-12.758-3.617l-0.767-0.492
			l-2.376,7.559l0.436,0.289c3.342,2.23,9.631,3.848,14.959,3.848c15.213,0,20.608-9.277,20.608-17.222
			C351.508,102.62,347.183,97.57,336.576,93.383"/>
		<path display="inline" clip-path="url(#SVGID_48_)" fill="#FFFFFF" d="M367.44,74.613l-8.682,2.726v7.353h-6.354v7.074h6.354
			v21.67c0,5.238,1.002,8.91,3.064,11.23c1.979,2.168,5.02,3.361,8.563,3.361c3.347,0,5.724-0.66,6.842-1.057l0.496-0.176
			l-0.424-7.088l-0.85,0.262c-1.119,0.344-2.269,0.476-4.116,0.476c-3.431,0-4.896-2.17-4.896-7.265V91.767h10.679v-7.074H367.44
			V74.613z"/>
		<path display="inline" clip-path="url(#SVGID_48_)" fill="#FFFFFF" d="M400.055,83.761c-12.386,0-21.033,9.244-21.033,22.472
			c0,12.834,8.369,21.796,20.354,21.796h0.081c10.135,0,21.033-7.059,21.033-22.558c0-6.303-1.949-11.715-5.64-15.656
			C411.139,85.856,406.02,83.761,400.055,83.761 M399.799,90.749c7.963,0,11.588,7.764,11.588,14.979
			c0,8.873-4.947,15.313-11.756,15.313h-0.087c-6.714,0-11.587-6.334-11.587-15.059C387.957,98.401,391.619,90.749,399.799,90.749"
			/>
		<path display="inline" clip-path="url(#SVGID_48_)" fill="#FFFFFF" d="M447.603,84.172l-0.53-0.135
			c-0.779-0.194-1.416-0.276-2.201-0.276c-4.631,0-8.785,2.727-11.098,7.126l-0.261-6.194h-7.942l0.051,0.744
			c0.236,3.504,0.334,7.437,0.334,12.746l-0.081,28.916h8.851v-22.56c0-1.229,0.084-2.389,0.244-3.431
			c0.998-5.418,4.655-8.921,9.313-8.921c0.905,0,1.619,0.074,2.375,0.148l0.946,0.098V84.172L447.603,84.172z"/>
		<path display="inline" clip-path="url(#SVGID_48_)" fill="#FFFFFF" d="M467.504,83.677c-11.783,0-20.016,9.416-20.016,22.896
			c0,12.981,8.188,21.372,20.861,21.372c6.665,0,11.301-1.463,14.014-2.688l0.533-0.238l-1.701-6.598l-0.736,0.299
			c-2.412,0.98-5.619,1.982-11.092,1.982c-3.846,0-12.715-1.268-13.258-12.834l28.571,0.086l0.115-0.564
			c0.179-0.898,0.265-2.111,0.265-3.694C485.062,94.459,480.465,83.677,467.504,83.677 M466.913,90.411
			c2.694,0,4.884,0.834,6.497,2.479c2.549,2.592,2.992,6.407,3.051,8.239h-20.188C457.096,96.019,460.293,90.411,466.913,90.411"/>
		<path display="inline" clip-path="url(#SVGID_48_)" fill="#FFFFFF" d="M158.44,28.63c2.466-0.328,5.343-0.574,8.491-0.574
			c5.707,0,9.77,1.15,12.463,3.41c2.784,2.258,4.382,5.504,4.382,9.982c0,4.519-1.598,8.215-4.427,10.763
			c-2.922,2.588-7.67,3.985-13.649,3.985c-2.877,0-5.204-0.082-7.26-0.329V28.63z M162.458,53.156
			c1.004,0.164,2.465,0.164,4.018,0.164c8.49,0.04,13.1-4.272,13.1-11.749c0.046-6.614-4.063-10.682-12.462-10.682
			c-2.052,0-3.605,0.167-4.655,0.37V53.156z"/>
		<path display="inline" clip-path="url(#SVGID_48_)" fill="#FFFFFF" d="M198.013,56.401c-5.935,0-10.59-3.943-10.59-10.229
			c0-6.655,4.884-10.558,10.955-10.558c6.346,0,10.635,4.148,10.635,10.188c0,7.396-5.705,10.599-10.953,10.599H198.013z
			 M198.15,53.689c3.834,0,6.711-3.245,6.711-7.765c0-3.368-1.872-7.599-6.618-7.599c-4.703,0-6.758,3.944-6.758,7.723
			c0,4.355,2.739,7.641,6.619,7.641H198.15z"/>
		<path display="inline" clip-path="url(#SVGID_48_)" fill="#FFFFFF" d="M215.369,36.065l2.967,10.066
			c0.592,2.218,1.187,4.313,1.597,6.368h0.137c0.502-2.014,1.233-4.15,1.964-6.327l3.605-10.107h3.379l3.424,9.941
			c0.82,2.343,1.46,4.479,1.962,6.493h0.138c0.364-2.014,0.96-4.109,1.688-6.451l3.149-9.983h3.972l-7.121,19.884h-3.651
			l-3.377-9.489c-0.775-2.26-1.416-4.232-1.966-6.574h-0.09c-0.548,2.383-1.231,4.479-2.009,6.615l-3.56,9.448h-3.651l-6.666-19.884
			H215.369z"/>
		<path display="inline" clip-path="url(#SVGID_48_)" fill="#FFFFFF" d="M247.371,41.448c0-2.096-0.046-3.738-0.185-5.383h3.563
			l0.227,3.247h0.092c1.097-1.849,3.652-3.698,7.304-3.698c3.059,0,7.806,1.643,7.806,8.463v11.872h-4.016V44.487
			c0-3.204-1.325-5.914-5.114-5.914c-2.603,0-4.657,1.684-5.386,3.696c-0.184,0.452-0.274,1.109-0.274,1.685v11.995h-4.017
			L247.371,41.448L247.371,41.448z"/>
		<rect x="272.705" y="26.782" display="inline" clip-path="url(#SVGID_48_)" fill="#FFFFFF" width="4.018" height="29.167"/>
		<path display="inline" clip-path="url(#SVGID_48_)" fill="#FFFFFF" d="M292.38,56.401c-5.934,0-10.59-3.943-10.59-10.229
			c0-6.655,4.882-10.558,10.955-10.558c6.344,0,10.635,4.148,10.635,10.188c0,7.396-5.706,10.599-10.955,10.599H292.38z
			 M292.516,53.689c3.835,0,6.712-3.245,6.712-7.765c0-3.368-1.872-7.599-6.618-7.599c-4.703,0-6.758,3.944-6.758,7.723
			c0,4.355,2.738,7.641,6.619,7.641H292.516z"/>
		<path display="inline" clip-path="url(#SVGID_48_)" fill="#FFFFFF" d="M324.016,51.185c0,1.725,0.092,3.408,0.319,4.764h-3.606
			l-0.365-2.504h-0.135c-1.188,1.56-3.609,2.957-6.756,2.957c-4.475,0-6.756-2.834-6.756-5.711c0-4.806,4.745-7.436,13.279-7.395
			v-0.41c0-1.642-0.5-4.642-5.019-4.6c-2.104,0-4.245,0.532-5.797,1.477l-0.914-2.423c1.826-1.026,4.518-1.725,7.304-1.725
			c6.801,0,8.444,4.148,8.444,8.134L324.016,51.185L324.016,51.185z M320.092,45.803c-4.385-0.082-9.358,0.616-9.358,4.479
			c0,2.382,1.733,3.451,3.743,3.451c2.921,0,4.793-1.644,5.431-3.328c0.14-0.369,0.186-0.782,0.186-1.151L320.092,45.803
			L320.092,45.803z"/>
		<path display="inline" clip-path="url(#SVGID_48_)" fill="#FFFFFF" d="M349.532,26.782v24.031c0,1.767,0.049,3.78,0.184,5.136
			h-3.604l-0.183-3.45h-0.092c-1.231,2.218-3.881,3.902-7.485,3.902c-5.343,0-9.496-4.066-9.496-10.106
			c-0.047-6.656,4.565-10.681,9.904-10.681c3.427,0,5.708,1.44,6.667,2.999h0.091V26.782H349.532z M345.518,44.159
			c0-0.493-0.046-1.068-0.186-1.561c-0.591-2.259-2.782-4.149-5.795-4.149c-4.154,0-6.621,3.286-6.621,7.642
			c0,4.066,2.239,7.392,6.529,7.392c2.693,0,5.159-1.642,5.887-4.312c0.14-0.492,0.186-0.987,0.186-1.561V44.159L345.518,44.159z"/>
		<path display="inline" clip-path="url(#SVGID_48_)" fill="#FFFFFF" d="M374.867,56.401c-5.933,0-10.59-3.943-10.59-10.229
			c0-6.655,4.887-10.558,10.956-10.558c6.347,0,10.636,4.148,10.636,10.188c0,7.396-5.707,10.599-10.953,10.599H374.867z
			 M375.007,53.689c3.834,0,6.709-3.245,6.709-7.765c0-3.368-1.868-7.599-6.616-7.599c-4.703,0-6.756,3.944-6.756,7.723
			c0,4.355,2.736,7.641,6.616,7.641H375.007z"/>
		<path display="inline" clip-path="url(#SVGID_48_)" fill="#FFFFFF" d="M390.94,41.448c0-2.096-0.047-3.738-0.184-5.383h3.562
			l0.23,3.247h0.089c1.097-1.849,3.65-3.698,7.303-3.698c3.061,0,7.809,1.643,7.809,8.463v11.872h-4.02V44.487
			c0-3.204-1.321-5.914-5.112-5.914c-2.601,0-4.655,1.684-5.388,3.696c-0.181,0.452-0.271,1.109-0.271,1.685v11.995h-4.018V41.448
			L390.94,41.448z"/>
		<path display="inline" clip-path="url(#SVGID_48_)" fill="#FFFFFF" d="M430.793,31.302v4.764h5.75v2.752h-5.75v10.723
			c0,2.464,0.775,3.861,3.014,3.861c1.093,0,1.732-0.082,2.328-0.246l0.181,2.752c-0.774,0.246-2.007,0.494-3.56,0.494
			c-1.871,0-3.379-0.576-4.338-1.52c-1.098-1.109-1.553-2.877-1.553-5.219V38.818h-3.424v-2.752h3.424V32.41L430.793,31.302z"/>
		<path display="inline" clip-path="url(#SVGID_48_)" fill="#FFFFFF" d="M441.064,26.782h4.016v12.406h0.094
			c0.637-1.027,1.642-1.971,2.877-2.547c1.187-0.656,2.599-1.027,4.107-1.027c2.965,0,7.713,1.643,7.713,8.504v11.831h-4.016v-11.42
			c0-3.246-1.324-5.916-5.113-5.916c-2.603,0-4.609,1.644-5.387,3.615c-0.229,0.493-0.275,1.027-0.275,1.726v11.995h-4.016V26.782
			L441.064,26.782z"/>
		<path display="inline" clip-path="url(#SVGID_48_)" fill="#FFFFFF" d="M468.682,46.624c0.093,4.889,3.517,6.902,7.533,6.902
			c2.875,0,4.654-0.453,6.119-0.987l0.729,2.547c-1.418,0.575-3.882,1.274-7.396,1.274c-6.759,0-10.864-4.068-10.864-10.023
			c0-6.039,3.972-10.764,10.405-10.764c7.216,0,9.084,5.71,9.084,9.367c0,0.74-0.044,1.315-0.136,1.725L468.682,46.624z
			 M480.414,44.036c0.045-2.26-1.051-5.875-5.523-5.875c-4.11,0-5.844,3.369-6.163,5.875H480.414z"/>
	</g>
</g>
<g>
	<path fill="#FFFFFF" d="M210.565,136.465v-13.75c2.492,2.092,5.199,3.66,8.121,4.705c2.922,1.046,5.872,1.568,8.852,1.568
		c1.747,0,3.272-0.157,4.576-0.473c1.303-0.314,2.392-0.752,3.266-1.311c0.873-0.559,1.525-1.217,1.955-1.977
		c0.43-0.759,0.645-1.582,0.645-2.471c0-1.203-0.344-2.277-1.031-3.223s-1.626-1.818-2.814-2.621c-1.189-0.802-2.6-1.575-4.232-2.32
		c-1.633-0.744-3.395-1.504-5.285-2.277c-4.813-2.005-8.4-4.454-10.764-7.348c-2.363-2.893-3.545-6.388-3.545-10.484
		c0-3.208,0.645-5.965,1.934-8.271c1.289-2.306,3.043-4.203,5.264-5.693c2.22-1.489,4.791-2.585,7.713-3.287
		c2.922-0.701,6.016-1.053,9.281-1.053c3.208,0,6.051,0.193,8.529,0.58c2.478,0.387,4.762,0.981,6.854,1.783v12.848
		c-1.031-0.716-2.156-1.346-3.373-1.891c-1.218-0.544-2.471-0.995-3.76-1.354c-1.289-0.357-2.571-0.623-3.846-0.795
		c-1.275-0.172-2.485-0.258-3.631-0.258c-1.576,0-3.008,0.15-4.297,0.451s-2.378,0.724-3.266,1.268
		c-0.889,0.545-1.576,1.196-2.063,1.955c-0.487,0.76-0.73,1.611-0.73,2.557c0,1.031,0.271,1.955,0.816,2.771
		c0.544,0.816,1.317,1.59,2.32,2.32c1.002,0.73,2.22,1.447,3.652,2.148c1.432,0.702,3.051,1.426,4.855,2.17
		c2.463,1.031,4.676,2.127,6.639,3.287c1.962,1.16,3.645,2.471,5.049,3.932c1.403,1.461,2.478,3.13,3.223,5.006
		c0.744,1.877,1.117,4.061,1.117,6.553c0,3.438-0.652,6.324-1.955,8.658c-1.304,2.335-3.072,4.226-5.307,5.672
		c-2.234,1.447-4.834,2.485-7.799,3.115s-6.095,0.945-9.389,0.945c-3.381,0-6.596-0.287-9.646-0.859
		S212.799,137.612,210.565,136.465z"/>
	<path fill="#FFFFFF" d="M288.768,139.903c-8.823,0-16.014-2.871-21.57-8.615c-5.558-5.743-8.336-13.227-8.336-22.451
		c0-9.739,2.821-17.617,8.465-23.633c5.643-6.016,13.119-9.023,22.43-9.023c8.794,0,15.905,2.879,21.334,8.637
		c5.428,5.758,8.143,13.35,8.143,22.773c0,9.683-2.814,17.488-8.443,23.418S297.82,139.903,288.768,139.903z M289.369,88.125
		c-4.87,0-8.737,1.826-11.602,5.479c-2.865,3.652-4.297,8.486-4.297,14.502c0,6.102,1.432,10.929,4.297,14.48
		c2.864,3.553,6.617,5.328,11.258,5.328c4.783,0,8.579-1.726,11.387-5.178c2.807-3.451,4.211-8.242,4.211-14.373
		c0-6.388-1.361-11.357-4.082-14.91C297.82,89.902,294.096,88.125,289.369,88.125z"/>
	<path fill="#FFFFFF" d="M355.498,139.903c-8.823,0-16.014-2.871-21.57-8.615c-5.558-5.743-8.336-13.227-8.336-22.451
		c0-9.739,2.821-17.617,8.465-23.633c5.643-6.016,13.119-9.023,22.43-9.023c8.794,0,15.905,2.879,21.334,8.637
		c5.428,5.758,8.143,13.35,8.143,22.773c0,9.683-2.814,17.488-8.443,23.418S364.55,139.903,355.498,139.903z M356.1,88.125
		c-4.87,0-8.737,1.826-11.602,5.479c-2.865,3.652-4.297,8.486-4.297,14.502c0,6.102,1.432,10.929,4.297,14.48
		c2.864,3.553,6.617,5.328,11.258,5.328c4.783,0,8.579-1.726,11.387-5.178c2.807-3.451,4.211-8.242,4.211-14.373
		c0-6.388-1.361-11.357-4.082-14.91C364.55,89.902,360.826,88.125,356.1,88.125z"/>
	<path fill="#FFFFFF" d="M451.619,138.829h-14.008l-25.395-38.715c-1.49-2.263-2.521-3.967-3.094-5.113h-0.172
		c0.229,2.178,0.344,5.5,0.344,9.969v33.859H396.19V77.211h14.953l24.449,37.512c1.117,1.69,2.148,3.366,3.094,5.027h0.172
		c-0.229-1.432-0.344-4.254-0.344-8.465V77.211h13.105V138.829z"/>
	<path fill="#FFFFFF" d="M251.793,55.569c-2.226,1.176-4.997,1.764-8.314,1.764c-4.283,0-7.713-1.378-10.288-4.136
		c-2.576-2.757-3.863-6.375-3.863-10.855c0-4.815,1.449-8.706,4.346-11.674c2.897-2.967,6.572-4.451,11.023-4.451
		c2.855,0,5.221,0.413,7.097,1.239v3.758c-2.156-1.204-4.535-1.806-7.139-1.806c-3.458,0-6.26,1.155-8.409,3.464
		c-2.148,2.31-3.223,5.396-3.223,9.259c0,3.667,1.004,6.589,3.013,8.766c2.009,2.177,4.644,3.265,7.905,3.265
		c3.023,0,5.641-0.672,7.853-2.016V55.569z"/>
	<path fill="#FFFFFF" d="M266.448,57.333c-3.178,0-5.714-1.004-7.611-3.013c-1.896-2.009-2.845-4.672-2.845-7.989
		c0-3.611,0.987-6.432,2.96-8.461c1.973-2.029,4.64-3.044,8-3.044c3.205,0,5.707,0.987,7.506,2.96s2.698,4.71,2.698,8.209
		c0,3.43-0.97,6.176-2.908,8.241C272.31,56.3,269.71,57.333,266.448,57.333z M266.7,37.722c-2.212,0-3.961,0.752-5.249,2.257
		c-1.288,1.505-1.932,3.58-1.932,6.226c0,2.548,0.651,4.556,1.953,6.026c1.301,1.47,3.044,2.205,5.228,2.205
		c2.226,0,3.937-0.721,5.134-2.163c1.196-1.441,1.795-3.492,1.795-6.152c0-2.688-0.599-4.759-1.795-6.215
		C270.637,38.45,268.926,37.722,266.7,37.722z"/>
	<path fill="#FFFFFF" d="M313.186,56.829h-3.443V44.483c0-2.379-0.367-4.101-1.103-5.165c-0.734-1.063-1.97-1.596-3.706-1.596
		c-1.469,0-2.719,0.672-3.747,2.016c-1.029,1.344-1.544,2.954-1.544,4.829v12.262h-3.443V44.063c0-4.227-1.63-6.341-4.892-6.341
		c-1.512,0-2.758,0.633-3.737,1.9c-0.979,1.267-1.47,2.915-1.47,4.944v12.262h-3.443v-21.5h3.443v3.401h0.084
		c1.525-2.604,3.751-3.905,6.677-3.905c1.47,0,2.75,0.409,3.842,1.229c1.092,0.818,1.841,1.893,2.247,3.223
		c1.596-2.967,3.976-4.451,7.139-4.451c4.731,0,7.097,2.918,7.097,8.755V56.829z"/>
	<path fill="#FFFFFF" d="M321.458,29.87c-0.616,0-1.141-0.21-1.575-0.63c-0.434-0.42-0.65-0.952-0.65-1.596
		c0-0.644,0.217-1.179,0.65-1.606c0.435-0.427,0.959-0.64,1.575-0.64c0.63,0,1.165,0.213,1.606,0.64
		c0.44,0.427,0.661,0.963,0.661,1.606c0,0.616-0.221,1.141-0.661,1.575C322.623,29.653,322.088,29.87,321.458,29.87z
		 M323.138,56.829h-3.443v-21.5h3.443V56.829z"/>
	<path fill="#FFFFFF" d="M347.955,56.829h-3.443V44.567c0-4.563-1.666-6.845-4.997-6.845c-1.722,0-3.146,0.647-4.272,1.942
		c-1.127,1.294-1.69,2.929-1.69,4.902v12.262h-3.443v-21.5h3.443v3.569h0.084c1.624-2.715,3.976-4.073,7.055-4.073
		c2.352,0,4.15,0.759,5.396,2.278c1.246,1.519,1.869,3.713,1.869,6.582V56.829z"/>
	<path fill="#FFFFFF" d="M372.793,55.107c0,7.895-3.779,11.842-11.338,11.842c-2.659,0-4.983-0.504-6.971-1.512v-3.443
		c2.422,1.344,4.731,2.016,6.929,2.016c5.291,0,7.937-2.813,7.937-8.44v-2.352h-0.084c-1.638,2.744-4.102,4.115-7.391,4.115
		c-2.674,0-4.826-0.955-6.456-2.866c-1.631-1.91-2.446-4.475-2.446-7.695c0-3.653,0.878-6.558,2.635-8.713
		c1.757-2.155,4.161-3.233,7.213-3.233c2.896,0,5.046,1.162,6.445,3.485h0.084v-2.981h3.443V55.107z M369.35,47.107v-3.17
		c0-1.708-0.577-3.17-1.732-4.388c-1.154-1.218-2.593-1.827-4.314-1.827c-2.128,0-3.793,0.773-4.997,2.32
		c-1.204,1.546-1.806,3.713-1.806,6.498c0,2.394,0.577,4.308,1.732,5.742c1.154,1.435,2.684,2.152,4.588,2.152
		c1.932,0,3.502-0.686,4.713-2.058C368.744,51.006,369.35,49.249,369.35,47.107z"/>
	<path fill="#FFFFFF" d="M408.928,56.829h-3.443v-3.401h-0.084c-1.428,2.604-3.64,3.905-6.635,3.905
		c-5.123,0-7.685-3.051-7.685-9.154v-12.85h3.422v12.304c0,4.535,1.736,6.803,5.207,6.803c1.68,0,3.063-0.619,4.147-1.858
		c1.084-1.238,1.627-2.858,1.627-4.86V35.329h3.443V56.829z"/>
	<path fill="#FFFFFF" d="M419.406,53.721h-0.084v12.997h-3.443V35.329h3.443v3.779h0.084c1.693-2.855,4.171-4.283,7.433-4.283
		c2.771,0,4.934,0.962,6.488,2.887c1.553,1.925,2.33,4.504,2.33,7.737c0,3.598-0.875,6.478-2.625,8.64
		c-1.749,2.163-4.143,3.244-7.18,3.244C423.066,57.333,420.917,56.129,419.406,53.721z M419.322,45.05v3.002
		c0,1.778,0.577,3.286,1.732,4.524c1.154,1.239,2.621,1.858,4.398,1.858c2.086,0,3.72-0.798,4.902-2.394s1.774-3.814,1.774-6.656
		c0-2.394-0.553-4.269-1.658-5.627c-1.106-1.357-2.604-2.037-4.494-2.037c-2.001,0-3.611,0.696-4.828,2.089
		C419.93,41.204,419.322,42.95,419.322,45.05z"/>
</g>
</svg>
